<svg width="148" height="48" viewBox="0 0 148 48" xmlns="http://www.w3.org/2000/svg"><path d="M7.14 48v-4.2C2.4 42.84 0 39.18 0 33.9v-2.76h6.24v3.18c0 2.58 1.32 3.66 3.42 3.66 2.1 0 3.42-1.08 3.42-3.78 0-3-1.2-5.16-5.64-8.64C2.04 21.3.18 17.94.18 13.38c0-5.1 2.34-8.7 6.96-9.72V0h5.4v3.66c4.68.96 7.08 4.56 7.08 9.84v1.2h-6.24v-1.62c0-2.58-1.2-3.72-3.3-3.72-2.1 0-3.3 1.14-3.3 3.6 0 2.76 1.2 4.86 5.64 8.4 5.4 4.32 7.26 7.62 7.26 12.42 0 5.4-2.46 9.06-7.14 10.02V48h-5.4zm26.4-3.3V12.66h-6.9V7.98c5.58 0 7.56-1.2 9.06-5.28h4.44v42h-6.6zm24.12.6c-6.48 0-9.84-3.72-9.84-10.44v-3.42h6.24v3.72c0 3 1.32 4.14 3.42 4.14 2.1 0 3.42-1.02 3.42-4.74v-3.42c0-3.9-1.32-5.34-4.32-5.34h-2.22v-6h2.4c2.46 0 3.96-1.08 3.96-4.44V12.3c0-3-1.38-4.2-3.3-4.2s-3.18 1.14-3.18 3.9v2.76H48v-2.22C48 5.82 51.36 2.1 57.66 2.1c6.3 0 9.66 3.66 9.66 10.38v1.5c0 4.5-1.44 7.26-4.68 8.46v.12c3.54 1.32 4.86 4.38 4.86 8.64v3.72c0 6.72-3.36 10.38-9.84 10.38zm25.68-.6v-7.62h-12.6v-6l12-28.38h7.2v28.38h3.12v6h-3.12v7.62h-6.6zm-6.6-13.62h6.6V14.7h-.12l-6.48 16.38zm26.76 3.18v-8.22h-8.04v-4.68h8.04v-8.1h4.68v8.1h8.04v4.68h-8.04v8.22h-4.68zm16.8 10.44v-42h9.42l4.2 30.06h.12l4.2-30.06h9.42v42h-6.24V12.9h-.12l-4.8 31.8h-5.52l-4.8-31.8h-.12v31.8h-5.76z" fill="#E98024" fill-rule="evenodd"/></svg>