<svg width="137" height="44" viewBox="0 0 137 44" xmlns="http://www.w3.org/2000/svg"><path d="M12.6 42.6v-7.62H0v-6L12 .6h7.2v28.38h3.12v6H19.2v7.62h-6.6zM6 28.98h6.6V12.6h-.12L6 28.98zM35.1 43.2c-6.48 0-10.02-3.84-10.02-10.56V10.56C25.08 3.84 28.62 0 35.1 0c6.48 0 10.02 3.84 10.02 10.56v22.08c0 6.72-3.54 10.56-10.02 10.56zm0-6c2.1 0 3.42-1.14 3.42-4.14V10.14c0-3-1.32-4.14-3.42-4.14-2.1 0-3.42 1.14-3.42 4.14v22.92c0 3 1.32 4.14 3.42 4.14zm14.46 5.4v-6.36h6.36v6.36h-6.36zm20.52 0V10.56h-6.9V5.88c5.58 0 7.56-1.2 9.06-5.28h4.44v42h-6.6zm21.96-10.44v-8.22H84v-4.68h8.04v-8.1h4.68v8.1h8.04v4.68h-8.04v8.22h-4.68zm16.8 10.44V.6h9.42l4.2 30.06h.12L126.78.6h9.42v42h-6.24V10.8h-.12l-4.8 31.8h-5.52l-4.8-31.8h-.12v31.8h-5.76z" fill="#E98024" fill-rule="evenodd"/></svg>