<svg width="128" height="50" viewBox="0 0 128 50" xmlns="http://www.w3.org/2000/svg"><path d="M10.02 43.2C3.54 43.2 0 39.36 0 32.64V10.92C0 3.84 3.24 0 10.08 0c6.48 0 9.84 3.84 9.84 10.56v.78h-6.24v-1.2c0-3-1.32-4.14-3.42-4.14C7.92 6 6.6 7.14 6.6 11.16v8.04h.12c1.14-2.4 3.06-3.66 6-3.66 4.86 0 7.32 3.42 7.32 9.6v7.5c0 6.72-3.54 10.56-10.02 10.56zm0-6c2.28 0 3.42-1.32 3.42-4.08v-7.44c0-2.82-1.14-4.14-3.42-4.14-2.28 0-3.42 1.32-3.42 4.14v7.44c0 2.76 1.14 4.08 3.42 4.08zM24.3 49.8l2.16-7.2H24.3v-6.36h6.36v5.7l-3.3 7.86H24.3zm20.82-6.6c-6.48 0-10.02-3.84-10.02-10.56V10.56C35.1 3.84 38.64 0 45.12 0c6.48 0 10.02 3.84 10.02 10.56v22.08c0 6.72-3.54 10.56-10.02 10.56zm0-6c2.1 0 3.42-1.14 3.42-4.14V10.14c0-3-1.32-4.14-3.42-4.14-2.1 0-3.42 1.14-3.42 4.14v22.92c0 3 1.32 4.14 3.42 4.14zm24 6c-6.48 0-10.02-3.84-10.02-10.56V10.56C59.1 3.84 62.64 0 69.12 0c6.48 0 10.02 3.84 10.02 10.56v22.08c0 6.72-3.54 10.56-10.02 10.56zm0-6c2.1 0 3.42-1.14 3.42-4.14V10.14c0-3-1.32-4.14-3.42-4.14-2.1 0-3.42 1.14-3.42 4.14v22.92c0 3 1.32 4.14 3.42 4.14zm24 6c-6.48 0-10.02-3.84-10.02-10.56V10.56C83.1 3.84 86.64 0 93.12 0c6.48 0 10.02 3.84 10.02 10.56v22.08c0 6.72-3.54 10.56-10.02 10.56zm0-6c2.1 0 3.42-1.14 3.42-4.14V10.14c0-3-1.32-4.14-3.42-4.14-2.1 0-3.42 1.14-3.42 4.14v22.92c0 3 1.32 4.14 3.42 4.14zm21.66-5.04v-8.22h-8.04v-4.68h8.04v-8.1h4.68v8.1h8.04v4.68h-8.04v8.22h-4.68z" fill="#E98024" fill-rule="evenodd"/></svg>