<svg xmlns="http://www.w3.org/2000/svg" viewBox="0 0 137.83 32"><path fill="#fff" d="M59.51 6.79a3.78 3.78 0 00-1.12.16 3.73 3.73 0 00-.91.42 3.8 3.8 0 00-.73.6l-.16.18V7h-2.77v10.51h2.77v-5.89a2.36 2.36 0 01.56-1.68 1.91 1.91 0 011.47-.59 1.75 1.75 0 011.38.56 2.48 2.48 0 01.5 1.67v5.93h2.77v-6.63a4.32 4.32 0 00-1-3 3.57 3.57 0 00-2.76-1.09zm10.21.07a8.76 8.76 0 00-2.17.23 11 11 0 00-1.75.62l-.18.09.77 2.26.21-.06a10.19 10.19 0 011.32-.45 6 6 0 011.47-.16 2.53 2.53 0 011.69.5 1.72 1.72 0 01.56 1.33 9.85 9.85 0 00-1-.23 9.23 9.23 0 00-1.59-.12 6.54 6.54 0 00-1.69.21 3.92 3.92 0 00-1.36.62 3.07 3.07 0 00-.91 1.11 3.51 3.51 0 00-.33 1.56 3.16 3.16 0 00.32 1.44 3.09 3.09 0 00.84 1 3.61 3.61 0 001.21.63 4.9 4.9 0 001.44.21 4.38 4.38 0 002-.44 4.85 4.85 0 001-.68v.92h2.73v-6.11A4.53 4.53 0 0073.21 8a4.69 4.69 0 00-3.49-1.14zm-.48 8.7a2.21 2.21 0 01-1.24-.34 1 1 0 01-.46-.92 1.1 1.1 0 01.51-1 2.78 2.78 0 011.57-.38 6.67 6.67 0 011.23.11 6.33 6.33 0 01.86.22v.42a1.68 1.68 0 01-.17.77A1.81 1.81 0 0171 15a2.62 2.62 0 01-.78.4 3.36 3.36 0 01-.98.16zm19.39-1.51L85.92 7H83l4.29 10.29a2 2 0 01-.51.74 1.09 1.09 0 01-.69.2 2.15 2.15 0 01-.63-.1 3.69 3.69 0 01-.62-.26l-.21-.11-1 2.12.18.1a5.72 5.72 0 001.14.47 5 5 0 001.35.17 3.85 3.85 0 001.15-.16 2.9 2.9 0 001-.53 3.72 3.72 0 00.77-.92 8.88 8.88 0 00.65-1.35L94 7h-2.91z"/><path fill="#e78024" d="M106.7 14.1a5.27 5.27 0 01-1.13.87 2.85 2.85 0 01-2.46.09 2.8 2.8 0 01-.88-.64 2.9 2.9 0 01-.58-1 3.42 3.42 0 01-.2-1.18 3.34 3.34 0 01.2-1.16 3 3 0 01.56-1 2.72 2.72 0 01.85-.64 2.45 2.45 0 011.07-.23 2.68 2.68 0 011.37.32 5.22 5.22 0 011.09.87l.16.17 1.73-1.86-.14-.15a5.85 5.85 0 00-1.72-1.31 5.65 5.65 0 00-6.39 1.12 5.43 5.43 0 00-1.14 1.75 5.59 5.59 0 00-.41 2.11 5.54 5.54 0 00.41 2.11 5.34 5.34 0 001.14 1.73 5.45 5.45 0 003.9 1.59 5.25 5.25 0 002.53-.55 6.59 6.59 0 001.76-1.41l.14-.16-1.7-1.67zM119 8.39a5.4 5.4 0 00-1.77-1.17 5.73 5.73 0 00-2.23-.43 5.66 5.66 0 00-2.23.44 5.48 5.48 0 00-2.94 2.92 5.36 5.36 0 00-.43 2.13 5.46 5.46 0 00.42 2.11 5.28 5.28 0 001.18 1.76 5.55 5.55 0 001.77 1.16 5.95 5.95 0 004.45 0 5.44 5.44 0 002.95-2.92 5.27 5.27 0 00.43-2.11 5.35 5.35 0 00-1.6-3.89zm-4 6.91a2.68 2.68 0 01-1.13-.24 2.85 2.85 0 01-.9-.65 3.16 3.16 0 01-.59-1 3.22 3.22 0 01-.21-1.17 3.51 3.51 0 01.2-1.17 2.72 2.72 0 01.56-.94 2.79 2.79 0 01.89-.64 2.91 2.91 0 012.3 0 2.81 2.81 0 01.9.65 3 3 0 01.59 1 3.29 3.29 0 01.21 1.18 3.41 3.41 0 01-.19 1.16 2.9 2.9 0 01-.56.95 2.81 2.81 0 01-.88.64 2.78 2.78 0 01-1.19.23zm21.83-7.44a3.62 3.62 0 00-2.76-1.07 4.06 4.06 0 00-2.09.52 5.19 5.19 0 00-1.3 1.1 3.4 3.4 0 00-1.07-1.09 3.49 3.49 0 00-2-.53 3.69 3.69 0 00-1.1.16 3.31 3.31 0 00-.89.42A4 4 0 00125 8l-.15.17V7h-2.77v10.51h2.77v-5.87a2.49 2.49 0 01.53-1.7 1.75 1.75 0 011.39-.59 1.64 1.64 0 011.33.55 2.52 2.52 0 01.48 1.67v6h2.77v-5.95a2.41 2.41 0 01.54-1.7 1.79 1.79 0 011.39-.57 1.64 1.64 0 011.33.55 2.57 2.57 0 01.48 1.69v5.93h2.77v-6.66a4.24 4.24 0 00-1.03-3z"/><path fill="#fff" d="M49.57 7h2.77v10.52h-2.77zm2.92-2.46A1.53 1.53 0 1051 6.07a1.53 1.53 0 001.49-1.53z"/><path fill="#e78024" d="M97.36 16.21a1.53 1.53 0 10-1.53 1.53 1.53 1.53 0 001.53-1.53z"/><path fill="#fff" d="M47.28 11.09a4 4 0 00-.92-.73 7.28 7.28 0 00-.71-.35l-.16-.06.14-.09.37-.26a3.31 3.31 0 00.68-.69 3.44 3.44 0 00.45-.91 3.66 3.66 0 00.18-1.2 3.35 3.35 0 00-1-2.46A5.17 5.17 0 0042.5 3H36v14.51h6.7a8.6 8.6 0 002.19-.26 5.23 5.23 0 001.71-.76 3.56 3.56 0 001.11-1.27 3.84 3.84 0 00.39-1.75 3.78 3.78 0 00-.21-1.33 3 3 0 00-.61-1.05zM38.75 8.9V5.51h3.44A2.92 2.92 0 0144 6a1.41 1.41 0 01.58 1.21 1.46 1.46 0 01-.66 1.33A3.35 3.35 0 0142 9h-3.25zm6.57 4.3a1.49 1.49 0 01-.67 1.34 3.45 3.45 0 01-1.92.46h-4v-3.6h3.8a3.78 3.78 0 012.11.47 1.47 1.47 0 01.66 1.29zM82 6.8a3.46 3.46 0 00-2.36.68 4.33 4.33 0 00-1 1.1V7h-2.8v10.51h2.77v-4.05a5.35 5.35 0 01.24-1.68 3.2 3.2 0 01.66-1.17 2.73 2.73 0 011-.69 3.56 3.56 0 011.31-.23h.34V6.81zM36.78 29l1-4.94H36l.13-.64h4.37l-.13.64h-1.81l-1 4.94zm2.67 0l.84-4h.61l-.17.83a2.81 2.81 0 01.61-.69 1 1 0 01.61-.22 1.2 1.2 0 01.51.15l-.28.64a.65.65 0 00-.39-.13 1.06 1.06 0 00-.74.4 3.06 3.06 0 00-.6 1.45L40.1 29zm5.35-.77a2 2 0 01-1.49.82 1.06 1.06 0 01-.75-.27.86.86 0 01-.29-.66 5 5 0 01.13-.87l.49-2.33h.69L43 27.51a2.6 2.6 0 000 .49.46.46 0 00.14.36.59.59 0 00.41.13 1.23 1.23 0 00.56-.14 1.5 1.5 0 00.48-.38 2 2 0 00.33-.57 5 5 0 00.19-.73l.37-1.75h.69l-.84 4h-.64zm1.64-.65h.69a1.26 1.26 0 00.09.51.72.72 0 00.34.34 1.18 1.18 0 00.57.13 1.08 1.08 0 00.68-.18.54.54 0 00.23-.43.51.51 0 00-.14-.34 2.16 2.16 0 00-.69-.39 6.54 6.54 0 01-.7-.33 1.13 1.13 0 01-.38-.37A.91.91 0 0147 26a1.07 1.07 0 01.38-.82 1.54 1.54 0 011.06-.34 1.7 1.7 0 011.16.35 1.22 1.22 0 01.41.93h-.67a.77.77 0 00-.26-.58 1 1 0 00-.69-.21.85.85 0 00-.56.16.46.46 0 00-.2.35.43.43 0 00.17.33 2.87 2.87 0 00.59.3 4 4 0 011 .54 1 1 0 01.33.77 1.08 1.08 0 01-.18.59 1.27 1.27 0 01-.56.46 2.13 2.13 0 01-.89.17 2 2 0 01-1.19-.35 1.23 1.23 0 01-.46-1.07zm5.44.83l-.11.56a1.89 1.89 0 01-.48.06 1 1 0 01-.65-.2.51.51 0 01-.18-.41 4.16 4.16 0 01.1-.61l.44-2.35h-.54l.11-.53h.54l.21-1 .79-.48-.31 1.47h.68l-.11.53h-.67l-.47 2.23a4.18 4.18 0 00-.09.51.24.24 0 00.07.19.33.33 0 00.23.06 1.65 1.65 0 00.44-.03zm3.52-.82l.67.07a2 2 0 01-.66.95 1.83 1.83 0 01-1.24.45 1.67 1.67 0 01-.82-.21 1.36 1.36 0 01-.57-.6 2 2 0 01-.2-.9 2.87 2.87 0 01.31-1.28 2.19 2.19 0 01.79-.92 2 2 0 011.05-.3 1.53 1.53 0 011.15.45 1.69 1.69 0 01.43 1.22 3.61 3.61 0 01-.05.61h-3a1.68 1.68 0 000 .21 1.28 1.28 0 00.26.87.81.81 0 00.64.3 1.23 1.23 0 00.7-.23 1.51 1.51 0 00.54-.69zm-2-1h2.27v-.15a1.12 1.12 0 00-.26-.79.87.87 0 00-.67-.28 1.22 1.22 0 00-.8.3 1.82 1.82 0 00-.54.92zm6.09 1.79a1.66 1.66 0 01-1.23.68 1.23 1.23 0 01-1-.42 1.78 1.78 0 01-.38-1.23 3 3 0 01.3-1.35 2.29 2.29 0 01.76-.91 1.63 1.63 0 01.91-.3 1.22 1.22 0 011.14.73l.46-2.17h.68L60 29h-.64zm-1.89-1.11a2.12 2.12 0 00.08.67.87.87 0 00.29.4.75.75 0 00.48.16 1.08 1.08 0 00.85-.5 2.5 2.5 0 00.51-1.6 1.06 1.06 0 00-.25-.75.83.83 0 00-.63-.27.93.93 0 00-.45.11 1.32 1.32 0 00-.4.37 2.35 2.35 0 00-.34.67 2.28 2.28 0 00-.14.74zM63.26 29l1.16-5.57h.69l-.41 2a2.44 2.44 0 01.59-.42 1.3 1.3 0 01.56-.12 1.22 1.22 0 01.94.42 1.78 1.78 0 01.38 1.23 3 3 0 01-.15 1 2.73 2.73 0 01-.38.75 2.36 2.36 0 01-.46.48 1.84 1.84 0 01-.49.27 1.44 1.44 0 01-.48.09 1.2 1.2 0 01-.7-.21 1.37 1.37 0 01-.51-.72l-.16.76zm1-1.66v.13a1.13 1.13 0 00.25.79.8.8 0 00.62.27 1 1 0 00.66-.25 1.8 1.8 0 00.5-.79 2.93 2.93 0 00.19-1 1.17 1.17 0 00-.25-.79.77.77 0 00-.61-.28 1 1 0 00-.68.29 2.15 2.15 0 00-.52.88 2.34 2.34 0 00-.14.72zm3.07 3.18v-.65a1.51 1.51 0 00.41.06.56.56 0 00.34-.1 1.58 1.58 0 00.37-.47l.22-.4-.67-4h.68l.3 2q.09.6.16 1.21L71 24.93h.72l-2.59 4.57a2.92 2.92 0 01-.66.89 1.08 1.08 0 01-.67.22 1.41 1.41 0 01-.47-.09zm7.93-2.11l-.11.56a1.89 1.89 0 01-.48.06 1 1 0 01-.65-.2.51.51 0 01-.18-.41 4.16 4.16 0 01.1-.61l.49-2.35h-.54l.11-.53h.54l.21-1 .79-.48-.31 1.47h.68l-.11.53h-.7l-.47 2.23a4.18 4.18 0 00-.09.51.24.24 0 00.07.19.33.33 0 00.23.06 1.65 1.65 0 00.42-.03zm.55.59l.84-4h.61l-.17.83a2.81 2.81 0 01.61-.69 1 1 0 01.61-.22 1.2 1.2 0 01.51.15l-.28.64a.65.65 0 00-.39-.13 1.06 1.06 0 00-.74.4 3.06 3.06 0 00-.6 1.45L76.47 29zm5.32-.54a2.74 2.74 0 01-.69.45 1.77 1.77 0 01-.71.14 1.25 1.25 0 01-.9-.33 1.12 1.12 0 01-.34-.84 1.15 1.15 0 01.15-.6 1.21 1.21 0 01.41-.42 1.8 1.8 0 01.62-.23 7 7 0 01.88-.07 3.15 3.15 0 00.93-.14 1.78 1.78 0 00.08-.47.45.45 0 00-.17-.38 1.11 1.11 0 00-.7-.19 1.21 1.21 0 00-.71.19 1.08 1.08 0 00-.4.55l-.7-.06a1.82 1.82 0 01.67-.92 2 2 0 011.17-.32 1.82 1.82 0 011.19.36.84.84 0 01.33.69 3.49 3.49 0 01-.1.75l-.22 1a3.76 3.76 0 00-.11.78 2.61 2.61 0 00.08.55h-.7a2.54 2.54 0 01-.06-.49zm.25-1.54a1.66 1.66 0 01-.31.09l-.55.06a4.24 4.24 0 00-.85.13.71.71 0 00-.37.26.67.67 0 00-.13.4.62.62 0 00.2.48.8.8 0 00.57.19 1.34 1.34 0 001.16-.68 2.93 2.93 0 00.28-.93zm4.08 1.46a1.66 1.66 0 01-1.23.68 1.23 1.23 0 01-1-.42 1.78 1.78 0 01-.38-1.23 3 3 0 01.3-1.35 2.29 2.29 0 01.76-.91 1.63 1.63 0 01.91-.3 1.22 1.22 0 011.14.73l.46-2.17h.68L86 29h-.64zm-1.89-1.11a2.12 2.12 0 00.08.67.87.87 0 00.29.4.75.75 0 00.48.16 1.08 1.08 0 00.85-.49 2.5 2.5 0 00.51-1.6 1.06 1.06 0 00-.25-.75.83.83 0 00-.63-.27.93.93 0 00-.45.11 1.32 1.32 0 00-.4.37 2.35 2.35 0 00-.34.67 2.28 2.28 0 00-.14.73zm6.43.32l.67.07a2 2 0 01-.66.95 1.83 1.83 0 01-1.24.45 1.67 1.67 0 01-.82-.21 1.36 1.36 0 01-.57-.6 2 2 0 01-.2-.9 2.87 2.87 0 01.31-1.28 2.19 2.19 0 01.79-.92 2 2 0 011.05-.3 1.53 1.53 0 011.15.45 1.69 1.69 0 01.52 1.21 3.61 3.61 0 01-.05.61h-3a1.68 1.68 0 000 .21 1.28 1.28 0 00.26.87.81.81 0 00.64.3 1.23 1.23 0 00.7-.23 1.51 1.51 0 00.45-.68zm-2-1h2.3v-.15a1.12 1.12 0 00-.26-.79.87.87 0 00-.67-.28 1.22 1.22 0 00-.8.3 1.82 1.82 0 00-.57.92zM91.4 29l.84-4h.61l-.17.83a2.81 2.81 0 01.61-.69 1 1 0 01.61-.22 1.2 1.2 0 01.51.15l-.28.64a.65.65 0 00-.39-.13 1.06 1.06 0 00-.74.4 3.06 3.06 0 00-.6 1.45L92.05 29zm2.66-1.42h.69a1.26 1.26 0 00.09.51.72.72 0 00.34.34 1.18 1.18 0 00.57.13 1.08 1.08 0 00.68-.18.54.54 0 00.23-.43.51.51 0 00-.14-.34 2.16 2.16 0 00-.69-.39 6.54 6.54 0 01-.7-.33 1.13 1.13 0 01-.38-.37.91.91 0 01-.13-.48 1.07 1.07 0 01.38-.82 1.54 1.54 0 011.06-.34 1.7 1.7 0 011.16.35 1.22 1.22 0 01.41.93h-.67a.77.77 0 00-.26-.58 1 1 0 00-.69-.21.85.85 0 00-.56.16.46.46 0 00-.2.35.43.43 0 00.17.33 2.87 2.87 0 00.59.3 4 4 0 011 .54 1 1 0 01.33.77 1.08 1.08 0 01-.18.59 1.27 1.27 0 01-.56.46 2.13 2.13 0 01-.89.17 2 2 0 01-1.19-.35 1.23 1.23 0 01-.46-1.11zm6.06 0h.69a1.26 1.26 0 00.09.51.72.72 0 00.34.34 1.18 1.18 0 00.57.13 1.08 1.08 0 00.68-.18.54.54 0 00.23-.43.51.51 0 00-.14-.34 2.16 2.16 0 00-.69-.39 6.54 6.54 0 01-.7-.33 1.13 1.13 0 01-.38-.37.91.91 0 01-.13-.48 1.07 1.07 0 01.38-.82 1.54 1.54 0 011.06-.34 1.7 1.7 0 011.16.35 1.22 1.22 0 01.41.93h-.67a.77.77 0 00-.26-.58 1 1 0 00-.69-.21.85.85 0 00-.56.16.46.46 0 00-.2.35.43.43 0 00.17.33 2.87 2.87 0 00.59.3 4 4 0 011 .54 1 1 0 01.33.77 1.08 1.08 0 01-.18.59 1.27 1.27 0 01-.56.46 2.13 2.13 0 01-.89.17 2 2 0 01-1.19-.35 1.23 1.23 0 01-.46-1.11zm3.8 1.42l.84-4h.69l-.84 4zm1-4.8l.16-.78h.68l-.16.78zm.76 4.8l.84-4h.62l-.15.7a3.3 3.3 0 01.76-.6 1.51 1.51 0 01.72-.19 1.07 1.07 0 01.77.27.94.94 0 01.28.71 4 4 0 01-.1.71l-.5 2.4h-.69l.54-2.56a2.94 2.94 0 00.08-.55.42.42 0 00-.14-.33.58.58 0 00-.4-.13 1.35 1.35 0 00-.94.38 2.43 2.43 0 00-.61 1.3l-.4 1.89zm7.11-1.51l.69.07a2.31 2.31 0 01-.74 1.12 1.73 1.73 0 01-1.09.37 1.41 1.41 0 01-1.07-.43 1.65 1.65 0 01-.41-1.19 3.4 3.4 0 01.26-1.3 2.1 2.1 0 01.75-1 1.94 1.94 0 011.12-.33 1.42 1.42 0 011 .37 1.29 1.29 0 01.38 1H113a.82.82 0 00-.22-.6.78.78 0 00-.58-.22 1.07 1.07 0 00-.72.26 1.73 1.73 0 00-.48.8 3.33 3.33 0 00-.17 1 1.14 1.14 0 00.23.78.72.72 0 00.56.26 1 1 0 00.64-.25 1.67 1.67 0 00.53-.71zm4.08.1l.67.07a2 2 0 01-.66.95 1.83 1.83 0 01-1.24.45 1.67 1.67 0 01-.82-.21 1.36 1.36 0 01-.57-.6 2 2 0 01-.2-.9 2.87 2.87 0 01.31-1.28 2.19 2.19 0 01.79-.92 2 2 0 011.05-.3 1.53 1.53 0 011.15.45 1.69 1.69 0 01.43 1.22 3.61 3.61 0 01-.05.61h-3a1.68 1.68 0 000 .21 1.28 1.28 0 00.26.87.81.81 0 00.64.3 1.23 1.23 0 00.7-.23 1.51 1.51 0 00.54-.69zm-2-1h2.27v-.15a1.12 1.12 0 00-.26-.79.87.87 0 00-.67-.28 1.22 1.22 0 00-.8.3 1.82 1.82 0 00-.54.92zm5.72 2.41a3 3 0 01.29-.83 2.79 2.79 0 01.5-.64q.31-.3 1.2-1a8.52 8.52 0 00.74-.64 2.12 2.12 0 00.41-.58 1 1 0 00.09-.42.88.88 0 00-.27-.65.91.91 0 00-.67-.27 1 1 0 00-.68.27 1.61 1.61 0 00-.42.87l-.67-.1a1.83 1.83 0 01.58-1.17 1.71 1.71 0 011.19-.43 1.86 1.86 0 01.86.2 1.33 1.33 0 01.58.56 1.53 1.53 0 01.19.74 1.73 1.73 0 01-.4 1.07 10.53 10.53 0 01-1.43 1.26 8 8 0 00-.76.66 2.37 2.37 0 00-.37.49h2.49l-.13.63zm4.41-1.86a5.74 5.74 0 01.68-2.6 2.86 2.86 0 01.54-.68 2.07 2.07 0 01.55-.36 1.48 1.48 0 01.6-.12 1.38 1.38 0 011.07.48 2 2 0 01.43 1.37 5.84 5.84 0 01-.3 1.83 3.49 3.49 0 01-1 1.61 1.64 1.64 0 01-1.09.41 1.36 1.36 0 01-1.06-.49 2.11 2.11 0 01-.42-1.45zm.67.17a1.58 1.58 0 00.17.8.75.75 0 00.69.4 1 1 0 00.73-.36 3.32 3.32 0 00.71-1.49 7.15 7.15 0 00.24-1.61 1.32 1.32 0 00-.23-.87.76.76 0 00-.61-.27 1 1 0 00-.51.14 1.44 1.44 0 00-.45.48 4.86 4.86 0 00-.54 1.45 6.06 6.06 0 00-.18 1.33zm3.68-.17a5.74 5.74 0 01.68-2.6 2.86 2.86 0 01.54-.68 2.07 2.07 0 01.55-.36 1.48 1.48 0 01.6-.12 1.38 1.38 0 011.07.48 2 2 0 01.43 1.37 5.84 5.84 0 01-.3 1.83 3.49 3.49 0 01-1 1.61 1.64 1.64 0 01-1.09.41 1.36 1.36 0 01-1.06-.49 2.11 2.11 0 01-.42-1.45zm.67.17a1.58 1.58 0 00.17.8.75.75 0 00.69.4 1 1 0 00.73-.36 3.32 3.32 0 00.71-1.49 7.15 7.15 0 00.24-1.61 1.32 1.32 0 00-.23-.87.76.76 0 00-.61-.27 1 1 0 00-.51.14 1.44 1.44 0 00-.45.48 4.86 4.86 0 00-.54 1.45 6.06 6.06 0 00-.22 1.33zm3.66-.17a5.74 5.74 0 01.68-2.6 2.86 2.86 0 01.54-.68 2.07 2.07 0 01.55-.36 1.48 1.48 0 01.6-.12 1.38 1.38 0 011.07.48 2 2 0 01.43 1.37 5.84 5.84 0 01-.3 1.83 3.49 3.49 0 01-1 1.61 1.64 1.64 0 01-1.09.41 1.36 1.36 0 01-1.06-.49 2.11 2.11 0 01-.42-1.45zm.67.17a1.58 1.58 0 00.17.8.75.75 0 00.69.4 1 1 0 00.73-.36 3.32 3.32 0 00.71-1.49 7.15 7.15 0 00.24-1.61 1.32 1.32 0 00-.23-.87.76.76 0 00-.61-.27 1 1 0 00-.51.14 1.44 1.44 0 00-.45.48 4.86 4.86 0 00-.54 1.45 6.06 6.06 0 00-.2 1.33zM27.31 4.68a16 16 0 100 22.63 16 16 0 000-22.63z"/><path fill="#293052" d="M11.54 20.2a2.92 2.92 0 001.34 2l-.31-.57s.59-1.54-1.03-1.43z"/><path fill="#293052" d="M26.5 5.49a14.86 14.86 0 100 21 14.87 14.87 0 000-21zM25 25l-.49.46c-3.57 2.91-6.32 1.46-6.35 1.46-1.86-.37-2.79-.38-3.31-.73-.13-.09-.55-.31-.65-.26a1.19 1.19 0 01-1.44-.09l-.13-.12a1 1 0 01-.19-1.41c.14-.14-.1-.53-.1-.53s-.7-1-1.18-1.66a4.65 4.65 0 01-.6-2.07 5.53 5.53 0 01-.77-1.13 2.94 2.94 0 00-.41-.5 2.63 2.63 0 01-.25-.27.11.11 0 010-.09 3 3 0 01.82-1l.89-.55a1.44 1.44 0 011.1-.64 5.26 5.26 0 012.08.32l.45.14c.75.24 1.41.52 1.94.75a8.76 8.76 0 001.08.42 4.45 4.45 0 002.91-.82c.57-.52.81-.86.81-1.14a.64.64 0 00-.23-.47c-.08-.08-.19-.22-.33-.36l-.07-.07c-1.57-1.67-1.3-2.72-1.3-2.73a2.2 2.2 0 00-.82-1.73l-.15-.18-.05-.06a20 20 0 002.43.52 4.65 4.65 0 001.1.06c.82 0 1.46-.1 1.51-.28a11.26 11.26 0 01-2.18-.64c-.8-.31-.93-.35-1.44-.52s-1.37-.53-1.37-.53c2.83.74 3.76 1 5.05 1.05a4.06 4.06 0 001-.09c.18 0 .76-.16.82-.36a4.62 4.62 0 01-1.6-.25C20.26 7.81 20 7.27 18.15 6.55a16.5 16.5 0 00-2.78-.88 5.36 5.36 0 00-2.4 0c-2.5-.59-3.07-.52-3.81-.37A12.7 12.7 0 0125 7a12.94 12.94 0 011.55 1.87l.06.09A12.69 12.69 0 0125 25zm-8.35-14.35a2.91 2.91 0 011.64 1.77c-1.58.36-1.25-1.25-1.25-1.25z"/></svg>