<svg width="70" height="70" viewBox="0 0 70 70" xmlns="http://www.w3.org/2000/svg"><g fill="none" fill-rule="evenodd"><path d="M0 0h70v70H0z"/><path d="M62 70H8c-1.93 0-3.5-1.57-3.5-3.5v-44C4.5 20.57 6.07 19 8 19h54c1.93 0 3.5 1.57 3.5 3.5v44c0 1.93-1.57 3.5-3.5 3.5zM8 20a2.5 2.5 0 00-2.5 2.5v44A2.5 2.5 0 008 69h54a2.5 2.5 0 002.5-2.5v-44A2.5 2.5 0 0062 20H8z" fill="#E98024" fill-rule="nonzero"/><path d="M69.5 52h-5v-1H69V37h-4.5v-1h5c.28 0 .5.22.5.5v15c0 .28-.22.5-.5.5zM5.5 52h-5c-.28 0-.5-.22-.5-.5v-15c0-.28.22-.5.5-.5h5v1H1v14h4.5v1z" fill="#E98024"/><path d="M20 43c-4.41 0-8-3.59-8-8s3.59-8 8-8 8 3.59 8 8-3.59 8-8 8zm0-15c-3.86 0-7 3.14-7 7s3.14 7 7 7 7-3.14 7-7-3.14-7-7-7zM50 43c-4.41 0-8-3.59-8-8s3.59-8 8-8 8 3.59 8 8-3.59 8-8 8zm0-15c-3.86 0-7 3.14-7 7s3.14 7 7 7 7-3.14 7-7-3.14-7-7-7zM54.5 58.5h-39c-1.93 0-3.5-1.57-3.5-3.5s1.57-3.5 3.5-3.5h39c1.93 0 3.5 1.57 3.5 3.5s-1.57 3.5-3.5 3.5zm-39-6a2.5 2.5 0 000 5h39a2.5 2.5 0 000-5h-39z" fill="#E98024" fill-rule="nonzero"/><path d="M35 19.5c-.28 0-.5-.22-.5-.5V8c0-.28.22-.5.5-.5s.5.22.5.5v11c0 .28-.22.5-.5.5z" fill="#E98024"/><path d="M35 8c-2.21 0-4-1.79-4-4s1.79-4 4-4 4 1.79 4 4-1.79 4-4 4zm0-7c-1.65 0-3 1.35-3 3s1.35 3 3 3 3-1.35 3-3-1.35-3-3-3z" fill="#E98024" fill-rule="nonzero"/></g></svg>