<svg width="25" height="51" viewBox="0 0 25 51" xmlns="http://www.w3.org/2000/svg"><g fill="none" fill-rule="evenodd"><path d="M-13 0h50v50h-50z"/><path d="M19.8 50.02H5.4c-2.65 0-4.8-2.16-4.8-4.82V4.84C.6 2.18 2.75.02 5.4.02h14.4c2.65 0 4.8 2.16 4.8 4.82v40.37c0 2.65-2.15 4.81-4.8 4.81zM5.4 1C3.28 1 1.56 2.72 1.56 4.83V45.2c0 2.11 1.72 3.84 3.84 3.84h14.4c2.12 0 3.84-1.72 3.84-3.84V4.84C23.64 2.72 21.92 1 19.8 1h-3.34l-.21 1.89c-.11.98-.93 1.72-1.91 1.72h-3.48c-.98 0-1.8-.74-1.91-1.72L8.74 1H5.4zm4.31 0l.2 1.78c.05.48.46.85.95.85h3.48c.49 0 .9-.36.95-.85L15.5 1H9.71zm2.89 42.54a1.93 1.93 0 01-1.92-1.93v-1.44c0-1.07.86-1.93 1.92-1.93s1.92.87 1.92 1.93v1.44c0 1.06-.86 1.93-1.92 1.93zm0-4.33c-.53 0-.96.43-.96.95v1.44c0 .52.43.95.96.95s.96-.43.96-.95v-1.44c0-.52-.43-.95-.96-.95zm4.32 0h-1.44a1.93 1.93 0 01-1.92-1.93c0-1.06.86-1.93 1.92-1.93h1.44c1.06 0 1.92.87 1.92 1.93s-.86 1.93-1.92 1.93zm-1.44-2.88c-.53 0-.96.43-.96.95s.43.95.96.95h1.44c.53 0 .96-.43.96-.95s-.43-.95-.96-.95h-1.44zm-5.76 2.88H8.28a1.93 1.93 0 01-1.92-1.93c0-1.06.86-1.93 1.92-1.93h1.44c1.06 0 1.92.87 1.92 1.93s-.86 1.93-1.92 1.93zm-1.44-2.88c-.53 0-.96.43-.96.95s.43.95.96.95h1.44c.53 0 .96-.43.96-.95s-.43-.95-.96-.95H8.28zm4.32 0a1.93 1.93 0 01-1.92-1.93v-1.44c0-1.07.86-1.93 1.92-1.93s1.92.87 1.92 1.93v1.44c0 1.06-.86 1.93-1.92 1.93zm0-4.33c-.53 0-.96.43-.96.95v1.44c0 .52.43.95.96.95s.96-.43.96-.95v-1.44c0-.52-.43-.95-.96-.95zm6.48-5.04h-1.44a1.93 1.93 0 01-1.92-1.93c0-1.07.86-1.93 1.92-1.93h1.44c1.06 0 1.92.87 1.92 1.93s-.86 1.93-1.92 1.93zm-1.44-2.89c-.53 0-.96.43-.96.95s.43.95.96.95h1.44c.53 0 .96-.43.96-.95s-.43-.95-.96-.95h-1.44zm-4.32 2.89h-1.44a1.93 1.93 0 01-1.92-1.93c0-1.07.86-1.93 1.92-1.93h1.44c1.06 0 1.92.87 1.92 1.93s-.86 1.93-1.92 1.93zm-1.44-2.89c-.53 0-.96.43-.96.95s.43.95.96.95h1.44c.53 0 .96-.43.96-.95s-.43-.95-.96-.95h-1.44zm-4.32 2.89H6.12a1.93 1.93 0 01-1.92-1.93c0-1.07.86-1.93 1.92-1.93h1.44c1.06 0 1.92.87 1.92 1.93s-.86 1.93-1.92 1.93zm-1.44-2.89c-.53 0-.96.43-.96.95s.43.95.96.95h1.44c.53 0 .96-.43.96-.95s-.43-.95-.96-.95H6.12zm12.96-2.88h-1.44a1.93 1.93 0 01-1.92-1.93c0-1.07.86-1.93 1.92-1.93h1.44c1.06 0 1.92.87 1.92 1.93s-.86 1.93-1.92 1.93zm-1.44-2.89c-.53 0-.96.43-.96.95s.43.95.96.95h1.44c.53 0 .96-.43.96-.95s-.43-.95-.96-.95h-1.44zm-4.32 2.89h-1.44a1.93 1.93 0 01-1.92-1.93c0-1.07.86-1.93 1.92-1.93h1.44c1.06 0 1.92.87 1.92 1.93s-.86 1.93-1.92 1.93zm-1.44-2.89c-.53 0-.96.43-.96.95s.43.95.96.95h1.44c.53 0 .96-.43.96-.95s-.43-.95-.96-.95h-1.44zm-4.32 2.89H6.12a1.93 1.93 0 01-1.92-1.93c0-1.07.86-1.93 1.92-1.93h1.44c1.06 0 1.92.87 1.92 1.93s-.86 1.93-1.92 1.93zM6.12 18.3c-.53 0-.96.43-.96.95s.43.95.96.95h1.44c.53 0 .96-.43.96-.95s-.43-.95-.96-.95H6.12zm12.96-2.88h-1.44a1.93 1.93 0 01-1.92-1.93c0-1.06.86-1.93 1.92-1.93h1.44c1.06 0 1.92.87 1.92 1.93s-.86 1.93-1.92 1.93zm-1.44-2.88c-.53 0-.96.43-.96.95s.43.95.96.95h1.44c.53 0 .96-.43.96-.95s-.43-.95-.96-.95h-1.44zm-4.32 2.88h-1.44a1.93 1.93 0 01-1.92-1.93c0-1.06.86-1.93 1.92-1.93h1.44c1.06 0 1.92.87 1.92 1.93s-.86 1.93-1.92 1.93zm-1.44-2.88c-.53 0-.96.43-.96.95s.43.95.96.95h1.44c.53 0 .96-.43.96-.95s-.43-.95-.96-.95h-1.44zm-4.32 2.88H6.12a1.93 1.93 0 01-1.92-1.93c0-1.06.86-1.93 1.92-1.93h1.44c1.06 0 1.92.87 1.92 1.93s-.86 1.93-1.92 1.93zm-1.44-2.88c-.53 0-.96.43-.96.95s.43.95.96.95h1.44c.53 0 .96-.43.96-.95s-.43-.95-.96-.95H6.12z" fill="#E98024" fill-rule="nonzero"/></g></svg>