<svg width="70" height="70" viewBox="0 0 70 70" xmlns="http://www.w3.org/2000/svg"><g fill-rule="nonzero" fill="none"><circle fill="#F2F3F8" cx="35" cy="35" r="35"/><path d="M25 53.293V50.5a.5.5 0 00-.5-.5h-2.793L25 53.293zM21 49h3.5a1.5 1.5 0 011.5 1.5V54h21.5a.5.5 0 00.5-.5v-37a.5.5 0 00-.5-.5h-26a.5.5 0 00-.5.5V49zm4.914 6a1.5 1.5 0 01-1.06-.44l-4.415-4.414a1.5 1.5 0 01-.439-1.06V16.5a1.5 1.5 0 011.5-1.5h26a1.5 1.5 0 011.5 1.5v37a1.5 1.5 0 01-1.5 1.5H25.914zM24.5 35h20a.5.5 0 110 1h-20a.5.5 0 110-1zm0-3h20a.5.5 0 110 1h-20a.5.5 0 110-1zm0-3h20a.5.5 0 110 1h-20a.5.5 0 110-1zm0-3h20a.5.5 0 110 1h-20a.5.5 0 110-1zm0-7h8a.5.5 0 110 1h-8a.5.5 0 110-1zm11.642 32.48c.032-.038.07-.087.111-.146.178-.254.28-.438.734-1.309.233-.445.38-.715.538-.971.552-.9 1.047-1.327 1.699-1.001.54.27.788.817.91 1.611.02.133.028.18.042.323l.01-.012c.527-.698.821-.975 1.314-.975.383 0 .602.245.758.62.079.189.127.357.227.759.087.348.128.492.18.616l.002.005H44.5a.5.5 0 110 1h-2c-.383 0-.602-.245-.758-.62-.079-.189-.127-.357-.227-.759a6.957 6.957 0 00-.14-.513c-.09.092-.222.245-.391.47l-.084.11c-.265.355-.384.504-.546.666-.34.34-.838.263-1.018-.188-.06-.152-.084-.306-.114-.64-.049-.535-.047-.521-.076-.71-.073-.472-.194-.755-.343-.853.037.01.036.018.008.042-.116.1-.263.292-.434.571-.142.232-.281.486-.504.912-.483.926-.586 1.113-.8 1.42-.414.59-.864.874-1.373.492a13.05 13.05 0 01-1.595-1.394 23.7 23.7 0 01-1.342.919.5.5 0 01-.526-.85 22.85 22.85 0 001.216-.83c-1.277-1.688-1.244-3.16-.307-4.099C34.48 44.814 37 45.57 37 47.5c0 .55-.32 1.124-.887 1.755-.33.366-.74.747-1.217 1.137.345.35.759.713 1.246 1.088zm-.773-2.894c.416-.462.631-.847.631-1.086 0-.97-1.402-1.39-2.146-.646-.26.259-.423.748-.3 1.36.087.44.31.915.688 1.422.448-.366.831-.72 1.127-1.05z" fill="#2A3052"/></g></svg>