<svg width="50" height="50" viewBox="0 0 50 32" xmlns="http://www.w3.org/2000/svg"><g fill="none" fill-rule="evenodd"><path d="M0-9h50v50H0z"/><path d="M32.53 32H7.2C4.52 32 0 31.56 0 29.91v-2.15h22.04l.05.44c.03.29.09.45.13.52h5.57c.04-.07.09-.23.13-.52l.05-.44H50v2.15c0 1.66-4.48 2-5.85 2.06h-.02l-11.6.03zM.98 28.75v1.15c.19.38 2.43 1.1 6.22 1.1l36.92-.03c3.17-.15 4.77-.79 4.91-1.1v-1.12H28.81c-.21.82-.66.96-.94.96h-5.74c-.28 0-.73-.14-.94-.96H.98z" fill="#E98024" fill-rule="nonzero"/><path d="M28.65 28.76H3.6L3.49 2.02C3.49.9 4.4 0 5.51 0h38.97c1.12 0 2.02.9 2.02 2.01v26.14h-.98V2.01c0-.56-.47-1.01-1.04-1.01H5.51c-.58 0-1.04.45-1.04 1.01l.11 25.75h24.08v1h-.01zM44 26.27H5.99V2.29H44v23.98zm-37.03-1h36.04V3.29H6.97v21.98z" fill="#E98024" fill-rule="nonzero"/><path d="M29.02 23.07h-2.54c-.27 0-.49-.22-.49-.5v-4.94c0-.28.22-.5.49-.5h2.54c.27 0 .49.22.49.5v4.94c0 .28-.22.5-.49.5zm-2.05-1h1.56v-3.94h-1.56v3.94zM32.97 23.07h-2.54c-.27 0-.49-.22-.49-.5v-7.96c0-.28.22-.5.49-.5h2.54c.27 0 .49.22.49.5v7.96c0 .28-.22.5-.49.5zm-2.05-1h1.56v-6.96h-1.56v6.96zM36.83 23.07h-2.54c-.27 0-.49-.22-.49-.5v-6.15c0-.28.22-.5.49-.5h2.54c.27 0 .49.22.49.5v6.15c0 .28-.22.5-.49.5zm-2.05-1h1.56v-5.15h-1.56v5.15zM40.69 23.07h-2.54c-.27 0-.49-.22-.49-.5V12.8c0-.28.22-.5.49-.5h2.54c.27 0 .49.22.49.5v9.77c0 .28-.22.5-.49.5zm-2.05-1h1.56V13.3h-1.56v8.77zM40.65 6.06H26.47c-.27 0-.49-.22-.49-.5s.22-.5.49-.5h14.18c.27 0 .49.22.49.5s-.22.5-.49.5zM40.65 8.21H26.47c-.27 0-.49-.22-.49-.5s.22-.5.49-.5h14.18c.27 0 .49.22.49.5s-.22.5-.49.5zM40.65 10.11h-8.39c-.27 0-.49-.22-.49-.5s.22-.5.49-.5h8.39c.27 0 .49.22.49.5s-.22.5-.49.5zM12.41 13.32c-.94 0-1.81-.31-2.49-.89-.86-.7-1.38-1.66-1.49-2.76-.03-.27.17-.52.44-.55a.5.5 0 01.54.45c.09.84.47 1.55 1.14 2.09.52.44 1.16.67 1.87.67h.51c.74-.1 1.47-.53 1.98-1.19.51-.66.73-1.47.63-2.28-.09-.86-.47-1.56-1.14-2.11-.65-.53-1.43-.76-2.28-.67a.494.494 0 01-.54-.45c-.03-.28.17-.52.44-.55 1.1-.12 2.14.19 2.99.88.87.71 1.39 1.67 1.5 2.77.14 1.07-.16 2.14-.83 3.02A4.03 4.03 0 0113 13.31l-.59.01zM12.48 23.66c-2.22 0-4.02-1.84-4.02-4.1 0-1.73 1.07-3.28 2.67-3.86.25-.09.54.04.63.3.09.26-.04.55-.3.64-1.21.44-2.02 1.61-2.02 2.92 0 1.71 1.36 3.1 3.04 3.1s3.04-1.39 3.04-3.1c0-1.28-.75-2.41-1.91-2.88a.501.501 0 01-.27-.65c.1-.26.39-.38.64-.28 1.54.63 2.53 2.12 2.53 3.81-.01 2.26-1.81 4.1-4.03 4.1z" fill="#E98024" fill-rule="nonzero"/></g></svg>