<svg width="50" height="50" viewBox="0 0 50 50" xmlns="http://www.w3.org/2000/svg"><g fill="none" fill-rule="evenodd"><path d="M0 0h50v50H0z"/><path d="M42 27H1.86C.83 27 0 26.1 0 25s.83-2 1.86-2H42v1H1.86c-.48 0-.87.45-.87 1s.39 1 .87 1H42v1z" fill="#E98024" fill-rule="nonzero"/><path d="M42 27H1.86C.83 27 0 26.1 0 25s.83-2 1.86-2H42v1H1.86c-.48 0-.87.45-.87 1s.39 1 .87 1H42v1zM48.15 6.5H28.56v-1h19.58c.48 0 .87-.45.87-1s-.39-1-.87-1h-19.4v-1h19.4c1.02 0 1.85.9 1.85 2s-.82 2-1.84 2zm-26.7 0H1.85C.83 6.5 0 5.6 0 4.5s.83-2 1.85-2h19.36v1H1.85c-.48 0-.87.45-.87 1s.39 1 .87 1h19.6v1z" fill="#E98024" fill-rule="nonzero"/><path d="M48.15 6.5H28.56v-1h19.58c.48 0 .87-.45.87-1s-.39-1-.87-1h-19.4v-1h19.4c1.02 0 1.85.9 1.85 2s-.82 2-1.84 2zm-26.7 0H1.85C.83 6.5 0 5.6 0 4.5s.83-2 1.85-2h19.36v1H1.85c-.48 0-.87.45-.87 1s.39 1 .87 1h19.6v1z" fill="#E98024" fill-rule="nonzero"/><path d="M24.96 9c-2.48 0-4.5-2.02-4.5-4.5a4.5 4.5 0 019 0c0 2.48-2.02 4.5-4.5 4.5zm0-8c-1.93 0-3.5 1.57-3.5 3.5S23.03 8 24.96 8s3.5-1.57 3.5-3.5S26.89 1 24.96 1z" fill="#E98024" fill-rule="nonzero"/><path d="M24.96 9c-2.48 0-4.5-2.02-4.5-4.5a4.5 4.5 0 019 0c0 2.48-2.02 4.5-4.5 4.5zm0-8c-1.93 0-3.5 1.57-3.5 3.5S23.03 8 24.96 8s3.5-1.57 3.5-3.5S26.89 1 24.96 1zM45.5 29.5c-2.48 0-4.5-2.02-4.5-4.5s2.02-4.5 4.5-4.5S50 22.52 50 25s-2.02 4.5-4.5 4.5zm0-8c-1.93 0-3.5 1.57-3.5 3.5s1.57 3.5 3.5 3.5S49 26.93 49 25s-1.57-3.5-3.5-3.5z" fill="#E98024" fill-rule="nonzero"/><path d="M45.5 29.5c-2.48 0-4.5-2.02-4.5-4.5s2.02-4.5 4.5-4.5S50 22.52 50 25s-2.02 4.5-4.5 4.5zm0-8c-1.93 0-3.5 1.57-3.5 3.5s1.57 3.5 3.5 3.5S49 26.93 49 25s-1.57-3.5-3.5-3.5zM48.15 47.5h-19.3v-1h19.3c.48 0 .87-.45.87-1s-.39-1-.87-1h-19.3v-1h19.3c1.02 0 1.85.9 1.85 2s-.83 2-1.85 2zm-27 0H1.85c-1.02 0-1.85-.9-1.85-2s.83-2 1.85-2h19.3v1H1.85c-.48 0-.87.45-.87 1s.39 1 .87 1h19.3v1z" fill="#E98024" fill-rule="nonzero"/><path d="M48.15 47.5h-19.3v-1h19.3c.48 0 .87-.45.87-1s-.39-1-.87-1h-19.3v-1h19.3c1.02 0 1.85.9 1.85 2s-.83 2-1.85 2zm-27 0H1.85c-1.02 0-1.85-.9-1.85-2s.83-2 1.85-2h19.3v1H1.85c-.48 0-.87.45-.87 1s.39 1 .87 1h19.3v1z" fill="#E98024" fill-rule="nonzero"/><path d="M24.96 50c-2.48 0-4.5-2.02-4.5-4.5s2.02-4.5 4.5-4.5 4.5 2.02 4.5 4.5-2.02 4.5-4.5 4.5zm0-8c-1.93 0-3.5 1.57-3.5 3.5s1.57 3.5 3.5 3.5 3.5-1.57 3.5-3.5-1.57-3.5-3.5-3.5z" fill="#E98024" fill-rule="nonzero"/><path d="M24.96 50c-2.48 0-4.5-2.02-4.5-4.5s2.02-4.5 4.5-4.5 4.5 2.02 4.5 4.5-2.02 4.5-4.5 4.5zm0-8c-1.93 0-3.5 1.57-3.5 3.5s1.57 3.5 3.5 3.5 3.5-1.57 3.5-3.5-1.57-3.5-3.5-3.5z" fill="#E98024" fill-rule="nonzero"/></g></svg>