<svg width="70" height="50" viewBox="0 0 70 50" xmlns="http://www.w3.org/2000/svg"><g fill="none" fill-rule="evenodd"><path d="M0-10h70v70H0z"/><path d="M45.6 45.61H9.94C6.5 45.61 0 45.02 0 42.8v-2.89h30.65l.05.45c.07.66.23.9.28.93l8.06-.01c.02-.03.18-.27.26-.92l.05-.45h4.51v1.03h-3.65c-.24 1.19-.82 1.38-1.16 1.38h-8.08c-.34 0-.92-.19-1.16-1.38H.99v1.86c0 .53 3.05 1.78 8.95 1.78H45.6v1.03zM61.95 45.56l-.05-1.03c4.99-.24 7.11-1.34 7.11-1.73v-1.86H57.98v-1.03H70v2.89c0 2.26-6.7 2.7-8.05 2.76zM47.89 44.58h5.41v1.03h-5.41z" fill="#E98024" fill-rule="nonzero"/><path d="M44.13 40.94H4.91V2.7C4.91 1.21 6.1 0 7.56 0h54.87c1.46 0 2.65 1.21 2.65 2.7v37.72h-.98V2.7c0-.92-.75-1.67-1.67-1.67H7.56c-.92 0-1.67.75-1.67 1.67v37.2h38.24v1.04zm18.79-2.7H55.5v-1.03h6.43V3.45H8.05v33.76h34.89v1.03H7.07V2.42h55.86v35.82h-.01z" fill="#E98024" fill-rule="nonzero"/><path d="M57.66 50h-.03a1.09 1.09 0 01-.8-.38l-7.52-8.28-1.24 5.42c-.09.38-.35.7-.69.84-.28.12-.59.11-.87-.01-.28-.13-.5-.37-.62-.67l-2.95-8.17-5.04-14.03c-.03-.09-.05-.19-.07-.29-.07-.66.38-1.26 1.01-1.34.2-.03.4.01.58.09l20.54 9.32c.35.15.62.48.69.89.12.65-.29 1.29-.91 1.41l-5.17 1.12 1.61 1.78 5.93 6.53c.43.49.41 1.25-.04 1.7l-3.62 3.72c-.22.23-.5.35-.79.35zm-8.62-10.22c.13 0 .26.06.36.16l8.15 8.98c.04.05.08.06.12.06.03 0 .07-.01.11-.05l3.62-3.72c.07-.07.07-.19.01-.26l-5.93-6.52-2.21-2.45a.527.527 0 01-.11-.51c.05-.18.2-.31.37-.35l6.04-1.31c.1-.02.15-.11.14-.21a.17.17 0 00-.1-.13l-20.56-9.33c-.18-.02-.23.09-.22.19l5.05 14.07 2.95 8.17c.02.06.06.08.09.09.03.01.07.02.12 0 .05-.02.09-.07.1-.12l1.45-6.35c.04-.18.18-.33.35-.38.01-.02.05-.03.1-.03zm-14.09-5.2c-.01 0-.01 0 0 0a.504.504 0 01-.49-.52l.15-7.81c.01-.28.23-.49.5-.5.27.01.49.24.48.52l-.15 7.81c-.01.27-.23.5-.49.5zm0-19.07c-.01 0-.01 0 0 0a.504.504 0 01-.49-.52l.15-7.81c.01-.28.23-.49.5-.5.27.01.49.24.48.52l-.15 7.8c-.01.28-.23.51-.49.51zM24.73 30.05a.47.47 0 01-.35-.15c-.19-.2-.19-.53.01-.73l5.32-5.42c.19-.2.51-.19.7.01.19.2.19.53-.01.73l-5.32 5.42c-.1.09-.23.14-.35.14zm22.99-9.49h-.12c-4.48-.08-7.27-.13-7.44-.13-.27.05-.49-.13-.54-.41-.05-.28.16-.55.43-.61.07-.02.1-.02 7.57.12h.11c.27.01.49.24.49.52a.51.51 0 01-.5.51zm-18.76-.37h-.01c-.01 0-7.45-.13-7.62-.13-.26 0-.48-.22-.49-.49-.01-.27.18-.51.44-.54.04 0 .05-.01 7.68.12.27.01.49.24.49.52 0 .29-.22.52-.49.52zm9.93-2.67c-.13 0-.25-.05-.35-.15-.19-.2-.19-.53.01-.73l5.3-5.44c.19-.2.51-.2.7.01.19.2.19.53-.01.73l-5.3 5.44c-.1.09-.22.14-.35.14zm-7.55-1.05c-.14 0-.27-.06-.37-.17-.16-.18-5.19-5.71-5.19-5.71a.529.529 0 01.02-.73c.2-.19.51-.18.7.02 5.18 5.7 5.2 5.73 5.22 5.75.17.22.14.54-.07.72-.09.08-.2.12-.31.12z" fill="#E98024" fill-rule="nonzero"/></g></svg>