<svg width="70" height="70" viewBox="0 0 70 70" xmlns="http://www.w3.org/2000/svg"><g fill="none" fill-rule="evenodd"><path d="M1 0h70v70H1z"/><path d="M30.503 70c-.32 0-.62-.06-.91-.17-13.06-4.91-22.31-16.06-26.76-32.26-3.28-11.95-2.82-22.45-2.8-22.89a2.529 2.529 0 012.54-2.39h.12c14.45.6 26.35-11.4 26.46-11.51.5-.5 1.16-.78 1.84-.78.79.02 1.48.33 1.95.86 8.79 9.84 26.68 12.44 26.86 12.46 1.28.18 2.22 1.27 2.2 2.53-.08 3.92-.38 7.75-.89 11.39l-.97-.14c.51-3.6.8-7.39.88-11.27.01-.77-.57-1.43-1.35-1.54-.18-.03-18.4-2.64-27.46-12.79-.29-.31-.72-.5-1.16-.51-.46 0-.88.18-1.17.48-.13.12-12.34 12.45-27.22 11.81-.91 0-1.6.64-1.64 1.45-.02.43-.48 10.77 2.76 22.58 4.36 15.88 13.4 26.81 26.15 31.6.31.12.66.13.97.05.23-.06 5.7-1.52 11.94-6.83l.64.75c-6.41 5.46-12.09 6.98-12.33 7.04-.21.05-.42.08-.65.08z" fill="#E98024"/><path d="M50.003 64c-11.03 0-20-8.97-20-20 0-5.34 2.08-10.36 5.86-14.14 3.78-3.78 8.8-5.86 14.14-5.86s10.36 2.08 14.14 5.86c3.78 3.78 5.86 8.8 5.86 14.14 0 11.03-8.97 20-20 20zm-19.02-19.51c.26 10.1 8.43 18.27 18.53 18.53v-2.29a.49.49 0 01.98 0v2.29c10.1-.26 18.27-8.43 18.53-18.53h-2.29a.49.49 0 010-.98h2.29c-.12-4.9-2.09-9.49-5.57-12.97a18.912 18.912 0 00-12.96-5.57v2.35a.49.49 0 01-.98 0v-2.35c-4.9.12-9.49 2.09-12.97 5.57a18.936 18.936 0 00-5.57 12.97h2.35a.49.49 0 010 .98h-2.34zm19.74-.18c-.38 0-.75-.14-1.03-.39l-5.44-4.75a.5.5 0 01-.05-.69.5.5 0 01.69-.05l5.44 4.75c.22.19.58.19.79-.01l11.23-10.26a.49.49 0 01.66.72L51.783 43.9c-.29.27-.66.41-1.06.41z" fill="#E98024" fill-rule="nonzero"/></g></svg>