<svg width="34" height="26" viewBox="0 0 34 26" xmlns="http://www.w3.org/2000/svg" xmlns:xlink="http://www.w3.org/1999/xlink"><defs><filter x="-33.3%" y="-44.5%" width="166.7%" height="201.8%" filterUnits="objectBoundingBox" id="a"><feOffset dy="1" in="SourceAlpha" result="shadowOffsetOuter1"/><feGaussianBlur stdDeviation="2.5" in="shadowOffsetOuter1" result="shadowBlurOuter1"/><feColorMatrix values="0 0 0 0 0.164705882 0 0 0 0 0.188235294 0 0 0 0 0.321568627 0 0 0 0.14 0" in="shadowBlurOuter1"/></filter><path d="M22.203 3.75H1.797C.805 3.75 0 4.555 0 5.547v12.13c0 .992.805 1.797 1.797 1.797h20.406c.992 0 1.797-.804 1.797-1.797V5.547c0-.992-.805-1.797-1.797-1.797z" id="b"/></defs><g fill-rule="nonzero" fill="none"><g transform="translate(5)"><use fill="#000" filter="url(#a)" xlink:href="#b"/><use fill="#FFF" xlink:href="#b"/></g><path d="M5 17.69c0 .992.805 1.797 1.797 1.797h20.406c.992 0 1.797-.805 1.797-1.797v-6.065H5v6.065z" fill="#FFF"/><path d="M27.203 3.763H6.797C5.805 3.763 5 4.568 5 5.56v6.065h24V5.56c0-.992-.805-1.797-1.797-1.797z" fill="#F44336"/></g></svg>