<svg width="70" height="70" viewBox="0 0 70 70" xmlns="http://www.w3.org/2000/svg"><g fill="none" fill-rule="evenodd"><path d="M0 0h70v70H0z"/><path d="M17.5 35C7.85 35 0 27.15 0 17.5S7.85 0 17.5 0 35 7.85 35 17.5 27.15 35 17.5 35zm0-34C8.4 1 1 8.4 1 17.5S8.4 34 17.5 34 34 26.6 34 17.5 26.6 1 17.5 1z" fill="#E98024" fill-rule="nonzero"/><path d="M8.15 14.25l.07.08c1.89 2.18 7.24 8.32 7.24 8.32.09.11.23.17.37.17.14 0 .28-.06.37-.16l2.73-2.96 2.6 3.11c.1.11.24.18.38.18h4.22c.28 0 .5-.22.5-.5s-.22-.5-.5-.5h-3.99l-2.81-3.37a.49.49 0 00-.37-.18c-.14 0-.28.05-.38.16l-3.12 3.38.37.34.38-.33s-1.34-1.53-2.91-3.34c-1.57-1.81-3.38-3.88-4.32-4.97l-.07-.08a.505.505 0 00-.71-.05c-.2.18-.23.49-.05.7z" fill="#E98024" fill-rule="nonzero"/><path d="M8.88 23.77l4.06-4.84 2.98-3.46h5.61c.15 0 .29-.07.38-.18l4.6-5.45c.18-.21.15-.53-.06-.7a.493.493 0 00-.7.06l-4.45 5.27h-5.6c-.14 0-.28.06-.38.17l-3.13 3.63-4.06 4.84c-.18.21-.15.53.06.7.2.2.52.17.69-.04z" fill="#E98024" fill-rule="nonzero"/><path d="M26.64 13.7V9.5a.47.47 0 00-.15-.35.47.47 0 00-.35-.15h-3.56c-.28 0-.5.22-.5.5s.22.5.5.5h3.06v3.7c0 .28.22.5.5.5s.5-.23.5-.5zM24.43 25.82l2.46-3.03c.15-.19.15-.46-.01-.65l-2.57-2.9a.495.495 0 00-.71-.04c-.21.18-.23.5-.04.71l2.29 2.58-2.19 2.7c-.17.21-.14.53.07.7.21.17.52.14.7-.07zM52.5 35C42.85 35 35 27.15 35 17.5S42.85 0 52.5 0 70 7.85 70 17.5 62.15 35 52.5 35zm0-34C43.4 1 36 8.4 36 17.5S43.4 34 52.5 34 69 26.6 69 17.5 61.6 1 52.5 1z" fill="#E98024" fill-rule="nonzero"/><path d="M52.82 25.5v.5h4.63c.3-.01.6-.11.84-.29l.01-.01.12-.1.01-.01.01-.01c.36-.31.56-.77.56-1.24 0-.18-.03-.37-.09-.55-.11-.32-.32-.59-.59-.8l-.11-.08-.1-4.26-.5.01.42.27c.15-.24.29-.47.42-.71a1.849 1.849 0 00-.06-1.92l-.1-.16v-4.29l.25-.57c.08-.2.13-.42.13-.63A1.68 1.68 0 0056.99 9H48c-.56 0-1.09.28-1.4.74-.18.27-.28.58-.28.9 0 .21.04.43.13.63l.25.58v4.29l-.1.16a1.849 1.849 0 00-.06 1.92c.13.23.27.47.42.71l.42-.27-.5-.01-.1 4.26-.11.08c-.27.21-.48.48-.59.8-.05.18-.08.37-.08.55 0 .47.2.92.56 1.25l.01.01.12.1.01.01.01.01c.24.18.53.29.84.29h5.28V25H47.56v.5l.01-.5c-.09 0-.18-.03-.25-.09l-.31.4.32-.39-.12-.1-.32.39.33-.37a.682.682 0 01-.22-.5l.04-.23c.04-.11.12-.23.25-.33l.29-.23.19-.15.11-4.88-.08-.13c-.14-.22-.27-.45-.4-.66a.907.907 0 01-.11-.42c0-.16.05-.32.14-.47l.18-.28.08-.12v-4.79l-.33-.76-.46.2.46-.19-.05-.25c0-.12.03-.23.11-.34.13-.19.34-.3.58-.3h8.99c.23 0 .45.11.58.3.07.11.11.22.11.34l-.05.24-.29.67-.04.09v4.79l.26.41a.863.863 0 01.03.89c-.12.22-.25.44-.4.66l-.08.13.11 4.88.48.37c.13.1.22.22.25.33l.05.23c0 .19-.08.37-.22.5l.33.37-.32-.39-.12.1.32.39-.31-.4-.24.09.01.5V25h-4.62v.5h-.01z" fill="#E98024" fill-rule="nonzero"/><path d="M52.49 15.36c.66.8 1.33 1.54 1.58 2.51.19.71-.46 1.56-1.25 1.73-.84.18-1.74-.38-1.89-1.19-.04-.22-.06-.48.01-.68.3-.89.9-1.6 1.55-2.37zM17.5 70C7.85 70 0 62.15 0 52.5S7.85 35 17.5 35 35 42.85 35 52.5 27.15 70 17.5 70zm0-34C8.4 36 1 43.4 1 52.5S8.4 69 17.5 69 34 61.6 34 52.5 26.6 36 17.5 36z" fill="#E98024" fill-rule="nonzero"/><path d="M19.9 55.24c0-.54-.17-.97-.52-1.31-.35-.34-.96-.67-1.85-.98-1.01-.32-1.75-.71-2.24-1.16-.49-.45-.73-1.08-.73-1.9 0-.78.24-1.42.73-1.92.48-.49 1.14-.77 1.98-.84v-1.47h.74v1.47c.85.08 1.5.4 1.97.95.47.55.69 1.31.68 2.26l-.02.04h-.81c0-.74-.19-1.33-.58-1.79-.39-.46-.93-.69-1.63-.69-.72 0-1.26.19-1.63.56-.37.38-.56.85-.56 1.42 0 .55.16 1 .49 1.33.33.34.96.66 1.9.97 1 .33 1.74.72 2.23 1.17.48.44.72 1.07.72 1.88 0 .8-.25 1.45-.76 1.93-.5.48-1.18.76-2.03.82v1.38h-.73v-1.37c-.88-.05-1.6-.33-2.18-.84-.58-.51-.86-1.27-.84-2.29l.02-.04h.81c0 .86.24 1.48.73 1.86.49.38 1.08.57 1.77.57.72 0 1.28-.19 1.7-.57.43-.39.64-.87.64-1.44z" fill="#E98024" fill-rule="nonzero"/><path d="M19.9 55.24h.12c0-.56-.19-1.04-.56-1.4-.37-.36-1-.69-1.89-1.01-1-.32-1.73-.7-2.19-1.13-.45-.42-.68-1.02-.69-1.81 0-.76.23-1.36.69-1.83.46-.47 1.09-.74 1.9-.81l.11-.01v-1.46h.49v1.46H18c.82.08 1.44.38 1.88.91.43.52.65 1.22.65 2.12v.06h.12l-.11-.06-.02.04.11.06v-.12h-.81v.12h.12c0-.76-.2-1.39-.61-1.88s-1-.74-1.72-.73c-.74 0-1.32.19-1.72.6-.39.4-.59.91-.59 1.51 0 .58.17 1.06.53 1.42.36.36 1 .69 1.95 1 .99.33 1.72.72 2.18 1.14.45.42.68 1 .68 1.79 0 .78-.24 1.38-.72 1.84-.48.46-1.13.72-1.96.79l-.12.01v1.37h-.48v-1.37l-.12-.01c-.85-.05-1.55-.32-2.11-.81-.53-.46-.8-1.15-.8-2.1v-.09h-.12l.11.06.02-.04-.11-.06v.12h.81v-.13h-.12c0 .88.25 1.55.78 1.96.51.4 1.13.6 1.85.6.74 0 1.34-.2 1.79-.6.44-.4.67-.92.67-1.52H19.78c0 .55-.19.98-.59 1.34-.39.35-.92.53-1.62.53-.67 0-1.23-.18-1.7-.54-.45-.35-.68-.92-.69-1.76v-.12h-1.02l-.06.11-.01.03v.13c0 1 .29 1.77.88 2.29.6.53 1.36.81 2.26.87l.01-.12h-.12v1.5h.98v-1.51h-.12l.01.12c.87-.07 1.58-.35 2.11-.86.53-.51.8-1.19.79-2.02 0-.83-.25-1.5-.76-1.97-.5-.46-1.26-.85-2.27-1.19-.93-.31-1.54-.63-1.85-.94-.3-.31-.46-.72-.46-1.25 0-.54.17-.98.52-1.33.34-.34.85-.52 1.54-.53.67 0 1.17.22 1.53.64.37.43.55 1 .55 1.71v.12h1.01l.06-.1.02-.03v-.09c0-.94-.23-1.71-.71-2.28-.49-.58-1.18-.92-2.05-1l-.01.12h.12v-1.59h-.99v1.59h.12V47c-.85.07-1.55.36-2.06.88s-.76 1.2-.76 2.01c0 .84.25 1.52.77 1.99.51.47 1.27.86 2.28 1.18l.04-.12-.04.12c.87.31 1.48.64 1.8.96.32.32.48.71.49 1.22h.12zM52.5 70C42.85 70 35 62.15 35 52.5S42.85 35 52.5 35 70 42.85 70 52.5 62.15 70 52.5 70zm0-34C43.4 36 36 43.4 36 52.5S43.4 69 52.5 69 69 61.6 69 52.5 61.6 36 52.5 36z" fill="#E98024" fill-rule="nonzero"/><path d="M45.43 50.5v.5h4.14v-.04h-.07l.07.04v-.04h-.07V58h-4v-7.04h-.07V51l.07-.04h-.07V51v-1c-.54 0-.93.45-.93.96v7.54c0 .13.05.26.15.35.09.1.22.15.35.15h5c.13 0 .26-.05.35-.15a.51.51 0 00.15-.35v-7.54c0-.5-.39-.95-.93-.96h-4.14v.5z" fill="#E98024" fill-rule="nonzero"/><path d="M50.43 53.17v.5h4.14v-.04h-.07l.07.04v-.04h-.07V58h-4v-4.38h-.07v.04l.07-.04h-.07v.04-.99c-.54.01-.93.45-.93.96v4.88c0 .13.05.26.15.35A.5.5 0 0050 59h5c.13 0 .26-.05.35-.15a.51.51 0 00.15-.35v-4.88c0-.5-.39-.95-.93-.96h-4.14v.51z" fill="#E98024" fill-rule="nonzero"/><path d="M55.43 46.5v.5h4.14v-.04h-.07l.07.04v-.04h-.07V58h-4V46.96h-.07V47l.07-.04h-.07V47v-1c-.54 0-.93.45-.93.96V58.5c0 .13.05.26.15.35.09.1.22.15.35.15h5c.13 0 .26-.05.35-.15a.51.51 0 00.15-.35V46.96c0-.5-.39-.95-.93-.96h-4.14v.5z" fill="#E98024" fill-rule="nonzero"/></g></svg>