<svg width="70" height="70" viewBox="0 0 70 70" xmlns="http://www.w3.org/2000/svg"><g fill="none" fill-rule="evenodd"><path d="M0 0h70v70H0z"/><path d="M.5 44.53c-.24 0-.46-.18-.49-.43a.49.49 0 01.42-.56c.41-.06 41.07-6.3 67.37-41.93.16-.22.48-.27.69-.1.22.16.27.48.1.7C42.04 38.17 2.24 44.29.57 44.52c-.03.01-.05.01-.07.01z" fill="#E98024"/><path d="M47.59 70H37.54c-.85 0-1.54-.66-1.54-1.47V35.66c0-.51.28-.98.74-1.26 3.59-2.07 6.93-4.22 9.92-6.38.5-.35 1.14-.39 1.67-.11.5.26.8.74.8 1.29v39.33c0 .81-.69 1.47-1.54 1.47zm-.02-41.28c-.11 0-.23.03-.34.11-3.01 2.18-6.37 4.34-9.99 6.43-.15.09-.24.24-.24.4v32.87c0 .26.25.48.54.48h10.05c.29 0 .54-.22.54-.48V29.2c0-.24-.18-.36-.26-.41a.735.735 0 00-.3-.07zM64.21 70H54.16c-.85 0-1.54-.66-1.54-1.47V24.1c0-.43.2-.84.53-1.11 3.37-2.82 6.7-5.99 9.9-9.43.44-.47 1.12-.62 1.74-.38.59.23.96.75.96 1.36v53.99c0 .81-.69 1.47-1.54 1.47zm-.01-55.93c-.14 0-.29.05-.41.18-3.23 3.47-6.59 6.67-10 9.52-.11.09-.17.21-.17.34v44.42c0 .26.25.48.54.48h10.05c.29 0 .54-.22.54-.48V14.54c0-.28-.25-.4-.32-.43a.587.587 0 00-.23-.04zM30.96 70H20.91c-.85 0-1.54-.66-1.54-1.47V43.51c0-.61.4-1.16.98-1.37 3.39-1.31 6.73-2.76 9.9-4.32.51-.24 1.09-.21 1.55.09.43.28.69.73.69 1.23v29.38c.01.82-.68 1.48-1.53 1.48zm0-31.34a.66.66 0 00-.27.06c-3.19 1.57-6.55 3.03-9.99 4.36-.21.07-.33.24-.33.43v25.02c0 .26.25.48.54.48h10.05c.29 0 .54-.22.54-.48V39.14c0-.22-.16-.34-.23-.39a.561.561 0 00-.31-.09zM14.34 70H4.29c-.85 0-1.54-.66-1.54-1.47V48.42c0-.7.51-1.3 1.22-1.44 3.22-.66 6.54-1.53 9.88-2.58.47-.16 1.01-.07 1.41.22.39.28.61.71.61 1.18v22.73c.01.81-.68 1.47-1.53 1.47zm0-24.68c-.06 0-.12.01-.18.03a99.849 99.849 0 01-10 2.61c-.24.05-.42.24-.42.46v20.11c.01.25.26.47.55.47h10.05c.29 0 .54-.22.54-.48V45.8c0-.2-.12-.31-.2-.37a.599.599 0 00-.34-.11z" fill="#E98024" fill-rule="nonzero"/><path d="M69 9.5c-.28 0-.5-.22-.5-.5V1.5H61c-.28 0-.5-.22-.5-.5s.22-.5.5-.5h8c.28 0 .5.22.5.5v8c0 .28-.22.5-.5.5z" fill="#E98024"/><path d="M12 24C5.38 24 0 18.62 0 12S5.38 0 12 0s12 5.38 12 12-5.38 12-12 12zM12 .99C5.94.99 1.01 5.93 1.01 12c0 6.07 4.93 11.01 10.99 11.01 6.06 0 10.99-4.94 10.99-11.01C22.99 5.93 18.06.99 12 .99z" fill="#E98024" fill-rule="nonzero"/><path d="M14.95 15.24c0-.62-.21-1.13-.64-1.52-.43-.4-1.19-.78-2.27-1.14-1.24-.37-2.16-.82-2.75-1.34-.6-.52-.89-1.26-.89-2.21 0-.91.3-1.65.89-2.23.6-.57 1.41-.9 2.43-.98v-1.7h.91v1.7c1.04.09 1.85.46 2.42 1.1.57.65.85 1.52.84 2.62l-.03.04h-1c0-.85-.24-1.55-.72-2.08s-1.14-.8-2-.8c-.88 0-1.55.22-2.01.65-.44.45-.67 1-.67 1.66 0 .64.2 1.16.61 1.55.41.39 1.18.77 2.33 1.13 1.23.39 2.15.84 2.74 1.35.59.51.89 1.24.89 2.18 0 .93-.31 1.68-.93 2.24-.62.56-1.45.88-2.5.96v1.6h-.9v-1.59c-1.08-.06-1.97-.39-2.69-.97-.71-.59-1.06-1.47-1.03-2.66l.02-.06h1c0 1 .3 1.72.9 2.16.6.44 1.33.66 2.18.66.88 0 1.58-.22 2.1-.66.52-.43.77-.99.77-1.66z" fill="#E98024"/></g></svg>