<svg width="70" height="70" viewBox="0 0 70 70" xmlns="http://www.w3.org/2000/svg"><g fill="none" fill-rule="evenodd"><path d="M0 0h70v70H0z"/><path fill="#E98024" fill-rule="nonzero" d="M35.02 47.99L.12 29.52l34.07-16.46 11.48 5.73-.44.87-11.05-5.51L2.29 29.56l32.73 17.32L66.85 29.6l-20.17-9.35.41-.89 21.94 10.17zM35.4 70l.23-20.45L70 30.86v15.99l-.22.15L35.4 70zm1.21-19.87l-.2 18.02 32.61-21.82V32.51L36.61 50.13zM34.15 69.99L0 46.84v-15.7l34.38 18.41-.23 20.44zM.99 46.33l32.2 21.82.21-18.03L.99 32.78v13.55z"/><path d="M43.01 39.4c-1.03-3.84-2.4-6.08-4.32-7.03-1.89-.95-4.47-.72-8.12.71l-.36-.91c3.93-1.54 6.76-1.76 8.92-.68 2.18 1.09 3.72 3.52 4.83 7.65l-.95.26z" fill="#E98024" fill-rule="nonzero"/><path d="M42.25 35.36l-.36-.91c2.11-.82 3.21-2.39 3.22-2.4l3.64-6.25-4.51-2.6 10.7-19.6L57.8 5l.31-.58-6.4-3.12-.31.57 2.86 1.4-10.7 19.6-4.86-1.98-3.31 6.49s-.7 1.76-.19 3.82l-.96.23c-.59-2.39.21-4.38.25-4.46l3.73-7.33 4.89 1.98L52.9 3.69l-2.86-1.4L51.3 0l8.17 3.99-1.25 2.3-2.86-1.4-9.79 17.94 4.53 2.62-4.15 7.12c-.08.1-1.31 1.86-3.7 2.79z" fill="#E98024" fill-rule="nonzero"/></g></svg>