<svg width="50" height="50" viewBox="0 0 50 50" xmlns="http://www.w3.org/2000/svg"><g fill="none" fill-rule="evenodd"><path d="M0 0h50v50H0z"/><path d="M25 50C11.22 50 0 38.78 0 25S11.22 0 25 0s25 11.22 25 25-11.22 25-25 25zM25 .98C11.76.98.98 11.76.98 25S11.75 49.02 25 49.02 49.02 38.24 49.02 25 38.24.98 25 .98z" fill="#E98024" fill-rule="nonzero"/><path d="M25 40.5c-1.79 0-3.22-1.45-3.22-3.27 0-.29.07-.58.14-.8h6.15c.07.29.14.51.14.8.01 1.82-1.42 3.27-3.21 3.27zm12-6.33H13v-2.09h0c0-.28.13-.49.33-.7 0 0 2.58-2.92 2.58-10.58 0-5.99 3.83-8.5 6.94-9.26V9.8c0-1.25.99-2.3 2.18-2.3 1.19 0 2.18 1.04 2.18 2.3v1.74c3.11.77 6.94 3.27 6.94 9.26 0 7.66 2.58 10.58 2.58 10.58.2.21.26.42.26.7h0v2.09H37z" stroke="#E98024"/></g></svg>