<svg width="50" height="50" viewBox="0 0 50 50" xmlns="http://www.w3.org/2000/svg"><g fill="none" fill-rule="evenodd"><path d="M0 0h50v50H0z"/><path d="M17.03 32h-2.06a.48.48 0 01-.48-.48c0-.26.22-.48.48-.48h2.06c.27 0 .48.22.48.48s-.22.48-.48.48zM10.79 32h-2.1a.48.48 0 01-.48-.48c0-.26.22-.48.48-.48h2.09a.48.48 0 01.01.96zm-6.55-.2c-.04 0-.09-.01-.13-.02-.92-.26-1.76-.76-2.44-1.43a.489.489 0 01.69-.69c.56.56 1.26.97 2.02 1.18.26.07.41.34.33.6a.48.48 0 01-.47.36zM.48 25.91a.48.48 0 01-.48-.48v-2.09c0-.27.22-.48.48-.48s.48.22.48.48v2.09c.01.27-.21.48-.48.48zm0-6.27c-.26 0-.48-.22-.48-.49v-2.09c0-.27.22-.48.48-.48s.48.22.48.48v2.09c.01.27-.21.49-.48.49zm31.12-3a.48.48 0 01-.48-.48v-2.09c0-.27.22-.48.48-.48s.48.22.48.48v2.09c.01.26-.21.48-.48.48zM.48 13.37c-.26 0-.48-.22-.48-.49v-2.09c0-.27.22-.48.48-.48s.48.22.48.48v2.09c.01.27-.21.49-.48.49zm31.04-2.14a.48.48 0 01-.48-.48V8.66a.48.48 0 01.96 0v2.09c0 .27-.22.48-.48.48zM.48 7.09c-.26 0-.48-.22-.48-.48v-.95c0-.52.07-1.04.21-1.54a.488.488 0 01.94.26c-.12.42-.18.85-.18 1.28v.95c0 .26-.22.48-.49.48zm30.83-2.41a.48.48 0 01-.46-.35c-.22-.76-.64-1.45-1.2-2.01a.489.489 0 01.69-.69c.68.68 1.18 1.51 1.45 2.43.08.26-.07.53-.33.6-.06.02-.11.02-.15.02zM4.2 1.18c-.21 0-.4-.14-.47-.35-.07-.26.08-.53.34-.6C4.59.08 5.12 0 5.66 0h.91c.27 0 .48.22.48.48s-.21.49-.48.49h-.91c-.45 0-.89.06-1.32.19-.05.01-.09.02-.14.02zM25.39.97H23.3a.48.48 0 01-.48-.48c0-.26.21-.49.48-.49h2.09c.27 0 .48.22.48.48s-.21.49-.48.49zm-6.27 0h-2.09a.48.48 0 01-.48-.48c0-.26.21-.49.48-.49h2.09c.27 0 .48.22.48.48s-.21.49-.48.49zm-6.28 0h-2.09a.48.48 0 01-.48-.48c0-.26.21-.49.48-.49h2.09c.27 0 .48.22.48.48s-.21.49-.48.49zM44.34 50H23.66C20.54 50 18 47.46 18 44.34V32.27a.48.48 0 01.96 0v12.07c0 2.58 2.1 4.69 4.69 4.69h20.69c2.58 0 4.69-2.1 4.69-4.69V23.66c0-2.58-2.1-4.69-4.69-4.69H31.07a.48.48 0 01-.48-.48c0-.26.21-.49.48-.49h13.27c3.12 0 5.66 2.54 5.66 5.66v20.69c0 3.11-2.54 5.65-5.66 5.65z" fill="#E98024" fill-rule="nonzero"/><path d="M28.1 35.5h-5.73c-2.5 0-4.54-2.15-4.54-4.8l.06-2.47-2.13-2.26c-.36-.38-.56-.89-.56-1.43 0-.54.2-1.05.56-1.43.36-.38.86-.59 1.39-.59.53 0 1.03.22 1.39.59l1.44 1.53.47.33-.35-.33a.15.15 0 00.04-.11c0-.03-.01-.07-.04-.11l-2.6-2.76c-.74-.79-.74-2.08 0-2.87.37-.39.86-.61 1.39-.61.53 0 1.02.22 1.39.61l2.6 2.77.47.33-.35-.33a.15.15 0 00.04-.11c0-.03 0-.07-.04-.11l-1.73-1.84a2.09 2.09 0 01-.56-1.43c0-.54.2-1.05.56-1.43.74-.79 2.04-.78 2.78 0l1.73 1.84.47.33-.35-.33a.15.15 0 00.04-.11c0-.03-.01-.07-.04-.11l-.28-.3c-.74-.79-.74-2.08 0-2.87.36-.38.86-.59 1.39-.59.53 0 1.03.22 1.39.59l5.78 6.14c1.3 1.38 2.01 3.21 2.01 5.16 0 1.95-.71 3.78-2.01 5.16l-2.05 2.18c-1.07 1.14-2.5 1.77-4.03 1.77zm-9.28-6.27l-.04 1.49c0 2.11 1.61 3.83 3.59 3.83h5.73c1.26 0 2.45-.52 3.35-1.48l2.05-2.18c1.13-1.2 1.75-2.8 1.75-4.5 0-1.7-.62-3.3-1.75-4.5l-5.78-6.14a.967.967 0 00-1.38 0c-.4.42-.4 1.13 0 1.56l.28.3c.19.21.3.48.3.76 0 .29-.11.56-.3.76-.4.43-1.11.43-1.52 0l-1.73-1.84c-.37-.39-1.02-.4-1.39 0-.19.21-.3.48-.3.78 0 .3.11.57.3.78l1.73 1.84c.19.2.3.48.3.76 0 .29-.11.56-.3.76-.2.21-.47.33-.76.33-.29 0-.56-.12-.76-.33l-2.6-2.76a.943.943 0 00-.69-.31c-.26 0-.51.11-.69.31-.4.42-.4 1.14 0 1.56l2.6 2.76c.19.21.3.48.3.76 0 .29-.11.56-.3.76-.4.43-1.11.43-1.52 0l-1.44-1.53a.967.967 0 00-1.38 0c-.19.21-.3.48-.3.78 0 .3.11.57.3.78l4.34 4.62a.474.474 0 01-.69.65l-1.3-1.36z" fill="#E98024" fill-rule="nonzero"/></g></svg>