<svg width="50" height="40" viewBox="0 0 50 40" xmlns="http://www.w3.org/2000/svg"><g fill="none" fill-rule="evenodd"><path d="M0-5h50v50H0z"/><path d="M48.8 32.98H1.19c-.67 0-1.19-.46-1.19-1.05V1.05C0 .46.52 0 1.19 0h47.6C49.47 0 50 .46 50 1.05v30.88c0 .59-.53 1.05-1.2 1.05zM1.19.98c-.14 0-.21.06-.21.08v30.87c.01.01.08.08.21.08h47.6c.13 0 .21-.06.22-.08V1.06c-.01-.02-.09-.08-.22-.08H1.19z" fill="#E98024" fill-rule="nonzero"/><path d="M48.8 32.98H1.19c-.67 0-1.19-.46-1.19-1.05V1.05C0 .46.52 0 1.19 0h47.6C49.47 0 50 .46 50 1.05v30.88c0 .59-.53 1.05-1.2 1.05zM1.19.98c-.14 0-.21.06-.21.08v30.87c.01.01.08.08.21.08h47.6c.13 0 .21-.06.22-.08V1.06c-.01-.02-.09-.08-.22-.08H1.19zM49.51 38.15H23.04a.49.49 0 010-.98h26.47a.49.49 0 010 .98z" fill="#E98024" fill-rule="nonzero"/><path d="M49.51 38.15H23.04a.49.49 0 010-.98h26.47a.49.49 0 010 .98zM16.18 38.02H.49a.49.49 0 010-.98h15.69a.49.49 0 010 .98z" fill="#E98024" fill-rule="nonzero"/><path d="M16.18 38.02H.49a.49.49 0 010-.98h15.69a.49.49 0 010 .98zM19.61 40c-1.35 0-2.45-1.1-2.45-2.46 0-1.36 1.1-2.46 2.45-2.46s2.45 1.1 2.45 2.46c0 1.36-1.1 2.46-2.45 2.46zm0-3.94a1.481 1.481 0 000 2.96 1.481 1.481 0 000-2.96z" fill="#E98024" fill-rule="nonzero"/><path d="M19.61 40c-1.35 0-2.45-1.1-2.45-2.46 0-1.36 1.1-2.46 2.45-2.46s2.45 1.1 2.45 2.46c0 1.36-1.1 2.46-2.45 2.46zm0-3.94a1.481 1.481 0 000 2.96 1.481 1.481 0 000-2.96zM20.26 22.93a.932.932 0 01-.94-.94V11c0-.33.18-.65.47-.81a.93.93 0 01.94 0l9.48 5.5a.933.933 0 010 1.62l-9.48 5.5c-.13.08-.29.12-.47.12zm.04-11.87v10.93l9.42-5.53-9.42-5.4z" fill="#E98024" fill-rule="nonzero"/><path d="M20.26 22.93a.932.932 0 01-.94-.94V11c0-.33.18-.65.47-.81a.93.93 0 01.94 0l9.48 5.5a.933.933 0 010 1.62l-9.48 5.5c-.13.08-.29.12-.47.12zm.04-11.87v10.93l9.42-5.53-9.42-5.4z" fill="#E98024" fill-rule="nonzero"/></g></svg>