<svg width="70" height="70" viewBox="0 0 70 70" xmlns="http://www.w3.org/2000/svg"><g fill-rule="nonzero" fill="none"><circle fill="#F2F3F8" cx="35" cy="35" r="35"/><path d="M26.5 39.44a4 4 0 017.97-.44h3.33L26.494 27.212 19.207 34.5l5.647 5.646a.502.502 0 01.067.084l1.58-.79zm1.041-.44h5.918a3 3 0 00-5.918 0zm18.61 2.137l4.02-3.016 2.622-2.621-7.293-7.293-8.508 8.508 1.65 1.722a4.002 4.002 0 117.509 2.7zM42.54 42.5a3 3 0 10-3.037-3.165L42.54 42.5zm8.666-4l2.647 2.646a.5.5 0 01-.029.734l-14 12a.5.5 0 01-.325.12h-4l-.192-.038L23.4 49h-7.9a.5.5 0 110-1h8l.192.038L35.6 53h3.715l13.45-11.528-2.312-2.312L38.8 47.9a.5.5 0 01-.524.047l-8-4c-.472-.236-.304-.947.224-.947H38v-3H27.618l-3.894 1.947A.5.5 0 0123.5 42h-8a.5.5 0 110-1h7.882l.607-.304-5.843-5.842a.5.5 0 010-.708l8-8a.5.5 0 01.713.006l9.44 9.841 8.847-8.847a.5.5 0 01.708 0l8 8a.5.5 0 010 .708L51.207 38.5zM39 40.252V43.5a.5.5 0 01-.5.5h-5.882l5.83 2.915 4.037-3.029L39 40.252zm-.994-16.014a.932.932 0 00-.346-.734c-.23-.199-.62-.379-1.168-.54-.763-.205-1.319-.473-1.668-.803-.349-.33-.523-.749-.523-1.257 0-.518.17-.943.513-1.275.342-.331.811-.528 1.41-.592V18h.8v1.042c.601.073 1.07.295 1.404.668.335.373.502.883.502 1.53h-.988c0-.445-.12-.799-.36-1.061-.24-.262-.564-.393-.972-.393-.426 0-.752.097-.977.291-.226.194-.339.465-.339.812 0 .323.12.58.357.77.239.191.63.365 1.177.521.546.157.972.329 1.278.517.306.187.531.406.676.656.145.25.218.541.218.876 0 .534-.182.963-.545 1.288-.364.326-.873.518-1.528.578V27h-.795v-.905c-.666-.053-1.188-.263-1.565-.627-.378-.365-.567-.86-.567-1.485h.994c0 .439.13.776.392 1.013.261.237.632.356 1.111.356.47 0 .838-.1 1.107-.299a.96.96 0 00.402-.815zM36.5 29a6.5 6.5 0 110-13 6.5 6.5 0 010 13zm0-1a5.5 5.5 0 100-11 5.5 5.5 0 000 11z" fill="#2A3052"/></g></svg>