<svg width="34" height="26" viewBox="0 0 34 26" xmlns="http://www.w3.org/2000/svg" xmlns:xlink="http://www.w3.org/1999/xlink"><defs><filter x="-33.3%" y="-44.5%" width="166.7%" height="201.8%" filterUnits="objectBoundingBox" id="a"><feOffset dy="1" in="SourceAlpha" result="shadowOffsetOuter1"/><feGaussianBlur stdDeviation="2.5" in="shadowOffsetOuter1" result="shadowBlurOuter1"/><feColorMatrix values="0 0 0 0 0.164705882 0 0 0 0 0.188235294 0 0 0 0 0.321568627 0 0 0 0.14 0" in="shadowBlurOuter1"/></filter><path d="M22.203 3.75H1.797C.805 3.75 0 4.555 0 5.547v12.13c0 .992.805 1.797 1.797 1.797h20.406c.992 0 1.797-.804 1.797-1.797V5.547c0-.992-.805-1.797-1.797-1.797z" id="b"/></defs><g fill-rule="nonzero" fill="none"><g transform="translate(5)"><use fill="#000" filter="url(#a)" xlink:href="#b"/><use fill="#FFF" xlink:href="#b"/></g><path d="M27.203 3.763H6.797C5.805 3.763 5 4.568 5 5.56v12.13c0 .992.805 1.797 1.797 1.797h20.406c.992 0 1.797-.805 1.797-1.797V5.56c0-.992-.805-1.797-1.797-1.797z" fill="#0D47A1"/><path d="M28.975 5.263a1.798 1.798 0 00-1.772-1.5h-.468l-7.666 5.022V3.763h-4.138v5.022L7.265 3.763h-.468c-.891 0-1.63.649-1.772 1.5l6.552 4.293H5v4.138h6.577l-6.552 4.293c.142.85.881 1.5 1.772 1.5h.468l7.666-5.022v5.022h4.138v-5.022l7.666 5.022h.468c.891 0 1.63-.649 1.772-1.5l-6.552-4.293H29V9.556h-6.577l6.552-4.293z" fill="#FFF"/><path d="M18.241 3.763v6.62H29v2.483H18.241v6.621H15.76v-6.62H5v-2.483h10.759V3.763h2.482zM6.162 19.37a1.8 1.8 0 01-.73-.513l7.956-5.164h1.52l-8.746 5.677zm15.075-5.677l7.527 4.886a1.805 1.805 0 01-.576.613l-8.471-5.499h1.52zM5.19 4.757c.126-.253.31-.472.535-.64l8.378 5.439h-1.52l-7.393-4.8zm15.399 4.799h-1.52l8.755-5.683a1.8 1.8 0 01.735.51l-7.97 5.173z" fill="#F44336"/></g></svg>