<svg width="70" height="70" viewBox="0 0 70 70" xmlns="http://www.w3.org/2000/svg"><g fill-rule="nonzero" fill="none"><circle fill="#F2F3F8" cx="35" cy="35" r="35"/><path d="M43.972 25.98a.561.561 0 01.028-.013V25a9 9 0 00-18 0v.967l.028.013C28.054 25.822 29 24.707 29 22.5a.5.5 0 01.5-.5H35v1h-5.016c-.109 1.68-.783 2.85-1.984 3.474V30a7 7 0 0014 0v-3.526c-1.201-.623-1.875-1.794-1.984-3.474H35v-1h5.5a.5.5 0 01.5.5c0 2.207.946 3.322 2.972 3.48zm-.066.997A5.934 5.934 0 0143 26.84v2.076a1.5 1.5 0 00.906-1.938zm-17.812 0A1.5 1.5 0 0027 28.914V26.84a5.934 5.934 0 01-.906.138zM25.05 27H25v-2c0-5.523 4.477-10 10-10s10 4.477 10 10v2h-.05A2.5 2.5 0 0143 29.95V30c0 2.963-1.61 5.55-4.005 6.932A.505.505 0 0139 37v1.262c.141.024.281.07.415.136l6.853 3.427c.43.215.73.622.809 1.095l1.722 10.333A1.5 1.5 0 0147.32 55H22.68a1.5 1.5 0 01-1.48-1.747l1.723-10.333a1.5 1.5 0 01.809-1.095l6.853-3.427c.134-.066.274-.112.415-.136V37c0-.023.002-.046.005-.068A7.997 7.997 0 0127 30v-.05A2.5 2.5 0 0125.05 27zm4.495 13.037l-5.366 2.682a.5.5 0 00-.27.365l-1.722 10.334a.5.5 0 00.493.582h24.64a.5.5 0 00.493-.582L46.09 43.084a.5.5 0 00-.27-.365l-5.25-2.625-1.505 3.01a1.5 1.5 0 01-1.933.708l-2.06-.884-2.062.884a1.5 1.5 0 01-1.933-.708l-1.533-3.067zm.894-.448l1.534 3.068a.5.5 0 00.644.236l1.55-.664a1.514 1.514 0 01-.296-.26l-2.239-2.558a.5.5 0 00-.6-.118l-.593.296zm5.45 2.601l1.638.703a.5.5 0 00.644-.236l1.505-3.01-.709-.354a.5.5 0 00-.6.118l-2.238 2.558a1.505 1.505 0 01-.24.221zM38 37.418A7.978 7.978 0 0135 38a7.978 7.978 0 01-3-.582v1.02c.142.08.273.186.385.314l2.239 2.559a.5.5 0 00.752 0l2.239-2.559c.112-.128.243-.234.385-.315v-1.019zM43.5 48a.5.5 0 01.5.5V54h-1v-5.5a.5.5 0 01.5-.5zm-17 0a.5.5 0 01.5.5V54h-1v-5.5a.5.5 0 01.5-.5z" fill="#2A3052"/></g></svg>