<svg width="220" height="51" viewBox="0 0 220 51" xmlns="http://www.w3.org/2000/svg" xmlns:xlink="http://www.w3.org/1999/xlink"><defs><path id="a" d="M25.48.271v17.184H.2V.27h25.28z"/><path id="c" d="M0 51h219V0H0z"/></defs><g fill="none" fill-rule="evenodd"><path d="M169.993 22.014a8.525 8.525 0 01-1.826 1.432c-.608.353-1.336.535-2.158.535a4.26 4.26 0 01-1.828-.39 4.557 4.557 0 01-1.43-1.06 4.785 4.785 0 01-.937-1.574 5.687 5.687 0 01-.33-1.943v-.064c0-.662.11-1.303.33-1.91a4.89 4.89 0 01.91-1.562c.38-.43.84-.782 1.372-1.044a3.908 3.908 0 011.727-.386c.88 0 1.624.178 2.216.529.62.368 1.206.851 1.763 1.43l.266.275 2.797-3.063-.22-.246a9.483 9.483 0 00-2.779-2.15c-1.066-.546-2.417-.823-4.008-.823a8.74 8.74 0 00-3.53.718 8.914 8.914 0 00-2.812 1.945 8.952 8.952 0 00-1.851 2.878 9.303 9.303 0 00-.665 3.474v.063c0 1.213.227 2.376.665 3.463a8.801 8.801 0 001.85 2.845 8.904 8.904 0 002.8 1.909c1.07.467 2.252.705 3.51.705 1.641 0 3.021-.307 4.101-.907a10.716 10.716 0 002.843-2.32l.231-.257-2.758-2.752-.25.25zM183.013 23.985c-.655 0-1.268-.131-1.819-.39a4.588 4.588 0 01-1.444-1.077 5.19 5.19 0 01-.952-1.58 5.372 5.372 0 01-.342-1.921v-.065c0-.664.106-1.308.315-1.916.207-.597.514-1.119.903-1.55a4.506 4.506 0 011.429-1.047 4.312 4.312 0 011.849-.389c.681 0 1.305.13 1.854.39.56.26 1.042.617 1.448 1.063.402.442.724.973.948 1.574.227.606.343 1.256.343 1.938v.064c0 .663-.104 1.303-.313 1.899a4.806 4.806 0 01-.906 1.558 4.54 4.54 0 01-1.424 1.056c-.558.262-1.189.393-1.889.393m6.443-11.352a8.69 8.69 0 00-2.85-1.93c-1.087-.466-2.301-.703-3.593-.703-1.292 0-2.497.244-3.59.72a8.95 8.95 0 00-2.846 1.942 9.117 9.117 0 00-1.888 2.856 8.96 8.96 0 00-.689 3.497v.064c0 1.213.227 2.378.669 3.462a8.68 8.68 0 001.88 2.845 8.915 8.915 0 002.848 1.914c1.09.463 2.288.7 3.555.7 1.289 0 2.507-.242 3.612-.72a8.915 8.915 0 002.86-1.94 9.086 9.086 0 001.888-2.86 8.807 8.807 0 00.688-3.465v-.063a9.078 9.078 0 00-.67-3.48 8.918 8.918 0 00-1.874-2.84" fill="#E68025"/><g transform="translate(194 10)"><mask id="b" fill="#fff"><use xlink:href="#a"/></mask><path d="M23.882 1.987C22.82.851 21.326.271 19.454.271c-1.282 0-2.404.282-3.348.836a8.31 8.31 0 00-2.082 1.756 5.458 5.458 0 00-1.708-1.746c-.85-.56-1.907-.844-3.13-.844-.638 0-1.233.083-1.762.249a5.323 5.323 0 00-1.434.677 6.418 6.418 0 00-1.112.944c-.086.09-.163.18-.24.271V.609H.2v16.846h4.437V8.04c0-1.162.286-2.079.855-2.722.565-.636 1.295-.946 2.229-.946.932 0 1.632.29 2.13.879.514.6.773 1.5.773 2.668v9.533h4.437v-9.44c0-1.201.288-2.122.86-2.73.575-.615 1.3-.91 2.226-.91.93 0 1.632.29 2.13.879.509.6.77 1.512.77 2.7v9.5h4.433V6.799c-.002-2.06-.536-3.677-1.6-4.81" fill="#E68025" mask="url(#b)"/></g><mask id="d" fill="#fff"><use xlink:href="#c"/></mask><path d="M155 25.502A2.498 2.498 0 00152.504 23 2.503 2.503 0 00150 25.502 2.505 2.505 0 00152.504 28 2.502 2.502 0 00155 25.502" fill="#FFF" mask="url(#d)"/><g mask="url(#d)" fill="#FFF"><path d="M94.87 10.276c1.918 0 3.426.615 4.479 1.822 1.048 1.195 1.581 2.816 1.581 4.811v10.748h-4.423v-9.611c0-1.18-.273-2.092-.803-2.709-.527-.615-1.265-.912-2.255-.912-.974 0-1.743.31-2.342.952-.597.639-.9 1.557-.9 2.73v9.551H85.79V10.617h4.418v1.858c.085-.1.172-.198.258-.287a6.096 6.096 0 011.157-.981 5.926 5.926 0 011.453-.68 5.963 5.963 0 011.794-.251zM110.4 24.501c-.801 0-1.48-.189-2.016-.558-.496-.345-.738-.835-.738-1.496v-.063c0-.665.267-1.175.818-1.56.587-.41 1.432-.616 2.512-.616.683 0 1.346.06 1.957.176.517.102.98.224 1.373.363v.68c0 .457-.092.875-.274 1.241-.19.372-.463.698-.799.964-.356.27-.773.486-1.253.64a5.277 5.277 0 01-1.58.229m.761-14.1c-1.348 0-2.515.127-3.47.38-.949.253-1.893.592-2.795 1.01l-.293.138 1.227 3.667.35-.148c.71-.3 1.424-.543 2.11-.725.682-.178 1.47-.268 2.352-.268 1.18 0 2.092.272 2.705.812.57.499.867 1.202.896 2.15a15.681 15.681 0 00-1.55-.365c-.696-.126-1.55-.19-2.542-.19-.957 0-1.866.112-2.69.336-.844.226-1.58.58-2.193 1.05a4.962 4.962 0 00-1.46 1.796c-.347.719-.522 1.566-.522 2.523v.063c0 .876.17 1.666.509 2.341a4.99 4.99 0 001.342 1.695 5.735 5.735 0 001.927 1.021c.72.225 1.492.34 2.3.34 1.269 0 2.366-.242 3.267-.72a7.718 7.718 0 001.585-1.106v1.485h4.362v-10.03c0-2.274-.618-4.07-1.84-5.338-1.218-1.274-3.094-1.917-5.577-1.917M141.347 22.055l-4.313-11.438h-4.696l6.847 16.678c-.264.586-.534.993-.809 1.204-.286.222-.643.33-1.097.33-.346 0-.684-.055-1.005-.155a5.874 5.874 0 01-.992-.423l-.33-.178-1.539 3.437.291.157a9.02 9.02 0 001.82.757c.628.182 1.354.275 2.152.275.679 0 1.3-.089 1.842-.262a4.619 4.619 0 001.522-.855 5.98 5.98 0 001.232-1.497c.354-.592.7-1.328 1.031-2.19l6.58-17.277h-4.6l-3.936 11.437zM79.01 27.659h4.424V10.617h-4.425zM83.67 6.629c0-1.373-1.096-2.487-2.45-2.487s-2.446 1.114-2.446 2.487c0 1.372 1.092 2.486 2.446 2.486S83.67 8 83.67 6.629M72.227 20.674c0 .975-.351 1.687-1.067 2.171-.73.498-1.768.75-3.067.75h-6.36V17.749h6.069c1.513 0 2.65.26 3.374.769.702.49 1.051 1.177 1.051 2.09v.066zm-10.494-6.966v-5.5h5.489c1.227 0 2.177.24 2.812.724.621.471.922 1.114.922 1.967v.064c0 .978-.342 1.681-1.055 2.153-.73.493-1.731.737-2.976.737h-5.192v-.145zm13.609 3.546c-.41-.454-.91-.85-1.47-1.184a11.582 11.582 0 00-1.14-.57l-.25-.103.225-.149a7.65 7.65 0 00.57-.41 5.354 5.354 0 001.08-1.12c.303-.42.552-.92.742-1.475.19-.56.285-1.209.285-1.938v-.064c0-1.573-.536-2.916-1.595-3.988-1.372-1.401-3.42-2.112-6.08-2.112h-10.4v23.516h10.72c1.27 0 2.442-.14 3.489-.421 1.06-.28 1.98-.693 2.732-1.234a5.74 5.74 0 001.774-2.061c.41-.82.625-1.778.625-2.844v-.064c0-.813-.113-1.537-.341-2.152a4.792 4.792 0 00-.966-1.627zM130.719 10.307c-1.5-.065-2.767.302-3.764 1.1a6.976 6.976 0 00-1.592 1.787v-2.577h-4.423v17.042h4.423v-6.572c0-1.032.124-1.943.379-2.721.248-.759.599-1.396 1.047-1.892.452-.496.992-.87 1.613-1.118.621-.25 1.326-.376 2.091-.376h.544V10.32l-.318-.014z"/></g><g mask="url(#d)" fill="#FFF"><path d="M58.578 46.069l1.637-7.914H57.31l.211-1.017h6.973l-.212 1.017H61.4l-1.638 7.914zM62.82 46.069l1.341-6.47h.967l-.272 1.322c.33-.5.653-.869.97-1.109.315-.24.64-.36.97-.36.217 0 .485.08.803.239l-.447 1.023a1.033 1.033 0 00-.622-.207c-.383 0-.776.214-1.179.645-.402.43-.719 1.205-.948 2.321l-.544 2.596h-1.04zM71.321 44.899c-.77.877-1.557 1.317-2.362 1.317-.496 0-.895-.144-1.2-.43a1.388 1.388 0 01-.456-1.051c0-.272.068-.74.205-1.401l.774-3.735h1.093l-.857 4.137c-.073.344-.11.613-.11.804 0 .244.075.433.222.569.146.137.363.205.649.205.306 0 .605-.076.897-.226.292-.15.544-.353.756-.61a3.21 3.21 0 00.516-.907c.089-.223.191-.615.308-1.176l.58-2.796h1.094l-1.34 6.47h-1.01l.241-1.17zM73.926 43.857l1.093-.067c0 .317.048.587.146.81.096.224.274.407.534.549.26.142.563.214.91.214.483 0 .846-.098 1.087-.294.242-.194.362-.423.362-.688a.826.826 0 00-.217-.542c-.15-.17-.513-.381-1.09-.63-.579-.25-.948-.426-1.11-.528a1.802 1.802 0 01-.61-.588 1.464 1.464 0 01-.205-.776c0-.512.201-.95.604-1.316.403-.366.967-.548 1.692-.548.806 0 1.419.188 1.84.563.42.376.64.87.655 1.484l-1.069.073c-.016-.39-.153-.7-.41-.926-.259-.228-.623-.341-1.095-.341-.378 0-.672.087-.882.261-.21.175-.314.364-.314.567 0 .203.09.382.272.537.12.105.433.268.937.486.838.366 1.365.655 1.583.866.346.337.52.747.52 1.23 0 .32-.098.636-.293.945-.196.309-.494.555-.895.74-.4.185-.873.277-1.417.277-.741 0-1.371-.184-1.891-.554-.52-.37-.765-.971-.737-1.804M82.566 45.174l-.18.9c-.263.07-.517.105-.763.105-.434 0-.78-.108-1.039-.323-.193-.163-.29-.384-.29-.664 0-.143.053-.47.158-.981l.779-3.76h-.864l.175-.852h.865l.332-1.59 1.25-.762-.49 2.352h1.076l-.18.853h-1.07l-.744 3.576c-.092.455-.139.727-.139.816 0 .13.037.23.112.299.075.07.196.103.366.103.242 0 .457-.024.646-.072M84.983 42.267h3.602c.004-.114.006-.195.006-.243 0-.553-.137-.976-.411-1.27-.274-.295-.626-.443-1.058-.443-.467 0-.893.164-1.278.488-.384.325-.67.815-.86 1.468m3.178 1.602l1.063.11c-.153.532-.504 1.038-1.054 1.517-.55.48-1.205.72-1.967.72-.475 0-.911-.111-1.308-.333a2.179 2.179 0 01-.906-.965 3.235 3.235 0 01-.312-1.444c0-.707.162-1.392.487-2.056.324-.665.744-1.158 1.26-1.48a3.1 3.1 0 011.674-.485c.765 0 1.376.24 1.833.718.458.48.686 1.134.686 1.962 0 .317-.028.642-.085.975h-4.725c-.016.126-.024.24-.024.34 0 .607.138 1.068.414 1.387.276.319.613.478 1.012.478.375 0 .743-.124 1.105-.371.364-.248.645-.605.847-1.073M91.66 43.358c0 .45.045.806.133 1.066.089.26.24.476.453.648.214.173.47.26.768.26.495 0 .945-.26 1.347-.78.54-.69.81-1.544.81-2.559 0-.511-.133-.912-.399-1.2a1.307 1.307 0 00-1.003-.433c-.262 0-.5.06-.716.177-.216.117-.428.317-.64.6-.212.283-.39.64-.535 1.075-.145.435-.218.817-.218 1.146zm2.998 1.772c-.625.723-1.278 1.085-1.958 1.085a1.956 1.956 0 01-1.52-.68c-.405-.452-.607-1.109-.607-1.97 0-.788.16-1.508.48-2.16.32-.651.721-1.14 1.203-1.465.48-.325.963-.487 1.446-.487.798 0 1.4.387 1.807 1.163l.725-3.478h1.089l-1.85 8.93h-1.009l.194-.938zM102.271 43.413l-.006.207c0 .553.131.973.393 1.26.262.29.588.434.978.434.383 0 .735-.136 1.055-.406.32-.27.583-.691.789-1.263.205-.574.307-1.102.307-1.584 0-.545-.13-.968-.389-1.268-.26-.3-.581-.45-.964-.45-.395 0-.757.152-1.088.459-.33.307-.606.78-.827 1.417-.165.475-.248.873-.248 1.194zm-1.62 2.656l1.85-8.931h1.093l-.658 3.192c.346-.32.66-.547.943-.68.281-.131.575-.197.882-.197.6 0 1.1.225 1.501.676.4.45.601 1.106.601 1.968 0 .573-.08 1.096-.241 1.572a4.404 4.404 0 01-.598 1.197c-.239.323-.484.58-.738.773a2.912 2.912 0 01-.78.433 2.27 2.27 0 01-.766.143 1.9 1.9 0 01-1.118-.338c-.323-.226-.574-.57-.756-1.033l-.254 1.225h-.96zM107.123 48.567l.067-1.036c.225.065.445.098.658.098.222 0 .401-.05.538-.153.177-.134.371-.386.58-.756l.35-.633-1.069-6.488h1.076l.483 3.271c.097.646.18 1.292.248 1.937l2.87-5.208h1.142l-4.091 7.33c-.395.714-.745 1.186-1.05 1.418a1.708 1.708 0 01-1.059.347c-.254 0-.5-.042-.743-.127M119.716 45.174l-.181.9a2.97 2.97 0 01-.762.105c-.435 0-.781-.108-1.039-.323-.194-.163-.29-.384-.29-.664 0-.143.053-.47.157-.981l.779-3.76h-.864l.176-.852h.864l.332-1.59 1.25-.762-.49 2.352h1.077l-.181.853h-1.07l-.743 3.576c-.092.455-.14.727-.14.816 0 .13.038.23.112.299.075.07.197.103.366.103.242 0 .458-.024.647-.072M120.598 46.069l1.342-6.47h.966l-.271 1.322c.33-.5.653-.869.969-1.109.316-.24.64-.36.97-.36.218 0 .485.08.804.239l-.448 1.023a1.033 1.033 0 00-.622-.207c-.383 0-.775.214-1.178.645-.403.43-.72 1.205-.949 2.321l-.543 2.596h-1.04zM129.45 42.791c-.152.061-.317.108-.492.14-.175.033-.468.068-.88.104-.636.056-1.085.13-1.347.216a1.13 1.13 0 00-.592.417c-.133.191-.2.403-.2.634 0 .309.107.562.318.761.211.2.512.3.904.3.362 0 .71-.098 1.044-.29.335-.193.599-.462.792-.808.194-.345.344-.836.453-1.474m-.404 2.474c-.38.328-.744.57-1.095.722a2.79 2.79 0 01-1.123.228c-.593 0-1.07-.176-1.432-.527-.363-.351-.544-.8-.544-1.35 0-.361.082-.68.245-.959.163-.278.38-.502.65-.67.269-.169.6-.29.99-.362.246-.049.713-.088 1.399-.116.687-.029 1.18-.102 1.478-.22.084-.3.126-.55.126-.749a.727.727 0 00-.278-.603c-.254-.203-.624-.304-1.111-.304-.46 0-.835.102-1.128.307a1.738 1.738 0 00-.637.874l-1.106-.097c.226-.642.584-1.134 1.073-1.474.49-.342 1.107-.512 1.852-.512.793 0 1.422.19 1.885.572.355.284.532.654.532 1.11 0 .344-.05.744-.151 1.2l-.356 1.608c-.113.511-.17.928-.17 1.25 0 .202.045.494.133.876h-1.105c-.061-.21-.103-.48-.127-.804M132.93 43.358c0 .45.045.806.134 1.066.088.26.24.476.453.648.213.173.47.26.767.26.496 0 .945-.26 1.348-.78.54-.69.81-1.544.81-2.559 0-.511-.134-.912-.4-1.2a1.307 1.307 0 00-1.003-.433c-.261 0-.5.06-.716.177-.215.117-.428.317-.64.6-.211.283-.39.64-.535 1.075-.145.435-.217.817-.217 1.146zm2.998 1.772c-.625.723-1.277 1.085-1.958 1.085a1.956 1.956 0 01-1.52-.68c-.405-.452-.607-1.109-.607-1.97 0-.788.16-1.508.48-2.16.32-.651.722-1.14 1.203-1.465.481-.325.963-.487 1.447-.487.798 0 1.4.387 1.807 1.163l.725-3.478h1.088l-1.85 8.93h-1.009l.194-.938zM140.019 42.267h3.6a6.68 6.68 0 00.007-.243c0-.553-.137-.976-.411-1.27-.274-.295-.626-.443-1.057-.443-.468 0-.894.164-1.278.488-.385.325-.672.815-.861 1.468m3.178 1.602l1.063.11c-.152.532-.504 1.038-1.054 1.517-.55.48-1.205.72-1.967.72-.475 0-.91-.111-1.308-.333a2.179 2.179 0 01-.906-.965 3.235 3.235 0 01-.312-1.444c0-.707.162-1.392.487-2.056.324-.665.744-1.158 1.26-1.48a3.099 3.099 0 011.673-.485c.766 0 1.377.24 1.834.718.458.48.686 1.134.686 1.962 0 .317-.028.642-.084.975h-4.726c-.016.126-.024.24-.024.34 0 .607.138 1.068.414 1.387.276.319.614.478 1.012.478.375 0 .743-.124 1.106-.371.363-.248.644-.605.846-1.073M145.366 46.069l1.342-6.47h.967l-.272 1.322c.33-.5.653-.869.97-1.109.316-.24.64-.36.97-.36.217 0 .485.08.803.239l-.447 1.023a1.033 1.033 0 00-.623-.207c-.382 0-.775.214-1.178.645-.403.43-.719 1.205-.948 2.321l-.544 2.596h-1.04zM149.59 43.857l1.094-.067c0 .317.048.587.145.81.097.224.274.407.534.549.26.142.564.214.91.214.484 0 .846-.098 1.088-.294.241-.194.362-.423.362-.688a.827.827 0 00-.217-.542c-.15-.17-.513-.381-1.091-.63-.578-.25-.948-.426-1.11-.528a1.802 1.802 0 01-.61-.588 1.464 1.464 0 01-.204-.776c0-.512.201-.95.603-1.316.404-.366.968-.548 1.692-.548.806 0 1.42.188 1.84.563.421.376.64.87.656 1.484l-1.07.073c-.015-.39-.153-.7-.41-.926-.259-.228-.623-.341-1.094-.341-.379 0-.673.087-.882.261-.21.175-.315.364-.315.567 0 .203.091.382.272.537.121.105.433.268.937.486.838.366 1.366.655 1.583.866.347.337.52.747.52 1.23 0 .32-.098.636-.293.945-.196.309-.493.555-.895.74-.4.185-.873.277-1.417.277-.74 0-1.371-.184-1.89-.554-.52-.37-.766-.971-.738-1.804M159.216 43.857l1.093-.067c0 .317.049.587.146.81.096.224.274.407.534.549.26.142.564.214.91.214.483 0 .846-.098 1.087-.294.242-.194.362-.423.362-.688a.823.823 0 00-.217-.542c-.149-.17-.513-.381-1.09-.63-.578-.25-.948-.426-1.11-.528a1.802 1.802 0 01-.61-.588 1.464 1.464 0 01-.205-.776c0-.512.201-.95.604-1.316.403-.366.967-.548 1.692-.548.806 0 1.42.188 1.84.563.42.376.64.87.656 1.484l-1.07.073c-.016-.39-.153-.7-.41-.926-.259-.228-.623-.341-1.095-.341-.378 0-.672.087-.882.261-.21.175-.314.364-.314.567 0 .203.09.382.272.537.121.105.433.268.936.486.839.366 1.366.655 1.584.866.346.337.52.747.52 1.23 0 .32-.098.636-.293.945-.196.309-.494.555-.895.74-.4.185-.873.277-1.417.277-.741 0-1.371-.184-1.891-.554-.52-.37-.765-.971-.737-1.804M166.853 38.386l.26-1.248h1.088l-.26 1.248h-1.088zm-1.595 7.682l1.342-6.47h1.094l-1.342 6.47h-1.094zM168.05 46.069l1.342-6.47h.99l-.235 1.126c.43-.442.834-.765 1.208-.968a2.386 2.386 0 011.148-.304c.52 0 .928.142 1.224.426.296.284.444.664.444 1.14 0 .24-.052.617-.157 1.132l-.816 3.918h-1.093l.851-4.1c.085-.398.127-.692.127-.884a.676.676 0 00-.22-.524c-.147-.134-.36-.2-.638-.2-.56 0-1.058.202-1.495.61-.437.405-.758 1.101-.964 2.088l-.622 3.01h-1.094zM179.362 43.711l1.093.116c-.274.808-.664 1.408-1.169 1.8a2.742 2.742 0 01-1.725.588c-.697 0-1.262-.228-1.695-.682-.433-.455-.65-1.09-.65-1.907 0-.707.14-1.401.418-2.084.277-.682.675-1.201 1.193-1.557a3.06 3.06 0 011.773-.532c.689 0 1.235.196 1.638.588.402.392.604.91.604 1.556l-1.076.073c-.004-.41-.121-.73-.353-.963-.231-.231-.537-.346-.916-.346-.439 0-.819.14-1.142.42-.322.28-.575.706-.758 1.276a5.382 5.382 0 00-.275 1.648c0 .552.12.966.363 1.242.241.278.54.416.894.416s.694-.137 1.018-.409c.324-.272.58-.687.765-1.243M182.655 42.267h3.6c.005-.114.007-.195.007-.243 0-.553-.136-.976-.41-1.27-.275-.295-.627-.443-1.058-.443-.468 0-.894.164-1.278.488-.385.325-.672.815-.861 1.468m3.178 1.602l1.063.11c-.152.532-.504 1.038-1.054 1.517-.55.48-1.205.72-1.967.72-.475 0-.91-.111-1.308-.333a2.179 2.179 0 01-.906-.965 3.235 3.235 0 01-.312-1.444c0-.707.162-1.392.487-2.056.324-.665.744-1.158 1.26-1.48a3.099 3.099 0 011.673-.485c.766 0 1.377.24 1.835.718.457.48.685 1.134.685 1.962 0 .317-.028.642-.084.975h-4.725c-.017.126-.025.24-.025.34 0 .607.138 1.068.414 1.387.276.319.614.478 1.012.478.375 0 .744-.124 1.106-.371.363-.248.645-.605.846-1.073M191.755 46.069c.113-.532.269-.978.468-1.338.2-.359.465-.7.795-1.023.33-.323.966-.864 1.91-1.624.571-.459.962-.798 1.172-1.017.301-.317.52-.627.658-.932.093-.207.139-.433.139-.676 0-.41-.144-.759-.432-1.045a1.447 1.447 0 00-1.06-.43 1.54 1.54 0 00-1.088.436c-.31.29-.532.756-.665 1.398l-1.07-.158c.106-.793.41-1.417.916-1.874.505-.457 1.135-.685 1.888-.685.504 0 .96.106 1.369.316.41.212.716.508.922.89.205.382.308.776.308 1.182 0 .594-.21 1.164-.628 1.712-.258.341-1.016 1.014-2.272 2.017-.54.43-.943.783-1.207 1.06a3.799 3.799 0 00-.595.78h3.964l-.211 1.01h-5.281zM199.846 43.419c0 .548.09.977.271 1.285.246.426.61.64 1.094.64.423 0 .808-.193 1.155-.578.499-.545.874-1.342 1.126-2.392.252-1.05.378-1.908.378-2.574 0-.642-.122-1.105-.366-1.39-.243-.283-.565-.426-.963-.426-.29 0-.561.076-.813.226-.252.15-.493.408-.722.774-.327.515-.61 1.287-.852 2.314-.206.878-.308 1.584-.308 2.121m-1.058-.28c0-.756.112-1.523.336-2.303.223-.78.472-1.404.746-1.871.274-.467.557-.833.852-1.096.294-.265.583-.459.867-.582.284-.124.6-.186.946-.186.676 0 1.242.253 1.695.761.452.508.68 1.241.68 2.2 0 .986-.158 1.964-.472 2.93-.37 1.146-.886 2.004-1.547 2.578a2.595 2.595 0 01-1.734.651c-.665 0-1.226-.263-1.683-.789-.457-.526-.686-1.29-.686-2.294M206.728 43.419c0 .548.09.977.272 1.285.246.426.61.64 1.093.64.424 0 .809-.193 1.155-.578.5-.545.875-1.342 1.127-2.392.252-1.05.377-1.908.377-2.574 0-.642-.121-1.105-.365-1.39-.244-.283-.565-.426-.964-.426-.29 0-.56.076-.812.226-.252.15-.493.408-.723.774-.326.515-.61 1.287-.852 2.314-.205.878-.308 1.584-.308 2.121m-1.057-.28c0-.756.112-1.523.335-2.303.224-.78.473-1.404.747-1.871.273-.467.557-.833.851-1.096.294-.265.583-.459.867-.582.284-.124.6-.186.946-.186.677 0 1.241.253 1.695.761.453.508.68 1.241.68 2.2 0 .986-.158 1.964-.472 2.93-.37 1.146-.886 2.004-1.546 2.578a2.595 2.595 0 01-1.735.651c-.664 0-1.226-.263-1.683-.789-.456-.526-.685-1.29-.685-2.294M213.61 43.419c0 .548.091.977.272 1.285.246.426.61.64 1.094.64.423 0 .808-.193 1.154-.578.5-.545.875-1.342 1.127-2.392.252-1.05.378-1.908.378-2.574 0-.642-.122-1.105-.366-1.39-.243-.283-.565-.426-.963-.426-.29 0-.561.076-.813.226-.252.15-.493.408-.723.774-.326.515-.61 1.287-.851 2.314-.206.878-.308 1.584-.308 2.121m-1.058-.28c0-.756.112-1.523.335-2.303.224-.78.473-1.404.747-1.871.274-.467.557-.833.852-1.096.294-.265.583-.459.867-.582.284-.124.599-.186.945-.186.677 0 1.242.253 1.695.761.453.508.68 1.241.68 2.2 0 .986-.157 1.964-.471 2.93-.37 1.146-.886 2.004-1.547 2.578a2.595 2.595 0 01-1.734.651c-.665 0-1.226-.263-1.683-.789-.457-.526-.686-1.29-.686-2.294"/></g><g mask="url(#d)"><path d="M43.469 7.454c-9.931-9.938-26.087-9.938-36.02-.004-9.931 9.933-9.931 26.098 0 36.03 9.933 9.938 26.094 9.937 36.02-.001 9.943-9.931 9.943-26.096 0-36.025" fill="#FFF"/><path d="M18.36 32.148s.293 2.185 2.133 3.197l-.49-.913s.936-2.458-1.642-2.284" fill="#293052"/><path d="M26.496 16.953c1.979.704 2.615 2.812 2.615 2.812-2.517.574-1.986-1.996-1.986-1.996l-.629-.816zm13.24 22.793c-.258.253-.512.5-.772.736-5.682 4.63-10.057 2.326-10.108 2.326-2.966-.592-4.438-.601-5.27-1.157-.21-.14-.88-.501-1.035-.414-.605.361-1.438.546-2.294-.136-.077-.062-.148-.131-.214-.194-.944-.941-.623-1.912-.31-2.249.218-.221-.166-.842-.166-.842s-1.113-1.653-1.874-2.65c-.838-1.093-.952-3.261-.962-3.29l-.01-.03c-.848-1.005-.936-1.315-1.228-1.805-.171-.29-.433-.561-.656-.795a4.37 4.37 0 01-.395-.434c-.022-.029-.027-.071-.018-.138.077-.47 1.087-1.505 1.304-1.648.268-.174 1.418-.873 1.418-.873s.646-1.017 1.748-1.017c.993.006 1.599-.055 3.312.503l.712.226c1.194.383 2.246.835 3.082 1.195.71.307 1.278.554 1.714.668 1.477.388 4.082-.807 4.632-1.312.902-.82 1.292-1.37 1.296-1.82.007-.254-.104-.475-.36-.742-.133-.122-.303-.35-.518-.567-.035-.035-.07-.075-.115-.106-2.5-2.656-2.067-4.32-2.065-4.347.107-1.196-.577-1.963-1.313-2.757l-.12-.15c-.04-.035-.086-.096-.086-.096 1.064.174 1.79.603 3.87.834 1.18.128.809.117 1.752.094 1.3-.041 2.33-.155 2.4-.451-.126-.108-.7.03-3.462-1.024-1.278-.49-1.48-.562-2.293-.832-1.045-.352-2.177-.84-2.177-.84 4.504 1.182 5.977 1.645 8.039 1.674a6.453 6.453 0 001.55-.139c.292-.052 1.201-.259 1.304-.573.032-.055-.872.148-2.543-.403-5.258-1.737-5.705-2.607-8.62-3.741-1.017-.394-1.348-.611-4.418-1.403-1.406-.363-3.534-.154-3.823.027-3.985-.938-4.89-.836-6.06-.583 7.798-5 18.33-4.1 25.152 2.723a20.62 20.62 0 012.46 2.98l.098.145c2.188 3.276 3.356 7.122 3.356 11.15 0 5.392-2.1 10.459-5.914 14.277zM42.18 8.742c-9.223-9.225-24.22-9.225-33.442 0-9.22 9.22-9.22 24.23 0 33.453 9.223 9.224 24.224 9.221 33.442-.002 9.233-9.222 9.233-24.23 0-33.45z" fill="#293052"/></g></g></svg>