<?xml version="1.0" encoding="UTF-8"?>
<svg width="148px" height="48px" viewBox="0 0 148 48" version="1.1" xmlns="http://www.w3.org/2000/svg" xmlns:xlink="http://www.w3.org/1999/xlink">
    <!-- Generator: Sketch 52.6 (67491) - http://www.bohemiancoding.com/sketch -->
    <title>$134+M</title>
    <desc>Created with Sketch.</desc>
    <g id="Binary-Bot-Landing-Page" stroke="none" stroke-width="1" fill="none" fill-rule="evenodd">
        <g id="Binary-Bot-Landing-Page-1" transform="translate(-1027.000000, -1681.000000)" fill="#E98024">
            <g id="The-pioneer-of-automated-binary-trading" transform="translate(0.000000, 1589.000000)">
                <path d="M1034.14,140 L1034.14,135.8 C1029.4,134.84 1027,131.18 1027,125.9 L1027,123.14 L1033.24,123.14 L1033.24,126.32 C1033.24,128.9 1034.56,129.98 1036.66,129.98 C1038.76,129.98 1040.08,128.9 1040.08,126.2 C1040.08,123.2 1038.88,121.04 1034.44,117.56 C1029.04,113.3 1027.18,109.94 1027.18,105.38 C1027.18,100.28 1029.52,96.68 1034.14,95.66 L1034.14,92 L1039.54,92 L1039.54,95.66 C1044.22,96.62 1046.62,100.22 1046.62,105.5 L1046.62,106.7 L1040.38,106.7 L1040.38,105.08 C1040.38,102.5 1039.18,101.36 1037.08,101.36 C1034.98,101.36 1033.78,102.5 1033.78,104.96 C1033.78,107.72 1034.98,109.82 1039.42,113.36 C1044.82,117.68 1046.68,120.98 1046.68,125.78 C1046.68,131.18 1044.22,134.84 1039.54,135.8 L1039.54,140 L1034.14,140 Z M1060.54,136.7 L1060.54,104.66 L1053.64,104.66 L1053.64,99.98 C1059.22,99.98 1061.2,98.78 1062.7,94.7 L1067.14,94.7 L1067.14,136.7 L1060.54,136.7 Z M1084.66,137.3 C1078.18,137.3 1074.82,133.58 1074.82,126.86 L1074.82,123.44 L1081.06,123.44 L1081.06,127.16 C1081.06,130.16 1082.38,131.3 1084.48,131.3 C1086.58,131.3 1087.9,130.28 1087.9,126.56 L1087.9,123.14 C1087.9,119.24 1086.58,117.8 1083.58,117.8 L1081.36,117.8 L1081.36,111.8 L1083.76,111.8 C1086.22,111.8 1087.72,110.72 1087.72,107.36 L1087.72,104.3 C1087.72,101.3 1086.34,100.1 1084.42,100.1 C1082.5,100.1 1081.24,101.24 1081.24,104 L1081.24,106.76 L1075,106.76 L1075,104.54 C1075,97.82 1078.36,94.1 1084.66,94.1 C1090.96,94.1 1094.32,97.76 1094.32,104.48 L1094.32,105.98 C1094.32,110.48 1092.88,113.24 1089.64,114.44 L1089.64,114.56 C1093.18,115.88 1094.5,118.94 1094.5,123.2 L1094.5,126.92 C1094.5,133.64 1091.14,137.3 1084.66,137.3 Z M1110.34,136.7 L1110.34,129.08 L1097.74,129.08 L1097.74,123.08 L1109.74,94.7 L1116.94,94.7 L1116.94,123.08 L1120.06,123.08 L1120.06,129.08 L1116.94,129.08 L1116.94,136.7 L1110.34,136.7 Z M1103.74,123.08 L1110.34,123.08 L1110.34,106.7 L1110.22,106.7 L1103.74,123.08 Z M1130.5,126.26 L1130.5,118.04 L1122.46,118.04 L1122.46,113.36 L1130.5,113.36 L1130.5,105.26 L1135.18,105.26 L1135.18,113.36 L1143.22,113.36 L1143.22,118.04 L1135.18,118.04 L1135.18,126.26 L1130.5,126.26 Z M1147.3,136.7 L1147.3,94.7 L1156.72,94.7 L1160.92,124.76 L1161.04,124.76 L1165.24,94.7 L1174.66,94.7 L1174.66,136.7 L1168.42,136.7 L1168.42,104.9 L1168.3,104.9 L1163.5,136.7 L1157.98,136.7 L1153.18,104.9 L1153.06,104.9 L1153.06,136.7 L1147.3,136.7 Z" id="$134+M"></path>
            </g>
        </g>
    </g>
</svg>