<?xml version="1.0" encoding="UTF-8"?>
<svg width="137px" height="44px" viewBox="0 0 137 44" version="1.1" xmlns="http://www.w3.org/2000/svg" xmlns:xlink="http://www.w3.org/1999/xlink">
    <!-- Generator: Sketch 52.6 (67491) - http://www.bohemiancoding.com/sketch -->
    <title>40.1+M</title>
    <desc>Created with Sketch.</desc>
    <g id="Binary-Bot-Landing-Page" stroke="none" stroke-width="1" fill="none" fill-rule="evenodd">
        <g id="Binary-Bot-Landing-Page-1" transform="translate(-626.000000, -1683.000000)" fill="#E98024">
            <g id="The-pioneer-of-automated-binary-trading" transform="translate(0.000000, 1589.000000)">
                <path d="M638.6,136.6 L638.6,128.98 L626,128.98 L626,122.98 L638,94.6 L645.2,94.6 L645.2,122.98 L648.32,122.98 L648.32,128.98 L645.2,128.98 L645.2,136.6 L638.6,136.6 Z M632,122.98 L638.6,122.98 L638.6,106.6 L638.48,106.6 L632,122.98 Z M661.1,137.2 C654.62,137.2 651.08,133.36 651.08,126.64 L651.08,104.56 C651.08,97.84 654.62,94 661.1,94 C667.58,94 671.12,97.84 671.12,104.56 L671.12,126.64 C671.12,133.36 667.58,137.2 661.1,137.2 Z M661.1,131.2 C663.2,131.2 664.52,130.06 664.52,127.06 L664.52,104.14 C664.52,101.14 663.2,100 661.1,100 C659,100 657.68,101.14 657.68,104.14 L657.68,127.06 C657.68,130.06 659,131.2 661.1,131.2 Z M675.56,136.6 L675.56,130.24 L681.92,130.24 L681.92,136.6 L675.56,136.6 Z M696.08,136.6 L696.08,104.56 L689.18,104.56 L689.18,99.88 C694.76,99.88 696.74,98.68 698.24,94.6 L702.68,94.6 L702.68,136.6 L696.08,136.6 Z M718.04,126.16 L718.04,117.94 L710,117.94 L710,113.26 L718.04,113.26 L718.04,105.16 L722.72,105.16 L722.72,113.26 L730.76,113.26 L730.76,117.94 L722.72,117.94 L722.72,126.16 L718.04,126.16 Z M734.84,136.6 L734.84,94.6 L744.26,94.6 L748.46,124.66 L748.58,124.66 L752.78,94.6 L762.2,94.6 L762.2,136.6 L755.96,136.6 L755.96,104.8 L755.84,104.8 L751.04,136.6 L745.52,136.6 L740.72,104.8 L740.6,104.8 L740.6,136.6 L734.84,136.6 Z" id="40.1+M"></path>
            </g>
        </g>
    </g>
</svg>