<?xml version="1.0" encoding="UTF-8"?>
<svg width="128px" height="50px" viewBox="0 0 128 50" version="1.1" xmlns="http://www.w3.org/2000/svg" xmlns:xlink="http://www.w3.org/1999/xlink">
    <!-- Generator: Sketch 52.6 (67491) - http://www.bohemiancoding.com/sketch -->
    <title>6,000+</title>
    <desc>Created with Sketch.</desc>
    <g id="Binary-Bot-Landing-Page" stroke="none" stroke-width="1" fill="none" fill-rule="evenodd">
        <g id="Binary-Bot-Landing-Page-1" transform="translate(-227.000000, -1680.000000)" fill="#E98024">
            <g id="The-pioneer-of-automated-binary-trading" transform="translate(0.000000, 1589.000000)">
                <path d="M237.02,134.2 C230.54,134.2 227,130.36 227,123.64 L227,101.92 C227,94.84 230.24,91 237.08,91 C243.56,91 246.92,94.84 246.92,101.56 L246.92,102.34 L240.68,102.34 L240.68,101.14 C240.68,98.14 239.36,97 237.26,97 C234.92,97 233.6,98.14 233.6,102.16 L233.6,110.2 L233.72,110.2 C234.86,107.8 236.78,106.54 239.72,106.54 C244.58,106.54 247.04,109.96 247.04,116.14 L247.04,123.64 C247.04,130.36 243.5,134.2 237.02,134.2 Z M237.02,128.2 C239.3,128.2 240.44,126.88 240.44,124.12 L240.44,116.68 C240.44,113.86 239.3,112.54 237.02,112.54 C234.74,112.54 233.6,113.86 233.6,116.68 L233.6,124.12 C233.6,126.88 234.74,128.2 237.02,128.2 Z M251.3,140.8 L253.46,133.6 L251.3,133.6 L251.3,127.24 L257.66,127.24 L257.66,132.94 L254.36,140.8 L251.3,140.8 Z M272.12,134.2 C265.64,134.2 262.1,130.36 262.1,123.64 L262.1,101.56 C262.1,94.84 265.64,91 272.12,91 C278.6,91 282.14,94.84 282.14,101.56 L282.14,123.64 C282.14,130.36 278.6,134.2 272.12,134.2 Z M272.12,128.2 C274.22,128.2 275.54,127.06 275.54,124.06 L275.54,101.14 C275.54,98.14 274.22,97 272.12,97 C270.02,97 268.7,98.14 268.7,101.14 L268.7,124.06 C268.7,127.06 270.02,128.2 272.12,128.2 Z M296.12,134.2 C289.64,134.2 286.1,130.36 286.1,123.64 L286.1,101.56 C286.1,94.84 289.64,91 296.12,91 C302.6,91 306.14,94.84 306.14,101.56 L306.14,123.64 C306.14,130.36 302.6,134.2 296.12,134.2 Z M296.12,128.2 C298.22,128.2 299.54,127.06 299.54,124.06 L299.54,101.14 C299.54,98.14 298.22,97 296.12,97 C294.02,97 292.7,98.14 292.7,101.14 L292.7,124.06 C292.7,127.06 294.02,128.2 296.12,128.2 Z M320.12,134.2 C313.64,134.2 310.1,130.36 310.1,123.64 L310.1,101.56 C310.1,94.84 313.64,91 320.12,91 C326.6,91 330.14,94.84 330.14,101.56 L330.14,123.64 C330.14,130.36 326.6,134.2 320.12,134.2 Z M320.12,128.2 C322.22,128.2 323.54,127.06 323.54,124.06 L323.54,101.14 C323.54,98.14 322.22,97 320.12,97 C318.02,97 316.7,98.14 316.7,101.14 L316.7,124.06 C316.7,127.06 318.02,128.2 320.12,128.2 Z M341.78,123.16 L341.78,114.94 L333.74,114.94 L333.74,110.26 L341.78,110.26 L341.78,102.16 L346.46,102.16 L346.46,110.26 L354.5,110.26 L354.5,114.94 L346.46,114.94 L346.46,123.16 L341.78,123.16 Z" id="6,000+"></path>
            </g>
        </g>
    </g>
</svg>