<?xml version="1.0" encoding="UTF-8"?>
<svg width="70px" height="70px" viewBox="0 0 70 70" version="1.1" xmlns="http://www.w3.org/2000/svg" xmlns:xlink="http://www.w3.org/1999/xlink">
    <!-- Generator: Sketch 53.2 (72643) - https://sketchapp.com -->
    <title>ic-configured-for-automation</title>
    <desc>Created with Sketch.</desc>
    <g id="Binary-Bot-Landing-Page" stroke="none" stroke-width="1" fill="none" fill-rule="evenodd">
        <g id="Binary-Bot-Landing-Page-1" transform="translate(-287.000000, -2108.000000)">
            <g id="Why-use-Binary-Bot-for-binary-options-trading?" transform="translate(0.000000, 1918.000000)">
                <g id="row-1" transform="translate(135.000000, 190.000000)">
                    <g id="ic-configured-for-automation" transform="translate(152.000000, 0.000000)">
                        <g>
                            <rect id="bg" x="0" y="0" width="70" height="70"></rect>
                            <path d="M62,70 L8,70 C6.07,70 4.5,68.43 4.5,66.5 L4.5,22.5 C4.5,20.57 6.07,19 8,19 L62,19 C63.93,19 65.5,20.57 65.5,22.5 L65.5,66.5 C65.5,68.43 63.93,70 62,70 Z M8,20 C6.62,20 5.5,21.12 5.5,22.5 L5.5,66.5 C5.5,67.88 6.62,69 8,69 L62,69 C63.38,69 64.5,67.88 64.5,66.5 L64.5,22.5 C64.5,21.12 63.38,20 62,20 L8,20 Z" id="Shape" fill="#E98024" fill-rule="nonzero"></path>
                            <path d="M69.5,52 L64.5,52 L64.5,51 L69,51 L69,37 L64.5,37 L64.5,36 L69.5,36 C69.78,36 70,36.22 70,36.5 L70,51.5 C70,51.78 69.78,52 69.5,52 Z" id="Shape" fill="#E98024"></path>
                            <path d="M5.5,52 L0.5,52 C0.22,52 0,51.78 0,51.5 L0,36.5 C0,36.22 0.22,36 0.5,36 L5.5,36 L5.5,37 L1,37 L1,51 L5.5,51 L5.5,52 Z" id="Shape" fill="#E98024"></path>
                            <path d="M20,43 C15.59,43 12,39.41 12,35 C12,30.59 15.59,27 20,27 C24.41,27 28,30.59 28,35 C28,39.41 24.41,43 20,43 Z M20,28 C16.14,28 13,31.14 13,35 C13,38.86 16.14,42 20,42 C23.86,42 27,38.86 27,35 C27,31.14 23.86,28 20,28 Z" id="Shape" fill="#E98024" fill-rule="nonzero"></path>
                            <path d="M50,43 C45.59,43 42,39.41 42,35 C42,30.59 45.59,27 50,27 C54.41,27 58,30.59 58,35 C58,39.41 54.41,43 50,43 Z M50,28 C46.14,28 43,31.14 43,35 C43,38.86 46.14,42 50,42 C53.86,42 57,38.86 57,35 C57,31.14 53.86,28 50,28 Z" id="Shape" fill="#E98024" fill-rule="nonzero"></path>
                            <path d="M54.5,58.5 L15.5,58.5 C13.57,58.5 12,56.93 12,55 C12,53.07 13.57,51.5 15.5,51.5 L54.5,51.5 C56.43,51.5 58,53.07 58,55 C58,56.93 56.43,58.5 54.5,58.5 Z M15.5,52.5 C14.12,52.5 13,53.62 13,55 C13,56.38 14.12,57.5 15.5,57.5 L54.5,57.5 C55.88,57.5 57,56.38 57,55 C57,53.62 55.88,52.5 54.5,52.5 L15.5,52.5 Z" id="Shape" fill="#E98024" fill-rule="nonzero"></path>
                            <path d="M35,19.5 C34.72,19.5 34.5,19.28 34.5,19 L34.5,8 C34.5,7.72 34.72,7.5 35,7.5 C35.28,7.5 35.5,7.72 35.5,8 L35.5,19 C35.5,19.28 35.28,19.5 35,19.5 Z" id="Shape" fill="#E98024"></path>
                            <path d="M35,8 C32.79,8 31,6.21 31,4 C31,1.79 32.79,0 35,0 C37.21,0 39,1.79 39,4 C39,6.21 37.21,8 35,8 Z M35,1 C33.35,1 32,2.35 32,4 C32,5.65 33.35,7 35,7 C36.65,7 38,5.65 38,4 C38,2.35 36.65,1 35,1 Z" id="Shape" fill="#E98024" fill-rule="nonzero"></path>
                        </g>
                    </g>
                </g>
            </g>
        </g>
    </g>
</svg>