<?xml version="1.0" encoding="UTF-8"?>
<svg width="25px" height="51px" viewBox="0 0 25 51" version="1.1" xmlns="http://www.w3.org/2000/svg" xmlns:xlink="http://www.w3.org/1999/xlink">
    <!-- Generator: Sketch 53.2 (72643) - https://sketchapp.com -->
    <title>ic-convenient-controls</title>
    <desc>Created with Sketch.</desc>
    <g id="Binary-Bot-Landing-Page" stroke="none" stroke-width="1" fill="none" fill-rule="evenodd">
        <g id="Binary-Bot-Landing-Page-1" transform="translate(-248.000000, -2992.000000)">
            <g id="Experience-optimum-automated-trading-functionality-" transform="translate(0.000000, 2656.000000)">
                <g id="column-1" transform="translate(235.000000, 190.000000)">
                    <g id="ic-convenient-controls" transform="translate(0.000000, 146.000000)">
                        <g>
                            <rect id="bg" x="0" y="0" width="50" height="50"></rect>
                            <path d="M32.8,50.02 L18.4,50.02 C15.75,50.02 13.6,47.86 13.6,45.2 L13.6,4.84 C13.6,2.18 15.75,0.02 18.4,0.02 L32.8,0.02 C35.45,0.02 37.6,2.18 37.6,4.84 L37.6,45.21 C37.6,47.86 35.45,50.02 32.8,50.02 Z M18.4,1 C16.28,1 14.56,2.72 14.56,4.83 L14.56,45.2 C14.56,47.31 16.28,49.04 18.4,49.04 L32.8,49.04 C34.92,49.04 36.64,47.32 36.64,45.2 L36.64,4.84 C36.64,2.72 34.92,1 32.8,1 L29.46,1 L29.25,2.89 C29.14,3.87 28.32,4.61 27.34,4.61 L23.86,4.61 C22.88,4.61 22.06,3.87 21.95,2.89 L21.74,1 L18.4,1 Z M22.71,1 L22.91,2.78 C22.96,3.26 23.37,3.63 23.86,3.63 L27.34,3.63 C27.83,3.63 28.24,3.27 28.29,2.78 L28.5,1 L22.71,1 Z M25.6,43.54 C24.54,43.54 23.68,42.67 23.68,41.61 L23.68,40.17 C23.68,39.1 24.54,38.24 25.6,38.24 C26.66,38.24 27.52,39.11 27.52,40.17 L27.52,41.61 C27.52,42.67 26.66,43.54 25.6,43.54 Z M25.6,39.21 C25.07,39.21 24.64,39.64 24.64,40.16 L24.64,41.6 C24.64,42.12 25.07,42.55 25.6,42.55 C26.13,42.55 26.56,42.12 26.56,41.6 L26.56,40.16 C26.56,39.64 26.13,39.21 25.6,39.21 Z M29.92,39.21 L28.48,39.21 C27.42,39.21 26.56,38.34 26.56,37.28 C26.56,36.22 27.42,35.35 28.48,35.35 L29.92,35.35 C30.98,35.35 31.84,36.22 31.84,37.28 C31.84,38.34 30.98,39.21 29.92,39.21 Z M28.48,36.33 C27.95,36.33 27.52,36.76 27.52,37.28 C27.52,37.8 27.95,38.23 28.48,38.23 L29.92,38.23 C30.45,38.23 30.88,37.8 30.88,37.28 C30.88,36.76 30.45,36.33 29.92,36.33 L28.48,36.33 Z M22.72,39.21 L21.28,39.21 C20.22,39.21 19.36,38.34 19.36,37.28 C19.36,36.22 20.22,35.35 21.28,35.35 L22.72,35.35 C23.78,35.35 24.64,36.22 24.64,37.28 C24.64,38.34 23.78,39.21 22.72,39.21 Z M21.28,36.33 C20.75,36.33 20.32,36.76 20.32,37.28 C20.32,37.8 20.75,38.23 21.28,38.23 L22.72,38.23 C23.25,38.23 23.68,37.8 23.68,37.28 C23.68,36.76 23.25,36.33 22.72,36.33 L21.28,36.33 Z M25.6,36.33 C24.54,36.33 23.68,35.46 23.68,34.4 L23.68,32.96 C23.68,31.89 24.54,31.03 25.6,31.03 C26.66,31.03 27.52,31.9 27.52,32.96 L27.52,34.4 C27.52,35.46 26.66,36.33 25.6,36.33 Z M25.6,32 C25.07,32 24.64,32.43 24.64,32.95 L24.64,34.39 C24.64,34.91 25.07,35.34 25.6,35.34 C26.13,35.34 26.56,34.91 26.56,34.39 L26.56,32.95 C26.56,32.43 26.13,32 25.6,32 Z M32.08,26.96 L30.64,26.96 C29.58,26.96 28.72,26.09 28.72,25.03 C28.72,23.96 29.58,23.1 30.64,23.1 L32.08,23.1 C33.14,23.1 34,23.97 34,25.03 C34,26.09 33.14,26.96 32.08,26.96 Z M30.64,24.07 C30.11,24.07 29.68,24.5 29.68,25.02 C29.68,25.54 30.11,25.97 30.64,25.97 L32.08,25.97 C32.61,25.97 33.04,25.54 33.04,25.02 C33.04,24.5 32.61,24.07 32.08,24.07 L30.64,24.07 Z M26.32,26.96 L24.88,26.96 C23.82,26.96 22.96,26.09 22.96,25.03 C22.96,23.96 23.82,23.1 24.88,23.1 L26.32,23.1 C27.38,23.1 28.24,23.97 28.24,25.03 C28.24,26.09 27.38,26.96 26.32,26.96 Z M24.88,24.07 C24.35,24.07 23.92,24.5 23.92,25.02 C23.92,25.54 24.35,25.97 24.88,25.97 L26.32,25.97 C26.85,25.97 27.28,25.54 27.28,25.02 C27.28,24.5 26.85,24.07 26.32,24.07 L24.88,24.07 Z M20.56,26.96 L19.12,26.96 C18.06,26.96 17.2,26.09 17.2,25.03 C17.2,23.96 18.06,23.1 19.12,23.1 L20.56,23.1 C21.62,23.1 22.48,23.97 22.48,25.03 C22.48,26.09 21.62,26.96 20.56,26.96 Z M19.12,24.07 C18.59,24.07 18.16,24.5 18.16,25.02 C18.16,25.54 18.59,25.97 19.12,25.97 L20.56,25.97 C21.09,25.97 21.52,25.54 21.52,25.02 C21.52,24.5 21.09,24.07 20.56,24.07 L19.12,24.07 Z M32.08,21.19 L30.64,21.19 C29.58,21.19 28.72,20.32 28.72,19.26 C28.72,18.19 29.58,17.33 30.64,17.33 L32.08,17.33 C33.14,17.33 34,18.2 34,19.26 C34,20.32 33.14,21.19 32.08,21.19 Z M30.64,18.3 C30.11,18.3 29.68,18.73 29.68,19.25 C29.68,19.77 30.11,20.2 30.64,20.2 L32.08,20.2 C32.61,20.2 33.04,19.77 33.04,19.25 C33.04,18.73 32.61,18.3 32.08,18.3 L30.64,18.3 Z M26.32,21.19 L24.88,21.19 C23.82,21.19 22.96,20.32 22.96,19.26 C22.96,18.19 23.82,17.33 24.88,17.33 L26.32,17.33 C27.38,17.33 28.24,18.2 28.24,19.26 C28.24,20.32 27.38,21.19 26.32,21.19 Z M24.88,18.3 C24.35,18.3 23.92,18.73 23.92,19.25 C23.92,19.77 24.35,20.2 24.88,20.2 L26.32,20.2 C26.85,20.2 27.28,19.77 27.28,19.25 C27.28,18.73 26.85,18.3 26.32,18.3 L24.88,18.3 Z M20.56,21.19 L19.12,21.19 C18.06,21.19 17.2,20.32 17.2,19.26 C17.2,18.19 18.06,17.33 19.12,17.33 L20.56,17.33 C21.62,17.33 22.48,18.2 22.48,19.26 C22.48,20.32 21.62,21.19 20.56,21.19 Z M19.12,18.3 C18.59,18.3 18.16,18.73 18.16,19.25 C18.16,19.77 18.59,20.2 19.12,20.2 L20.56,20.2 C21.09,20.2 21.52,19.77 21.52,19.25 C21.52,18.73 21.09,18.3 20.56,18.3 L19.12,18.3 Z M32.08,15.42 L30.64,15.42 C29.58,15.42 28.72,14.55 28.72,13.49 C28.72,12.43 29.58,11.56 30.64,11.56 L32.08,11.56 C33.14,11.56 34,12.43 34,13.49 C34,14.55 33.14,15.42 32.08,15.42 Z M30.64,12.54 C30.11,12.54 29.68,12.97 29.68,13.49 C29.68,14.01 30.11,14.44 30.64,14.44 L32.08,14.44 C32.61,14.44 33.04,14.01 33.04,13.49 C33.04,12.97 32.61,12.54 32.08,12.54 L30.64,12.54 Z M26.32,15.42 L24.88,15.42 C23.82,15.42 22.96,14.55 22.96,13.49 C22.96,12.43 23.82,11.56 24.88,11.56 L26.32,11.56 C27.38,11.56 28.24,12.43 28.24,13.49 C28.24,14.55 27.38,15.42 26.32,15.42 Z M24.88,12.54 C24.35,12.54 23.92,12.97 23.92,13.49 C23.92,14.01 24.35,14.44 24.88,14.44 L26.32,14.44 C26.85,14.44 27.28,14.01 27.28,13.49 C27.28,12.97 26.85,12.54 26.32,12.54 L24.88,12.54 Z M20.56,15.42 L19.12,15.42 C18.06,15.42 17.2,14.55 17.2,13.49 C17.2,12.43 18.06,11.56 19.12,11.56 L20.56,11.56 C21.62,11.56 22.48,12.43 22.48,13.49 C22.48,14.55 21.62,15.42 20.56,15.42 Z M19.12,12.54 C18.59,12.54 18.16,12.97 18.16,13.49 C18.16,14.01 18.59,14.44 19.12,14.44 L20.56,14.44 C21.09,14.44 21.52,14.01 21.52,13.49 C21.52,12.97 21.09,12.54 20.56,12.54 L19.12,12.54 Z" id="Shape" fill="#E98024" fill-rule="nonzero"></path>
                        </g>
                    </g>
                </g>
            </g>
        </g>
    </g>
</svg>