<?xml version="1.0" encoding="UTF-8"?>
<svg width="70px" height="70px" viewBox="0 0 70 70" version="1.1" xmlns="http://www.w3.org/2000/svg" xmlns:xlink="http://www.w3.org/1999/xlink">
    <!-- Generator: Sketch 52.6 (67491) - http://www.bohemiancoding.com/sketch -->
    <title>ic-contracts</title>
    <desc>Created with Sketch.</desc>
    <g id="Binary-Bot-Landing-Page" stroke="none" stroke-width="1" fill="none" fill-rule="evenodd">
        <g id="Binary-Bot-Landing-Page-1" transform="translate(-535.000000, -1670.000000)" fill-rule="nonzero">
            <g id="The-pioneer-of-automated-binary-trading" transform="translate(0.000000, 1589.000000)">
                <g id="ic-contracts" transform="translate(535.000000, 81.000000)">
                    <circle id="circle" fill="#F2F3F8" cx="35" cy="35" r="35"></circle>
                    <path d="M25,53.2928932 L25,50.5 C25,50.2238576 24.7761424,50 24.5,50 L21.7071068,50 L25,53.2928932 Z M21,49 L24.5,49 C25.3284271,49 26,49.6715729 26,50.5 L26,54 L47.5,54 C47.7761424,54 48,53.7761424 48,53.5 L48,16.5 C48,16.2238576 47.7761424,16 47.5,16 L21.5,16 C21.2238576,16 21,16.2238576 21,16.5 L21,49 Z M25.9142136,55 C25.5163888,55 25.134858,54.8419647 24.8535534,54.5606602 L20.4393398,50.1464466 C20.1580353,49.865142 20,49.4836112 20,49.0857864 L20,16.5 C20,15.6715729 20.6715729,15 21.5,15 L47.5,15 C48.3284271,15 49,15.6715729 49,16.5 L49,53.5 C49,54.3284271 48.3284271,55 47.5,55 L25.9142136,55 Z M24.5,35 L44.5,35 C44.7761424,35 45,35.2238576 45,35.5 C45,35.7761424 44.7761424,36 44.5,36 L24.5,36 C24.2238576,36 24,35.7761424 24,35.5 C24,35.2238576 24.2238576,35 24.5,35 Z M24.5,32 L44.5,32 C44.7761424,32 45,32.2238576 45,32.5 C45,32.7761424 44.7761424,33 44.5,33 L24.5,33 C24.2238576,33 24,32.7761424 24,32.5 C24,32.2238576 24.2238576,32 24.5,32 Z M24.5,29 L44.5,29 C44.7761424,29 45,29.2238576 45,29.5 C45,29.7761424 44.7761424,30 44.5,30 L24.5,30 C24.2238576,30 24,29.7761424 24,29.5 C24,29.2238576 24.2238576,29 24.5,29 Z M24.5,26 L44.5,26 C44.7761424,26 45,26.2238576 45,26.5 C45,26.7761424 44.7761424,27 44.5,27 L24.5,27 C24.2238576,27 24,26.7761424 24,26.5 C24,26.2238576 24.2238576,26 24.5,26 Z M24.5,19 L32.5,19 C32.7761424,19 33,19.2238576 33,19.5 C33,19.7761424 32.7761424,20 32.5,20 L24.5,20 C24.2238576,20 24,19.7761424 24,19.5 C24,19.2238576 24.2238576,19 24.5,19 Z M36.1418898,51.4799297 C36.1743477,51.4417696 36.2120321,51.3929691 36.2533127,51.3340492 C36.4311892,51.0801655 36.5322432,50.8957623 36.9871145,50.025158 C37.2197357,49.579931 37.3672091,49.3104789 37.524733,49.0536489 C38.0765335,48.1539827 38.5717812,47.7268736 39.2236068,48.0527864 C39.7633283,48.3226472 40.011991,48.8697052 40.1341858,49.6639714 C40.1546901,49.797249 40.162221,49.8443426 40.1764626,49.9871549 C40.1793371,49.9833404 40.182432,49.9792337 40.1857871,49.9747816 C40.7132032,49.2766105 41.007123,49 41.5,49 C41.8834275,49 42.1020009,49.2448022 42.2584135,49.6201923 C42.3369794,49.8087505 42.3845492,49.9766442 42.4850713,50.3787322 C42.5720492,50.7266442 42.613021,50.8712505 42.6646635,50.9951923 C42.6653943,50.9969464 42.6660262,50.9985454 42.6665508,51 L44.5,51 C44.7761424,51 45,51.2238576 45,51.5 C45,51.7761424 44.7761424,52 44.5,52 L42.5,52 C42.1165725,52 41.8979991,51.7551978 41.7415865,51.3798077 C41.6630206,51.1912495 41.6154508,51.0233558 41.5149287,50.6212678 C41.4503657,50.3630155 41.4111519,50.2167842 41.3741066,50.1078733 C41.2854855,50.1997922 41.1532894,50.3530592 40.9837044,50.5775485 C40.9422011,50.6326212 40.9422011,50.6326212 40.9,50.6888889 C40.6347418,51.0425665 40.5155478,51.1915589 40.3535534,51.3535534 C40.0132683,51.6938385 39.5164452,51.6174042 39.3357617,51.1656953 C39.275156,51.0141811 39.2524857,50.8600236 39.2220534,50.5252679 C39.1734664,49.990811 39.1748828,50.0049746 39.1458142,49.8160286 C39.0732705,49.3444948 38.952448,49.06111 38.8033899,48.9628371 C38.8397348,48.9737353 38.8390331,48.9808868 38.8112172,49.0048757 C38.695034,49.1050738 38.5483865,49.2973241 38.3771686,49.5764811 C38.2350417,49.8082076 38.0959603,50.0623265 37.8734308,50.4882385 C37.3897617,51.4139606 37.2871534,51.6011999 37.0723052,51.9078534 C36.6587028,52.4981895 36.2092409,52.7819307 35.7,52.4 C35.0705621,51.9279216 34.5413724,51.4615148 34.1052805,51.0064795 C33.8748492,51.1764321 33.640917,51.3420187 33.4070257,51.5017866 C33.1192119,51.6983882 32.8943379,51.8438519 32.7633788,51.9250078 C32.5286535,52.0704679 32.2204524,51.9981041 32.0749922,51.7633788 C31.9295321,51.5286535 32.0018959,51.2204524 32.2366212,51.0749922 C32.3556621,51.0012222 32.5682881,50.8636813 32.8429743,50.6760469 C33.0471323,50.5365894 33.2512562,50.3925453 33.4525137,50.2451838 C32.1764791,48.5574557 32.2086702,47.084223 33.1464466,46.1464466 C34.4789737,44.8139196 37,45.5702275 37,47.5 C37,48.0502312 36.6800291,48.6243378 36.1130138,49.2548025 C35.7833445,49.621362 35.3721793,50.0022309 34.896455,50.3923618 C35.2411769,50.7423734 35.6546787,51.1052229 36.1418898,51.4799297 Z M35.3694834,48.5861004 C35.7852829,48.1237726 36,47.7385173 36,47.5 C36,46.5297725 34.5979494,46.1091574 33.8535534,46.8535534 C33.5941675,47.1129392 33.4312929,47.6018438 33.5535181,48.213883 C33.6413368,48.6536327 33.8647622,49.128882 34.2416184,49.6360859 C34.6901379,49.2695064 35.0729885,48.9157733 35.3694834,48.5861004 Z" id="Combined-Shape" fill="#2A3052"></path>
                </g>
            </g>
        </g>
    </g>
</svg>