<?xml version="1.0" encoding="UTF-8"?>
<svg width="50px" height="50px" viewBox="0 0 50 32" version="1.1" xmlns="http://www.w3.org/2000/svg" xmlns:xlink="http://www.w3.org/1999/xlink">
    <!-- Generator: Sketch 53.2 (72643) - https://sketchapp.com -->
    <title>ic-detailed-trade-summary</title>
    <desc>Created with Sketch.</desc>
    <g id="Binary-Bot-Landing-Page" stroke="none" stroke-width="1" fill="none" fill-rule="evenodd">
        <g id="Binary-Bot-Landing-Page-1" transform="translate(-735.000000, -3001.000000)">
            <g id="Experience-optimum-automated-trading-functionality-" transform="translate(0.000000, 2656.000000)">
                <g id="column-2" transform="translate(735.000000, 190.000000)">
                    <g id="ic-detailed-trade-summary" transform="translate(0.000000, 146.000000)">
                        <g>
                            <rect id="bg" x="0" y="0" width="50" height="50"></rect>
                            <path d="M32.53,41 L7.2,41 C4.52,41 0,40.56 0,38.91 L0,36.76 L22.04,36.76 L22.09,37.2 C22.12,37.49 22.18,37.65 22.22,37.72 L27.79,37.72 C27.83,37.65 27.88,37.49 27.92,37.2 L27.97,36.76 L50,36.76 L50,38.91 C50,40.57 45.52,40.91 44.15,40.97 L44.13,40.97 L32.53,41 Z M0.98,37.75 L0.98,38.9 C1.17,39.28 3.41,40 7.2,40 L44.12,39.97 C47.29,39.82 48.89,39.18 49.03,38.87 L49.03,37.75 L28.81,37.75 C28.6,38.57 28.15,38.71 27.87,38.71 L22.13,38.71 C21.85,38.71 21.4,38.57 21.19,37.75 L0.98,37.75 Z" id="Shape" fill="#E98024" fill-rule="nonzero"></path>
                            <path d="M28.65,37.76 L3.6,37.76 L3.49,11.02 C3.49,9.9 4.4,9 5.51,9 L44.48,9 C45.6,9 46.5,9.9 46.5,11.01 L46.5,37.15 L45.52,37.15 L45.52,11.01 C45.52,10.45 45.05,10 44.48,10 L5.51,10 C4.93,10 4.47,10.45 4.47,11.01 L4.58,36.76 L28.66,36.76 L28.66,37.76 L28.65,37.76 Z M44,35.27 L5.99,35.27 L5.99,11.29 L44,11.29 L44,35.27 Z M6.97,34.27 L43.01,34.27 L43.01,12.29 L6.97,12.29 L6.97,34.27 Z" id="Shape" fill="#E98024" fill-rule="nonzero"></path>
                            <path d="M29.02,32.07 L26.48,32.07 C26.21,32.07 25.99,31.85 25.99,31.57 L25.99,26.63 C25.99,26.35 26.21,26.13 26.48,26.13 L29.02,26.13 C29.29,26.13 29.51,26.35 29.51,26.63 L29.51,31.57 C29.51,31.85 29.29,32.07 29.02,32.07 Z M26.97,31.07 L28.53,31.07 L28.53,27.13 L26.97,27.13 L26.97,31.07 Z" id="Shape" fill="#E98024" fill-rule="nonzero"></path>
                            <path d="M32.97,32.07 L30.43,32.07 C30.16,32.07 29.94,31.85 29.94,31.57 L29.94,23.61 C29.94,23.33 30.16,23.11 30.43,23.11 L32.97,23.11 C33.24,23.11 33.46,23.33 33.46,23.61 L33.46,31.57 C33.46,31.85 33.24,32.07 32.97,32.07 Z M30.92,31.07 L32.48,31.07 L32.48,24.11 L30.92,24.11 L30.92,31.07 L30.92,31.07 Z" id="Shape" fill="#E98024" fill-rule="nonzero"></path>
                            <path d="M36.83,32.07 L34.29,32.07 C34.02,32.07 33.8,31.85 33.8,31.57 L33.8,25.42 C33.8,25.14 34.02,24.92 34.29,24.92 L36.83,24.92 C37.1,24.92 37.32,25.14 37.32,25.42 L37.32,31.57 C37.32,31.85 37.1,32.07 36.83,32.07 Z M34.78,31.07 L36.34,31.07 L36.34,25.92 L34.78,25.92 L34.78,31.07 Z" id="Shape" fill="#E98024" fill-rule="nonzero"></path>
                            <path d="M40.69,32.07 L38.15,32.07 C37.88,32.07 37.66,31.85 37.66,31.57 L37.66,21.8 C37.66,21.52 37.88,21.3 38.15,21.3 L40.69,21.3 C40.96,21.3 41.18,21.52 41.18,21.8 L41.18,31.57 C41.18,31.85 40.96,32.07 40.69,32.07 Z M38.64,31.07 L40.2,31.07 L40.2,22.3 L38.64,22.3 L38.64,31.07 Z" id="Shape" fill="#E98024" fill-rule="nonzero"></path>
                            <path d="M40.65,15.06 L26.47,15.06 C26.2,15.06 25.98,14.84 25.98,14.56 C25.98,14.28 26.2,14.06 26.47,14.06 L40.65,14.06 C40.92,14.06 41.14,14.28 41.14,14.56 C41.14,14.84 40.92,15.06 40.65,15.06 Z" id="Path" fill="#E98024" fill-rule="nonzero"></path>
                            <path d="M40.65,17.21 L26.47,17.21 C26.2,17.21 25.98,16.99 25.98,16.71 C25.98,16.43 26.2,16.21 26.47,16.21 L40.65,16.21 C40.92,16.21 41.14,16.43 41.14,16.71 C41.14,16.99 40.92,17.21 40.65,17.21 Z" id="Path" fill="#E98024" fill-rule="nonzero"></path>
                            <path d="M40.65,19.11 L32.26,19.11 C31.99,19.11 31.77,18.89 31.77,18.61 C31.77,18.33 31.99,18.11 32.26,18.11 L40.65,18.11 C40.92,18.11 41.14,18.33 41.14,18.61 C41.14,18.89 40.92,19.11 40.65,19.11 Z" id="Path" fill="#E98024" fill-rule="nonzero"></path>
                            <path d="M12.41,22.32 C11.47,22.32 10.6,22.01 9.92,21.43 C9.06,20.73 8.54,19.77 8.43,18.67 C8.4,18.4 8.6,18.15 8.87,18.12 C9.13,18.09 9.38,18.29 9.41,18.57 C9.5,19.41 9.88,20.12 10.55,20.66 C11.07,21.1 11.71,21.33 12.42,21.33 L12.93,21.33 C13.67,21.23 14.4,20.8 14.91,20.14 C15.42,19.48 15.64,18.67 15.54,17.86 C15.45,17 15.07,16.3 14.4,15.75 C13.75,15.22 12.97,14.99 12.12,15.08 C11.85,15.11 11.61,14.91 11.58,14.63 C11.55,14.35 11.75,14.11 12.02,14.08 C13.12,13.96 14.16,14.27 15.01,14.96 C15.88,15.67 16.4,16.63 16.51,17.73 C16.65,18.8 16.35,19.87 15.68,20.75 C15.01,21.62 14.06,22.17 13,22.31 L12.41,22.32 Z" id="Path" fill="#E98024" fill-rule="nonzero"></path>
                            <path d="M12.48,32.66 C10.26,32.66 8.46,30.82 8.46,28.56 C8.46,26.83 9.53,25.28 11.13,24.7 C11.38,24.61 11.67,24.74 11.76,25 C11.85,25.26 11.72,25.55 11.46,25.64 C10.25,26.08 9.44,27.25 9.44,28.56 C9.44,30.27 10.8,31.66 12.48,31.66 C14.16,31.66 15.52,30.27 15.52,28.56 C15.52,27.28 14.77,26.15 13.61,25.68 C13.36,25.58 13.24,25.29 13.34,25.03 C13.44,24.77 13.73,24.65 13.98,24.75 C15.52,25.38 16.51,26.87 16.51,28.56 C16.5,30.82 14.7,32.66 12.48,32.66 Z" id="Path" fill="#E98024" fill-rule="nonzero"></path>
                        </g>
                    </g>
                </g>
            </g>
        </g>
    </g>
</svg>