<?xml version="1.0" encoding="UTF-8"?>
<svg width="50px" height="50px" viewBox="0 0 50 50" version="1.1" xmlns="http://www.w3.org/2000/svg" xmlns:xlink="http://www.w3.org/1999/xlink">
    <!-- Generator: Sketch 53.2 (72643) - https://sketchapp.com -->
    <title>ic-highly-customisable-parts</title>
    <desc>Created with Sketch.</desc>
    <g id="Binary-Bot-Landing-Page" stroke="none" stroke-width="1" fill="none" fill-rule="evenodd">
        <g id="Binary-Bot-Landing-Page-1" transform="translate(-735.000000, -2846.000000)">
            <g id="Experience-optimum-automated-trading-functionality-" transform="translate(0.000000, 2656.000000)">
                <g id="column-2" transform="translate(735.000000, 190.000000)">
                    <g id="ic-highly-customisable-parts">
                        <g>
                            <rect id="bg" x="0" y="0" width="50" height="50"></rect>
                            <path d="M42,27 L1.86,27 C0.83,27 0,26.1 0,25 C0,23.9 0.83,23 1.86,23 L42,23 L42,24 L1.86,24 C1.38,24 0.99,24.45 0.99,25 C0.99,25.55 1.38,26 1.86,26 L42,26 L42,27 Z" id="Path" fill="#E98024" fill-rule="nonzero"></path>
                            <path d="M42,27 L1.86,27 C0.83,27 0,26.1 0,25 C0,23.9 0.83,23 1.86,23 L42,23 L42,24 L1.86,24 C1.38,24 0.99,24.45 0.99,25 C0.99,25.55 1.38,26 1.86,26 L42,26 L42,27 Z" id="Path" fill="#E98024" fill-rule="nonzero"></path>
                            <path d="M48.15,6.5 L28.56,6.5 L28.56,5.5 L48.14,5.5 C48.62,5.5 49.01,5.05 49.01,4.5 C49.01,3.95 48.62,3.5 48.14,3.5 L28.74,3.5 L28.74,2.5 L48.14,2.5 C49.16,2.5 49.99,3.4 49.99,4.5 C49.99,5.6 49.17,6.5 48.15,6.5 Z M21.45,6.5 L1.85,6.5 C0.83,6.5 0,5.6 0,4.5 C0,3.4 0.83,2.5 1.85,2.5 L21.21,2.5 L21.21,3.5 L1.85,3.5 C1.37,3.5 0.98,3.95 0.98,4.5 C0.98,5.05 1.37,5.5 1.85,5.5 L21.45,5.5 L21.45,6.5 Z" id="Shape" fill="#E98024" fill-rule="nonzero"></path>
                            <path d="M48.15,6.5 L28.56,6.5 L28.56,5.5 L48.14,5.5 C48.62,5.5 49.01,5.05 49.01,4.5 C49.01,3.95 48.62,3.5 48.14,3.5 L28.74,3.5 L28.74,2.5 L48.14,2.5 C49.16,2.5 49.99,3.4 49.99,4.5 C49.99,5.6 49.17,6.5 48.15,6.5 Z M21.45,6.5 L1.85,6.5 C0.83,6.5 0,5.6 0,4.5 C0,3.4 0.83,2.5 1.85,2.5 L21.21,2.5 L21.21,3.5 L1.85,3.5 C1.37,3.5 0.98,3.95 0.98,4.5 C0.98,5.05 1.37,5.5 1.85,5.5 L21.45,5.5 L21.45,6.5 Z" id="Shape" fill="#E98024" fill-rule="nonzero"></path>
                            <path d="M24.96,9 C22.48,9 20.46,6.98 20.46,4.5 C20.46,2.02 22.47,0 24.96,0 C27.45,0 29.46,2.02 29.46,4.5 C29.46,6.98 27.44,9 24.96,9 Z M24.96,1 C23.03,1 21.46,2.57 21.46,4.5 C21.46,6.43 23.03,8 24.96,8 C26.89,8 28.46,6.43 28.46,4.5 C28.46,2.57 26.89,1 24.96,1 Z" id="Shape" fill="#E98024" fill-rule="nonzero"></path>
                            <path d="M24.96,9 C22.48,9 20.46,6.98 20.46,4.5 C20.46,2.02 22.47,0 24.96,0 C27.45,0 29.46,2.02 29.46,4.5 C29.46,6.98 27.44,9 24.96,9 Z M24.96,1 C23.03,1 21.46,2.57 21.46,4.5 C21.46,6.43 23.03,8 24.96,8 C26.89,8 28.46,6.43 28.46,4.5 C28.46,2.57 26.89,1 24.96,1 Z" id="Shape" fill="#E98024" fill-rule="nonzero"></path>
                            <path d="M45.5,29.5 C43.02,29.5 41,27.48 41,25 C41,22.52 43.02,20.5 45.5,20.5 C47.98,20.5 50,22.52 50,25 C50,27.48 47.98,29.5 45.5,29.5 Z M45.5,21.5 C43.57,21.5 42,23.07 42,25 C42,26.93 43.57,28.5 45.5,28.5 C47.43,28.5 49,26.93 49,25 C49,23.07 47.43,21.5 45.5,21.5 Z" id="Shape" fill="#E98024" fill-rule="nonzero"></path>
                            <path d="M45.5,29.5 C43.02,29.5 41,27.48 41,25 C41,22.52 43.02,20.5 45.5,20.5 C47.98,20.5 50,22.52 50,25 C50,27.48 47.98,29.5 45.5,29.5 Z M45.5,21.5 C43.57,21.5 42,23.07 42,25 C42,26.93 43.57,28.5 45.5,28.5 C47.43,28.5 49,26.93 49,25 C49,23.07 47.43,21.5 45.5,21.5 Z" id="Shape" fill="#E98024" fill-rule="nonzero"></path>
                            <path d="M48.15,47.5 L28.85,47.5 L28.85,46.5 L48.15,46.5 C48.63,46.5 49.02,46.05 49.02,45.5 C49.02,44.95 48.63,44.5 48.15,44.5 L28.85,44.5 L28.85,43.5 L48.15,43.5 C49.17,43.5 50,44.4 50,45.5 C50,46.6 49.17,47.5 48.15,47.5 Z M21.15,47.5 L1.85,47.5 C0.83,47.5 0,46.6 0,45.5 C0,44.4 0.83,43.5 1.85,43.5 L21.15,43.5 L21.15,44.5 L1.85,44.5 C1.37,44.5 0.98,44.95 0.98,45.5 C0.98,46.05 1.37,46.5 1.85,46.5 L21.15,46.5 L21.15,47.5 L21.15,47.5 Z" id="Shape" fill="#E98024" fill-rule="nonzero"></path>
                            <path d="M48.15,47.5 L28.85,47.5 L28.85,46.5 L48.15,46.5 C48.63,46.5 49.02,46.05 49.02,45.5 C49.02,44.95 48.63,44.5 48.15,44.5 L28.85,44.5 L28.85,43.5 L48.15,43.5 C49.17,43.5 50,44.4 50,45.5 C50,46.6 49.17,47.5 48.15,47.5 Z M21.15,47.5 L1.85,47.5 C0.83,47.5 0,46.6 0,45.5 C0,44.4 0.83,43.5 1.85,43.5 L21.15,43.5 L21.15,44.5 L1.85,44.5 C1.37,44.5 0.98,44.95 0.98,45.5 C0.98,46.05 1.37,46.5 1.85,46.5 L21.15,46.5 L21.15,47.5 L21.15,47.5 Z" id="Shape" fill="#E98024" fill-rule="nonzero"></path>
                            <path d="M24.96,50 C22.48,50 20.46,47.98 20.46,45.5 C20.46,43.02 22.48,41 24.96,41 C27.44,41 29.46,43.02 29.46,45.5 C29.46,47.98 27.44,50 24.96,50 Z M24.96,42 C23.03,42 21.46,43.57 21.46,45.5 C21.46,47.43 23.03,49 24.96,49 C26.89,49 28.46,47.43 28.46,45.5 C28.46,43.57 26.89,42 24.96,42 Z" id="Shape" fill="#E98024" fill-rule="nonzero"></path>
                            <path d="M24.96,50 C22.48,50 20.46,47.98 20.46,45.5 C20.46,43.02 22.48,41 24.96,41 C27.44,41 29.46,43.02 29.46,45.5 C29.46,47.98 27.44,50 24.96,50 Z M24.96,42 C23.03,42 21.46,43.57 21.46,45.5 C21.46,47.43 23.03,49 24.96,49 C26.89,49 28.46,47.43 28.46,45.5 C28.46,43.57 26.89,42 24.96,42 Z" id="Shape" fill="#E98024" fill-rule="nonzero"></path>
                        </g>
                    </g>
                </g>
            </g>
        </g>
    </g>
</svg>