<?xml version="1.0" encoding="UTF-8"?>
<svg width="34px" height="26px" viewBox="0 0 34 26" version="1.1" xmlns="http://www.w3.org/2000/svg" xmlns:xlink="http://www.w3.org/1999/xlink">
    <!-- Generator: Sketch 52.6 (67491) - http://www.bohemiancoding.com/sketch -->
    <title>ic-id</title>
    <desc>Created with Sketch.</desc>
    <defs>
        <path d="M22.2025781,3.75 L1.79742187,3.75 C0.804703125,3.75 0,4.55470312 0,5.54742187 L0,17.6767969 C0,18.6694688 0.804703125,19.4742187 1.79742187,19.4742187 L22.2025781,19.4742187 C23.19525,19.4742187 24,18.6695156 24,17.6767969 L24,5.54742187 C24,4.55470312 23.1952969,3.75 22.2025781,3.75 Z" id="path-1"></path>
        <filter x="-33.3%" y="-44.5%" width="166.7%" height="201.8%" filterUnits="objectBoundingBox" id="filter-2">
            <feOffset dx="0" dy="1" in="SourceAlpha" result="shadowOffsetOuter1"></feOffset>
            <feGaussianBlur stdDeviation="2.5" in="shadowOffsetOuter1" result="shadowBlurOuter1"></feGaussianBlur>
            <feColorMatrix values="0 0 0 0 0.164705882   0 0 0 0 0.188235294   0 0 0 0 0.321568627  0 0 0 0.14 0" type="matrix" in="shadowBlurOuter1"></feColorMatrix>
        </filter>
    </defs>
    <g id="Binary-Bot-Landing-Page" stroke="none" stroke-width="1" fill="none" fill-rule="evenodd">
        <g id="Binary-Bot-Landing-Page-1" transform="translate(-1274.000000, -34.000000)">
            <g id="Above-the-fold">
                <g id="language" transform="translate(1237.000000, 34.000000)">
                    <g id="Icon/Flag/Indonesia-IDR" transform="translate(42.000000, 0.000000)">
                        <g id="Shadow" fill-rule="nonzero">
                            <use fill="black" fill-opacity="1" filter="url(#filter-2)" xlink:href="#path-1"></use>
                            <use fill="#FFFFFF" xlink:href="#path-1"></use>
                        </g>
                        <g stroke-width="1" fill-rule="evenodd" transform="translate(0.000000, 3.750000)">
                            <path d="M0,13.9396406 C0,14.9323125 0.804703125,15.7370625 1.79742187,15.7370625 L22.2025781,15.7370625 C23.19525,15.7370625 24,14.9323594 24,13.9396406 L24,7.875 L0,7.875 L0,13.9396406 Z" id="white" fill="#FFFFFF" fill-rule="nonzero"></path>
                            <path d="M22.2025781,0.0129375 L1.79742187,0.0129375 C0.804703125,0.0129375 0,0.817640625 0,1.81035937 L0,7.875 L24,7.875 L24,1.81035937 C24,0.817640625 23.1952969,0.0129375 22.2025781,0.0129375 Z" id="red" fill="#F44336" fill-rule="nonzero"></path>
                        </g>
                    </g>
                </g>
            </g>
        </g>
    </g>
</svg>