<?xml version="1.0" encoding="UTF-8"?>
<svg width="70px" height="50px" viewBox="0 0 70 50" version="1.1" xmlns="http://www.w3.org/2000/svg" xmlns:xlink="http://www.w3.org/1999/xlink">
    <!-- Generator: Sketch 53.2 (72643) - https://sketchapp.com -->
    <title>ic-intuitive-interface</title>
    <desc>Created with Sketch.</desc>
    <g id="Binary-Bot-Landing-Page" stroke="none" stroke-width="1" fill="none" fill-rule="evenodd">
        <g id="Binary-Bot-Landing-Page-1" transform="translate(-1085.000000, -2118.000000)">
            <g id="Why-use-Binary-Bot-for-binary-options-trading?" transform="translate(0.000000, 1918.000000)">
                <g id="row-1" transform="translate(135.000000, 190.000000)">
                    <g id="ic-intuitive-interface" transform="translate(950.000000, 0.000000)">
                        <g>
                            <rect id="bg" x="0" y="0" width="70" height="70"></rect>
                            <path d="M45.6,55.61 L9.94,55.61 C6.5,55.61 0,55.02 0,52.8 L0,49.91 L30.65,49.91 L30.7,50.36 C30.77,51.02 30.93,51.26 30.98,51.29 L39.04,51.28 C39.06,51.25 39.22,51.01 39.3,50.36 L39.35,49.91 L43.86,49.91 L43.86,50.94 L40.21,50.94 C39.97,52.13 39.39,52.32 39.05,52.32 L30.97,52.32 C30.63,52.32 30.05,52.13 29.81,50.94 L0.99,50.94 L0.99,52.8 C0.99,53.33 4.04,54.58 9.94,54.58 L45.6,54.58 L45.6,55.61 Z" id="Shape" fill="#E98024" fill-rule="nonzero"></path>
                            <path d="M61.95,55.56 L61.9,54.53 C66.89,54.29 69.01,53.19 69.01,52.8 L69.01,50.94 L57.98,50.94 L57.98,49.91 L70,49.91 L70,52.8 C70,55.06 63.3,55.5 61.95,55.56 Z" id="Shape" fill="#E98024" fill-rule="nonzero"></path>
                            <rect id="Shape" fill="#E98024" fill-rule="nonzero" x="47.89" y="54.58" width="5.41" height="1.03"></rect>
                            <path d="M44.13,50.94 L39.63,50.94 L30.14,50.94 L4.91,50.94 L4.91,12.7 C4.91,11.21 6.1,10 7.56,10 L62.43,10 C63.89,10 65.08,11.21 65.08,12.7 L65.08,50.42 L64.1,50.42 L64.1,12.7 C64.1,11.78 63.35,11.03 62.43,11.03 L7.56,11.03 C6.64,11.03 5.89,11.78 5.89,12.7 L5.89,49.9 L30.21,49.9 L39.77,49.9 L44.13,49.9 L44.13,50.94 Z M62.92,48.24 L55.5,48.24 L55.5,47.21 L61.93,47.21 L61.93,13.45 L8.05,13.45 L8.05,47.21 L42.94,47.21 L42.94,48.24 L7.07,48.24 L7.07,12.42 L62.93,12.42 L62.93,48.24 L62.92,48.24 Z" id="Shape" fill="#E98024" fill-rule="nonzero"></path>
                            <path d="M57.66,60 C57.65,60 57.64,60 57.63,60 C57.32,59.99 57.04,59.86 56.83,59.62 L49.31,51.34 L48.07,56.76 C47.98,57.14 47.72,57.46 47.38,57.6 C47.1,57.72 46.79,57.71 46.51,57.59 C46.23,57.46 46.01,57.22 45.89,56.92 L42.94,48.75 C42.94,48.75 42.94,48.75 42.94,48.75 L37.9,34.72 C37.87,34.63 37.85,34.53 37.83,34.43 C37.76,33.77 38.21,33.17 38.84,33.09 C39.04,33.06 39.24,33.1 39.42,33.18 L59.96,42.5 C60.31,42.65 60.58,42.98 60.65,43.39 C60.77,44.04 60.36,44.68 59.74,44.8 L54.57,45.92 L56.18,47.7 C56.18,47.7 56.18,47.7 56.18,47.7 L62.11,54.23 C62.54,54.72 62.52,55.48 62.07,55.93 L58.45,59.65 C58.23,59.88 57.95,60 57.66,60 Z M49.04,49.78 C49.17,49.78 49.3,49.84 49.4,49.94 L57.55,58.92 C57.59,58.97 57.63,58.98 57.67,58.98 C57.7,58.98 57.74,58.97 57.78,58.93 L61.4,55.21 C61.47,55.14 61.47,55.02 61.41,54.95 L55.48,48.43 C55.48,48.43 55.48,48.43 55.48,48.43 L53.27,45.98 C53.15,45.84 53.1,45.65 53.16,45.47 C53.21,45.29 53.36,45.16 53.53,45.12 L59.57,43.81 C59.67,43.79 59.72,43.7 59.71,43.6 C59.7,43.54 59.66,43.49 59.61,43.47 L39.05,34.14 C38.87,34.12 38.82,34.23 38.83,34.33 L43.88,48.4 L43.88,48.4 L46.83,56.57 C46.85,56.63 46.89,56.65 46.92,56.66 C46.95,56.67 46.99,56.68 47.04,56.66 C47.09,56.64 47.13,56.59 47.14,56.54 L48.59,50.19 C48.63,50.01 48.77,49.86 48.94,49.81 C48.95,49.79 48.99,49.78 49.04,49.78 Z M34.95,44.58 C34.94,44.58 34.94,44.58 34.95,44.58 C34.67,44.57 34.45,44.34 34.46,44.06 L34.61,36.25 C34.62,35.97 34.84,35.76 35.11,35.75 C35.38,35.76 35.6,35.99 35.59,36.27 L35.44,44.08 C35.43,44.35 35.21,44.58 34.95,44.58 Z M34.95,25.51 C34.94,25.51 34.94,25.51 34.95,25.51 C34.67,25.5 34.45,25.27 34.46,24.99 L34.61,17.18 C34.62,16.9 34.84,16.69 35.11,16.68 C35.38,16.69 35.6,16.92 35.59,17.2 L35.44,25 C35.43,25.28 35.21,25.51 34.95,25.51 Z M24.73,40.05 C24.6,40.05 24.47,40 24.38,39.9 C24.19,39.7 24.19,39.37 24.39,39.17 L29.71,33.75 C29.9,33.55 30.22,33.56 30.41,33.76 C30.6,33.96 30.6,34.29 30.4,34.49 L25.08,39.91 C24.98,40 24.85,40.05 24.73,40.05 Z M47.72,30.56 L47.6,30.56 C43.12,30.48 40.33,30.43 40.16,30.43 C39.89,30.48 39.67,30.3 39.62,30.02 C39.57,29.74 39.78,29.47 40.05,29.41 C40.12,29.39 40.15,29.39 47.62,29.53 L47.73,29.53 C48,29.54 48.22,29.77 48.22,30.05 C48.21,30.34 47.99,30.56 47.72,30.56 Z M28.96,30.19 L28.95,30.19 C28.94,30.19 21.5,30.06 21.33,30.06 C21.07,30.06 20.85,29.84 20.84,29.57 C20.83,29.3 21.02,29.06 21.28,29.03 C21.32,29.03 21.33,29.02 28.96,29.15 C29.23,29.16 29.45,29.39 29.45,29.67 C29.45,29.96 29.23,30.19 28.96,30.19 Z M38.89,27.52 C38.76,27.52 38.64,27.47 38.54,27.37 C38.35,27.17 38.35,26.84 38.55,26.64 L43.85,21.2 C44.04,21 44.36,21 44.55,21.21 C44.74,21.41 44.74,21.74 44.54,21.94 L39.24,27.38 C39.14,27.47 39.02,27.52 38.89,27.52 Z M31.34,26.47 C31.2,26.47 31.07,26.41 30.97,26.3 C30.81,26.12 25.78,20.59 25.78,20.59 C25.59,20.38 25.6,20.06 25.8,19.86 C26,19.67 26.31,19.68 26.5,19.88 C31.68,25.58 31.7,25.61 31.72,25.63 C31.89,25.85 31.86,26.17 31.65,26.35 C31.56,26.43 31.45,26.47 31.34,26.47 Z" id="Shape" fill="#E98024" fill-rule="nonzero"></path>
                        </g>
                    </g>
                </g>
            </g>
        </g>
    </g>
</svg>