<?xml version="1.0" encoding="UTF-8"?>
<svg width="70px" height="70px" viewBox="0 0 70 70" version="1.1" xmlns="http://www.w3.org/2000/svg" xmlns:xlink="http://www.w3.org/1999/xlink">
    <!-- Generator: Sketch 53.2 (72643) - https://sketchapp.com -->
    <title>ic-incredibly-reliable</title>
    <desc>Created with Sketch.</desc>
    <g id="Binary-Bot-Landing-Page" stroke="none" stroke-width="1" fill="none" fill-rule="evenodd">
        <g id="Binary-Bot-Landing-Page-1" transform="translate(-284.000000, -2372.000000)">
            <g id="Why-use-Binary-Bot-for-binary-options-trading?" transform="translate(0.000000, 1918.000000)">
                <g id="row-2" transform="translate(135.000000, 454.000000)">
                    <g id="ic-incredibly-reliable" transform="translate(149.000000, 0.000000)">
                        <g>
                            <rect id="bg" x="1" y="0" width="70" height="70"></rect>
                            <path d="M30.5027723,70 C30.1827723,70 29.8827723,69.94 29.5927723,69.83 C16.5327723,64.92 7.28277228,53.77 2.83277228,37.57 C-0.447227718,25.62 0.0127722817,15.12 0.0327722817,14.68 C0.102772282,13.34 1.21277228,12.29 2.57277228,12.29 L2.69277228,12.29 C17.1427723,12.89 29.0427723,0.89 29.1527723,0.78 C29.6527723,0.28 30.3127723,0 30.9927723,0 C31.7827723,0.02 32.4727723,0.33 32.9427723,0.86 C41.7327723,10.7 59.6227723,13.3 59.8027723,13.32 C61.0827723,13.5 62.0227723,14.59 62.0027723,15.85 C61.9227723,19.77 61.6227723,23.6 61.1127723,27.24 L60.1427723,27.1 C60.6527723,23.5 60.9427723,19.71 61.0227723,15.83 C61.0327723,15.06 60.4527723,14.4 59.6727723,14.29 C59.4927723,14.26 41.2727723,11.65 32.2127723,1.5 C31.9227723,1.19 31.4927723,1 31.0527723,0.99 C30.5927723,0.99 30.1727723,1.17 29.8827723,1.47 C29.7527723,1.59 17.5427723,13.92 2.66277228,13.28 C1.75277228,13.28 1.06277228,13.92 1.02277228,14.73 C1.00277228,15.16 0.542772282,25.5 3.78277228,37.31 C8.14277228,53.19 17.1827723,64.12 29.9327723,68.91 C30.2427723,69.03 30.5927723,69.04 30.9027723,68.96 C31.1327723,68.9 36.6027723,67.44 42.8427723,62.13 L43.4827723,62.88 C37.0727723,68.34 31.3927723,69.86 31.1527723,69.92 C30.9427723,69.97 30.7327723,70 30.5027723,70 Z" id="Shape" fill="#E98024"></path>
                            <path d="M50.0027723,64 C38.9727723,64 30.0027723,55.03 30.0027723,44 C30.0027723,38.66 32.0827723,33.64 35.8627723,29.86 C39.6427723,26.08 44.6627723,24 50.0027723,24 L50.0027723,24 C55.3427723,24 60.3627723,26.08 64.1427723,29.86 C67.9227723,33.64 70.0027723,38.66 70.0027723,44 L70.0027723,44 L70.0027723,44 C70.0027723,55.03 61.0327723,64 50.0027723,64 Z M30.9827723,44.49 C31.2427723,54.59 39.4127723,62.76 49.5127723,63.02 L49.5127723,60.73 C49.5127723,60.46 49.7327723,60.24 50.0027723,60.24 C50.2727723,60.24 50.4927723,60.46 50.4927723,60.73 L50.4927723,63.02 C60.5927723,62.76 68.7627723,54.59 69.0227723,44.49 L66.7327723,44.49 C66.4627723,44.49 66.2427723,44.27 66.2427723,44 C66.2427723,43.73 66.4627723,43.51 66.7327723,43.51 L69.0227723,43.51 C68.9027723,38.61 66.9327723,34.02 63.4527723,30.54 C59.9727723,27.06 55.3927723,25.1 50.4927723,24.97 L50.4927723,27.32 C50.4927723,27.59 50.2727723,27.81 50.0027723,27.81 C49.7327723,27.81 49.5127723,27.59 49.5127723,27.32 L49.5127723,24.97 C44.6127723,25.09 40.0227723,27.06 36.5427723,30.54 C33.0627723,34.02 31.1027723,38.61 30.9727723,43.51 L33.3227723,43.51 C33.5927723,43.51 33.8127723,43.73 33.8127723,44 C33.8127723,44.27 33.5927723,44.49 33.3227723,44.49 L30.9827723,44.49 Z M50.7227723,44.31 C50.3427723,44.31 49.9727723,44.17 49.6927723,43.92 L44.2527723,39.17 C44.0527723,38.99 44.0327723,38.68 44.2027723,38.48 C44.3827723,38.28 44.6927723,38.26 44.8927723,38.43 L50.3327723,43.18 C50.5527723,43.37 50.9127723,43.37 51.1227723,43.17 L62.3527723,32.91 C62.5527723,32.73 62.8627723,32.74 63.0427723,32.94 C63.2227723,33.14 63.2127723,33.45 63.0127723,33.63 L51.7827723,43.9 C51.4927723,44.17 51.1227723,44.31 50.7227723,44.31 Z" id="Shape" fill="#E98024" fill-rule="nonzero"></path>
                        </g>
                    </g>
                </g>
            </g>
        </g>
    </g>
</svg>