<?xml version="1.0" encoding="UTF-8"?>
<svg width="70px" height="70px" viewBox="0 0 70 70" version="1.1" xmlns="http://www.w3.org/2000/svg" xmlns:xlink="http://www.w3.org/1999/xlink">
    <!-- Generator: Sketch 53.2 (72643) - https://sketchapp.com -->
    <title>ic-multiple-assets</title>
    <desc>Created with Sketch.</desc>
    <g id="Binary-Bot-Landing-Page" stroke="none" stroke-width="1" fill="none" fill-rule="evenodd">
        <g id="Binary-Bot-Landing-Page-1" transform="translate(-685.000000, -2108.000000)">
            <g id="Why-use-Binary-Bot-for-binary-options-trading?" transform="translate(0.000000, 1918.000000)">
                <g id="row-1" transform="translate(135.000000, 190.000000)">
                    <g id="ic-multiple-assets" transform="translate(550.000000, 0.000000)">
                        <g>
                            <rect id="bg" x="0" y="0" width="70" height="70"></rect>
                            <path d="M17.5,35 C7.85,35 0,27.15 0,17.5 C0,7.85 7.85,0 17.5,0 C27.15,0 35,7.85 35,17.5 C35,27.15 27.15,35 17.5,35 Z M17.5,1 C8.4,1 1,8.4 1,17.5 C1,26.6 8.4,34 17.5,34 C26.6,34 34,26.6 34,17.5 C34,8.4 26.6,1 17.5,1 Z" id="Shape" fill="#E98024" fill-rule="nonzero"></path>
                            <path d="M8.15,14.25 L8.22,14.33 L8.22,14.33 C10.11,16.51 15.46,22.65 15.46,22.65 C15.55,22.76 15.69,22.82 15.83,22.82 C15.97,22.82 16.11,22.76 16.2,22.66 L18.93,19.7 L21.53,22.81 C21.63,22.92 21.77,22.99 21.91,22.99 L26.13,22.99 C26.41,22.99 26.63,22.77 26.63,22.49 C26.63,22.21 26.41,21.99 26.13,21.99 L22.14,21.99 L19.33,18.62 C19.24,18.51 19.1,18.44 18.96,18.44 C18.82,18.44 18.68,18.49 18.58,18.6 L15.46,21.98 L15.83,22.32 L16.21,21.99 C16.21,21.99 14.87,20.46 13.3,18.65 C11.73,16.84 9.92,14.77 8.98,13.68 L8.98,13.68 L8.91,13.6 C8.73,13.39 8.41,13.37 8.2,13.55 C8,13.73 7.97,14.04 8.15,14.25 L8.15,14.25 Z" id="Path" fill="#E98024" fill-rule="nonzero"></path>
                            <path d="M8.88,23.77 L12.94,18.93 L15.92,15.47 L21.53,15.47 C21.68,15.47 21.82,15.4 21.91,15.29 L26.51,9.84 C26.69,9.63 26.66,9.31 26.45,9.14 C26.24,8.96 25.92,8.99 25.75,9.2 L21.3,14.47 L15.7,14.47 C15.56,14.47 15.42,14.53 15.32,14.64 L12.19,18.27 L12.19,18.27 L8.13,23.11 C7.95,23.32 7.98,23.64 8.19,23.81 C8.39,24.01 8.71,23.98 8.88,23.77 L8.88,23.77 Z" id="Path" fill="#E98024" fill-rule="nonzero"></path>
                            <path d="M26.64,13.7 L26.64,9.5 C26.64,9.37 26.59,9.24 26.49,9.15 C26.4,9.05 26.27,9 26.14,9 L22.58,9 C22.3,9 22.08,9.22 22.08,9.5 C22.08,9.78 22.3,10 22.58,10 L25.64,10 L25.64,13.7 C25.64,13.98 25.86,14.2 26.14,14.2 C26.42,14.2 26.64,13.97 26.64,13.7 L26.64,13.7 Z" id="Path" fill="#E98024" fill-rule="nonzero"></path>
                            <path d="M24.43,25.82 L26.89,22.79 C27.04,22.6 27.04,22.33 26.88,22.14 L24.31,19.24 C24.13,19.03 23.81,19.01 23.6,19.2 C23.39,19.38 23.37,19.7 23.56,19.91 L25.85,22.49 L23.66,25.19 C23.49,25.4 23.52,25.72 23.73,25.89 C23.94,26.06 24.25,26.03 24.43,25.82 L24.43,25.82 Z" id="Path" fill="#E98024" fill-rule="nonzero"></path>
                            <path d="M52.5,35 C42.85,35 35,27.15 35,17.5 C35,7.85 42.85,0 52.5,0 C62.15,0 70,7.85 70,17.5 C70,27.15 62.15,35 52.5,35 Z M52.5,1 C43.4,1 36,8.4 36,17.5 C36,26.6 43.4,34 52.5,34 C61.6,34 69,26.6 69,17.5 C69,8.4 61.6,1 52.5,1 Z" id="Shape" fill="#E98024" fill-rule="nonzero"></path>
                            <path d="M52.82,25.5 L52.82,26 L57.45,26 L57.45,26 C57.75,25.99 58.05,25.89 58.29,25.71 L58.3,25.7 L58.42,25.6 L58.43,25.59 L58.44,25.58 C58.8,25.27 59,24.81 59,24.34 C59,24.16 58.97,23.97 58.91,23.79 L58.91,23.79 C58.8,23.47 58.59,23.2 58.32,22.99 L58.32,22.99 L58.21,22.91 L58.11,18.65 L57.61,18.66 L58.03,18.93 C58.18,18.69 58.32,18.46 58.45,18.22 L58.45,18.22 C58.61,17.94 58.69,17.62 58.69,17.31 C58.69,16.96 58.59,16.61 58.39,16.3 L58.29,16.14 L58.29,11.85 L58.54,11.28 L58.54,11.28 L58.54,11.28 C58.62,11.08 58.67,10.86 58.67,10.65 C58.67,10.33 58.57,10.02 58.39,9.75 L58.39,9.75 C58.08,9.28 57.55,9 56.99,9 L52.82,9 L52.17,9 L52.17,9 L48,9 C47.44,9 46.91,9.28 46.6,9.74 L46.6,9.74 C46.42,10.01 46.32,10.32 46.32,10.64 C46.32,10.85 46.36,11.07 46.45,11.27 L46.45,11.27 L46.7,11.85 L46.7,16.14 L46.6,16.3 L46.6,16.3 C46.4,16.61 46.3,16.96 46.3,17.31 C46.3,17.62 46.38,17.94 46.54,18.22 L46.54,18.22 C46.67,18.45 46.81,18.69 46.96,18.93 L47.38,18.66 L46.88,18.65 L46.78,22.91 L46.67,22.99 L46.67,22.99 C46.4,23.2 46.19,23.47 46.08,23.79 L46.08,23.79 C46.03,23.97 46,24.16 46,24.34 C46,24.81 46.2,25.26 46.56,25.59 L46.57,25.6 L46.69,25.7 L46.7,25.71 L46.71,25.72 C46.95,25.9 47.24,26.01 47.55,26.01 L47.55,26.01 L52.18,26.01 L52.83,26.01 L52.83,25.5 L52.83,25 L52.18,25 L47.56,25 L47.56,25.5 L47.57,25 C47.48,25 47.39,24.97 47.32,24.91 L47.01,25.31 L47.33,24.92 L47.21,24.82 L46.89,25.21 L47.22,24.84 C47.08,24.71 47,24.53 47,24.34 L47.04,24.11 L47.04,24.11 C47.08,24 47.16,23.88 47.29,23.78 L47.29,23.78 L47.58,23.55 L47.77,23.4 L47.88,18.52 L47.8,18.39 C47.66,18.17 47.53,17.94 47.4,17.73 L47.4,17.73 L47.4,17.73 C47.33,17.6 47.29,17.45 47.29,17.31 C47.29,17.15 47.34,16.99 47.43,16.84 L47.61,16.56 L47.69,16.44 L47.69,11.65 L47.36,10.89 L46.9,11.09 L47.36,10.9 L47.31,10.65 C47.31,10.53 47.34,10.42 47.42,10.31 L47.42,10.31 C47.55,10.12 47.76,10.01 48,10.01 L52.17,10.01 L52.82,10.01 L56.99,10.01 C57.22,10.01 57.44,10.12 57.57,10.31 L57.57,10.31 C57.64,10.42 57.68,10.53 57.68,10.65 L57.63,10.89 L57.63,10.89 L57.34,11.56 L57.3,11.65 L57.3,16.44 L57.56,16.85 L57.56,16.85 C57.65,16.99 57.7,17.15 57.7,17.32 C57.7,17.46 57.66,17.61 57.59,17.74 L57.59,17.74 C57.47,17.96 57.34,18.18 57.19,18.4 L57.11,18.53 L57.22,23.41 L57.7,23.78 L57.7,23.78 C57.83,23.88 57.92,24 57.95,24.11 L57.95,24.11 L58,24.34 C58,24.53 57.92,24.71 57.78,24.84 L58.11,25.21 L57.79,24.82 L57.67,24.92 L57.99,25.31 L57.68,24.91 L57.44,25 L57.45,25.5 L57.45,25 L52.83,25 L52.83,25.5 L52.82,25.5 Z" id="Path" fill="#E98024" fill-rule="nonzero"></path>
                            <path d="M52.49,15.36 C53.15,16.16 53.82,16.9 54.07,17.87 C54.26,18.58 53.61,19.43 52.82,19.6 C51.98,19.78 51.08,19.22 50.93,18.41 C50.89,18.19 50.87,17.93 50.94,17.73 C51.24,16.84 51.84,16.13 52.49,15.36 Z" id="Path" fill="#E98024" fill-rule="nonzero"></path>
                            <path d="M17.5,70 C7.85,70 0,62.15 0,52.5 C0,42.85 7.85,35 17.5,35 C27.15,35 35,42.85 35,52.5 C35,62.15 27.15,70 17.5,70 Z M17.5,36 C8.4,36 1,43.4 1,52.5 C1,61.6 8.4,69 17.5,69 C26.6,69 34,61.6 34,52.5 C34,43.4 26.6,36 17.5,36 Z" id="Shape" fill="#E98024" fill-rule="nonzero"></path>
                            <path d="M19.9,55.24 C19.9,54.7 19.73,54.27 19.38,53.93 C19.03,53.59 18.42,53.26 17.53,52.95 C16.52,52.63 15.78,52.24 15.29,51.79 C14.8,51.34 14.56,50.71 14.56,49.89 C14.56,49.11 14.8,48.47 15.29,47.97 C15.77,47.48 16.43,47.2 17.27,47.13 L17.27,45.66 L18.01,45.66 L18.01,47.13 C18.86,47.21 19.51,47.53 19.98,48.08 C20.45,48.63 20.67,49.39 20.66,50.34 L20.64,50.38 L19.83,50.38 C19.83,49.64 19.64,49.05 19.25,48.59 C18.86,48.13 18.32,47.9 17.62,47.9 C16.9,47.9 16.36,48.09 15.99,48.46 C15.62,48.84 15.43,49.31 15.43,49.88 C15.43,50.43 15.59,50.88 15.92,51.21 C16.25,51.55 16.88,51.87 17.82,52.18 C18.82,52.51 19.56,52.9 20.05,53.35 C20.53,53.79 20.77,54.42 20.77,55.23 C20.77,56.03 20.52,56.68 20.01,57.16 C19.51,57.64 18.83,57.92 17.98,57.98 L17.98,59.36 L17.25,59.36 L17.25,57.99 C16.37,57.94 15.65,57.66 15.07,57.15 C14.49,56.64 14.21,55.88 14.23,54.86 L14.25,54.82 L15.06,54.82 C15.06,55.68 15.3,56.3 15.79,56.68 C16.28,57.06 16.87,57.25 17.56,57.25 C18.28,57.25 18.84,57.06 19.26,56.68 C19.69,56.29 19.9,55.81 19.9,55.24 Z" id="Path" fill="#E98024" fill-rule="nonzero"></path>
                            <path d="M19.9,55.24 L20.02,55.24 C20.02,54.68 19.83,54.2 19.46,53.84 L19.46,53.84 C19.09,53.48 18.46,53.15 17.57,52.83 L17.57,52.83 L17.57,52.83 C16.57,52.51 15.84,52.13 15.38,51.7 C14.93,51.28 14.7,50.68 14.69,49.89 C14.69,49.13 14.92,48.53 15.38,48.06 L15.38,48.06 C15.84,47.59 16.47,47.32 17.28,47.25 L17.39,47.24 L17.39,45.78 L17.88,45.78 L17.88,47.24 L18,47.24 C18.82,47.32 19.44,47.62 19.88,48.15 C20.31,48.67 20.53,49.37 20.53,50.27 L20.53,50.33 L20.65,50.33 L20.54,50.27 L20.52,50.31 L20.63,50.37 L20.63,50.25 L19.82,50.25 L19.82,50.37 L19.94,50.37 C19.94,49.61 19.74,48.98 19.33,48.49 C18.92,48 18.33,47.75 17.61,47.76 C16.87,47.76 16.29,47.95 15.89,48.36 L15.89,48.36 C15.5,48.76 15.3,49.27 15.3,49.87 C15.3,50.45 15.47,50.93 15.83,51.29 L15.83,51.29 C16.19,51.65 16.83,51.98 17.78,52.29 L17.78,52.29 C18.77,52.62 19.5,53.01 19.96,53.43 L19.96,53.43 C20.41,53.85 20.64,54.43 20.64,55.22 C20.64,56 20.4,56.6 19.92,57.06 L19.92,57.06 C19.44,57.52 18.79,57.78 17.96,57.85 L17.84,57.86 L17.84,59.23 L17.36,59.23 L17.36,57.98 L17.36,57.86 L17.24,57.85 C16.39,57.8 15.69,57.53 15.13,57.04 C14.6,56.58 14.33,55.89 14.33,54.94 L14.33,54.85 L14.21,54.85 L14.32,54.91 L14.34,54.87 L14.23,54.81 L14.23,54.93 L15.04,54.93 L15.04,54.8 L14.92,54.8 C14.92,55.68 15.17,56.35 15.7,56.76 L15.7,56.76 C16.21,57.16 16.83,57.36 17.55,57.36 C18.29,57.36 18.89,57.16 19.34,56.76 L19.34,56.76 C19.78,56.36 20.01,55.84 20.01,55.24 L19.9,55.24 L19.78,55.24 C19.78,55.79 19.59,56.22 19.19,56.58 L19.19,56.58 L19.19,56.58 C18.8,56.93 18.27,57.11 17.57,57.11 C16.9,57.11 16.34,56.93 15.87,56.57 L15.87,56.57 L15.87,56.57 C15.42,56.22 15.19,55.65 15.18,54.81 L15.18,54.69 L14.24,54.69 L14.16,54.69 L14.1,54.8 L14.09,54.83 L14.09,54.86 L14.09,54.96 C14.09,55.96 14.38,56.73 14.97,57.25 C15.57,57.78 16.33,58.06 17.23,58.12 L17.24,58 L17.12,58 L17.12,59.5 L17.98,59.5 L18.1,59.5 L18.1,57.99 L17.98,57.99 L17.99,58.11 C18.86,58.04 19.57,57.76 20.1,57.25 L20.1,57.25 C20.63,56.74 20.9,56.06 20.89,55.23 C20.89,54.4 20.64,53.73 20.13,53.26 L20.13,53.26 C19.63,52.8 18.87,52.41 17.86,52.07 L17.86,52.07 C16.93,51.76 16.32,51.44 16.01,51.13 L16.01,51.13 C15.71,50.82 15.55,50.41 15.55,49.88 C15.55,49.34 15.72,48.9 16.07,48.55 L16.07,48.55 L16.07,48.55 C16.41,48.21 16.92,48.03 17.61,48.02 C18.28,48.02 18.78,48.24 19.14,48.66 C19.51,49.09 19.69,49.66 19.69,50.37 L19.69,50.49 L20.63,50.49 L20.7,50.49 L20.76,50.39 L20.78,50.36 L20.78,50.33 L20.78,50.27 C20.78,49.33 20.55,48.56 20.07,47.99 C19.58,47.41 18.89,47.07 18.02,46.99 L18.01,47.11 L18.13,47.11 L18.13,45.52 L17.26,45.52 L17.14,45.52 L17.14,47.11 L17.26,47.11 L17.26,47 C16.41,47.07 15.71,47.36 15.2,47.88 L15.2,47.88 C14.69,48.4 14.44,49.08 14.44,49.89 C14.44,50.73 14.69,51.41 15.21,51.88 C15.72,52.35 16.48,52.74 17.49,53.06 L17.53,52.94 L17.49,53.06 C18.36,53.37 18.97,53.7 19.29,54.02 L19.29,54.02 C19.61,54.34 19.77,54.73 19.78,55.24 L19.9,55.24 Z" id="Path" fill="#E98024" fill-rule="nonzero"></path>
                            <path d="M52.5,70 C42.85,70 35,62.15 35,52.5 C35,42.85 42.85,35 52.5,35 C62.15,35 70,42.85 70,52.5 C70,62.15 62.15,70 52.5,70 Z M52.5,36 C43.4,36 36,43.4 36,52.5 C36,61.6 43.4,69 52.5,69 C61.6,69 69,61.6 69,52.5 C69,43.4 61.6,36 52.5,36 Z" id="Shape" fill="#E98024" fill-rule="nonzero"></path>
                            <path d="M45.43,50.5 L45.43,51 L49.57,51 L49.57,50.96 L49.5,50.96 L49.57,51 L49.57,50.96 L49.5,50.96 L49.5,58 L45.5,58 L45.5,50.96 L45.43,50.96 L45.43,51 L45.5,50.96 L45.43,50.96 L45.43,51 L45.43,50.5 L45.43,50 C44.89,50 44.5,50.45 44.5,50.96 L44.5,58.5 C44.5,58.63 44.55,58.76 44.65,58.85 C44.74,58.95 44.87,59 45,59 L50,59 C50.13,59 50.26,58.95 50.35,58.85 C50.44,58.76 50.5,58.63 50.5,58.5 L50.5,50.96 C50.5,50.46 50.11,50.01 49.57,50 L45.43,50 L45.43,50.5 Z" id="Path" fill="#E98024" fill-rule="nonzero"></path>
                            <path d="M50.43,53.17 L50.43,53.67 L54.57,53.67 L54.57,53.63 L54.5,53.63 L54.57,53.67 L54.57,53.63 L54.5,53.63 L54.5,58 L50.5,58 L50.5,53.62 L50.43,53.62 L50.43,53.66 L50.5,53.62 L50.43,53.62 L50.43,53.66 L50.43,53.17 L50.43,52.67 C49.89,52.68 49.5,53.12 49.5,53.63 L49.5,58.51 C49.5,58.64 49.55,58.77 49.65,58.86 C49.74,58.95 49.87,59 50,59 L55,59 C55.13,59 55.26,58.95 55.35,58.85 C55.44,58.76 55.5,58.63 55.5,58.5 L55.5,53.62 C55.5,53.12 55.11,52.67 54.57,52.66 L50.43,52.66 L50.43,53.17 Z" id="Path" fill="#E98024" fill-rule="nonzero"></path>
                            <path d="M55.43,46.5 L55.43,47 L59.57,47 L59.57,46.96 L59.5,46.96 L59.57,47 L59.57,46.96 L59.5,46.96 L59.5,58 L55.5,58 L55.5,46.96 L55.43,46.96 L55.43,47 L55.5,46.96 L55.43,46.96 L55.43,47 L55.43,46.5 L55.43,46 C54.89,46 54.5,46.45 54.5,46.96 L54.5,58.5 C54.5,58.63 54.55,58.76 54.65,58.85 C54.74,58.95 54.87,59 55,59 L60,59 C60.13,59 60.26,58.95 60.35,58.85 C60.44,58.76 60.5,58.63 60.5,58.5 L60.5,46.96 C60.5,46.46 60.11,46.01 59.57,46 L55.43,46 L55.43,46.5 Z" id="Path" fill="#E98024" fill-rule="nonzero"></path>
                        </g>
                    </g>
                </g>
            </g>
        </g>
    </g>
</svg>