<?xml version="1.0" encoding="UTF-8"?>
<svg width="70px" height="70px" viewBox="0 0 70 70" version="1.1" xmlns="http://www.w3.org/2000/svg" xmlns:xlink="http://www.w3.org/1999/xlink">
    <!-- Generator: Sketch 53.2 (72643) - https://sketchapp.com -->
    <title>ic-revenue-opportunity</title>
    <desc>Created with Sketch.</desc>
    <g id="Binary-Bot-Landing-Page" stroke="none" stroke-width="1" fill="none" fill-rule="evenodd">
        <g id="Binary-Bot-Landing-Page-1" transform="translate(-1085.000000, -2372.000000)">
            <g id="Why-use-Binary-Bot-for-binary-options-trading?" transform="translate(0.000000, 1918.000000)">
                <g id="row-2" transform="translate(135.000000, 454.000000)">
                    <g id="ic-revenue-opportunity" transform="translate(950.000000, 0.000000)">
                        <g>
                            <rect id="bg" x="0" y="0" width="70" height="70"></rect>
                            <path d="M0.5,44.53 C0.26,44.53 0.04,44.35 0.01,44.1 C-0.03,43.83 0.16,43.57 0.43,43.54 C0.84,43.48 41.5,37.24 67.8,1.61 C67.96,1.39 68.28,1.34 68.49,1.51 C68.71,1.67 68.76,1.99 68.59,2.21 C42.04,38.17 2.24,44.29 0.57,44.52 C0.54,44.53 0.52,44.53 0.5,44.53 Z" id="Shape" fill="#E98024"></path>
                            <path d="M47.59,70 L37.54,70 C36.69,70 36,69.34 36,68.53 L36,35.66 C36,35.15 36.28,34.68 36.74,34.4 C40.33,32.33 43.67,30.18 46.66,28.02 C47.16,27.67 47.8,27.63 48.33,27.91 C48.83,28.17 49.13,28.65 49.13,29.2 L49.13,68.53 C49.13,69.34 48.44,70 47.59,70 Z M47.57,28.72 C47.46,28.72 47.34,28.75 47.23,28.83 C44.22,31.01 40.86,33.17 37.24,35.26 C37.09,35.35 37,35.5 37,35.66 L37,68.53 C37,68.79 37.25,69.01 37.54,69.01 L47.59,69.01 C47.88,69.01 48.13,68.79 48.13,68.53 L48.13,29.2 C48.13,28.96 47.95,28.84 47.87,28.79 C47.78,28.75 47.68,28.72 47.57,28.72 Z" id="Shape" fill="#E98024" fill-rule="nonzero"></path>
                            <path d="M64.21,70 L54.16,70 C53.31,70 52.62,69.34 52.62,68.53 L52.62,24.1 C52.62,23.67 52.82,23.26 53.15,22.99 C56.52,20.17 59.85,17 63.05,13.56 C63.49,13.09 64.17,12.94 64.79,13.18 C65.38,13.41 65.75,13.93 65.75,14.54 L65.75,68.53 C65.75,69.34 65.06,70 64.21,70 Z M64.2,14.07 C64.06,14.07 63.91,14.12 63.79,14.25 C60.56,17.72 57.2,20.92 53.79,23.77 C53.68,23.86 53.62,23.98 53.62,24.11 L53.62,68.53 C53.62,68.79 53.87,69.01 54.16,69.01 L64.21,69.01 C64.5,69.01 64.75,68.79 64.75,68.53 L64.75,14.54 C64.75,14.26 64.5,14.14 64.43,14.11 C64.36,14.08 64.28,14.07 64.2,14.07 Z" id="Shape" fill="#E98024" fill-rule="nonzero"></path>
                            <path d="M30.96,70 L20.91,70 C20.06,70 19.37,69.34 19.37,68.53 L19.37,43.51 C19.37,42.9 19.77,42.35 20.35,42.14 C23.74,40.83 27.08,39.38 30.25,37.82 C30.76,37.58 31.34,37.61 31.8,37.91 C32.23,38.19 32.49,38.64 32.49,39.14 L32.49,68.52 C32.5,69.34 31.81,70 30.96,70 Z M30.96,38.66 C30.87,38.66 30.78,38.68 30.69,38.72 C27.5,40.29 24.14,41.75 20.7,43.08 C20.49,43.15 20.37,43.32 20.37,43.51 L20.37,68.53 C20.37,68.79 20.62,69.01 20.91,69.01 L30.96,69.01 C31.25,69.01 31.5,68.79 31.5,68.53 L31.5,39.14 C31.5,38.92 31.34,38.8 31.27,38.75 C31.18,38.69 31.07,38.66 30.96,38.66 Z" id="Shape" fill="#E98024" fill-rule="nonzero"></path>
                            <path d="M14.34,70 L4.29,70 C3.44,70 2.75,69.34 2.75,68.53 L2.75,48.42 C2.75,47.72 3.26,47.12 3.97,46.98 C7.19,46.32 10.51,45.45 13.85,44.4 C14.32,44.24 14.86,44.33 15.26,44.62 C15.65,44.9 15.87,45.33 15.87,45.8 L15.87,68.53 C15.88,69.34 15.19,70 14.34,70 Z M14.34,45.32 C14.28,45.32 14.22,45.33 14.16,45.35 C10.78,46.42 7.42,47.29 4.16,47.96 C3.92,48.01 3.74,48.2 3.74,48.42 L3.74,68.53 C3.75,68.78 4,69 4.29,69 L14.34,69 C14.63,69 14.88,68.78 14.88,68.52 L14.88,45.8 C14.88,45.6 14.76,45.49 14.68,45.43 C14.58,45.36 14.46,45.32 14.34,45.32 Z" id="Shape" fill="#E98024" fill-rule="nonzero"></path>
                            <path d="M69,9.5 C68.72,9.5 68.5,9.28 68.5,9 L68.5,1.5 L61,1.5 C60.72,1.5 60.5,1.28 60.5,1 C60.5,0.72 60.72,0.5 61,0.5 L69,0.5 C69.28,0.5 69.5,0.72 69.5,1 L69.5,9 C69.5,9.28 69.28,9.5 69,9.5 Z" id="Shape" fill="#E98024"></path>
                            <path d="M12,24 C5.38,24 0,18.62 0,12 C0,5.38 5.38,0 12,0 C18.62,0 24,5.38 24,12 C24,18.62 18.62,24 12,24 Z M12,0.99 C5.94,0.99 1.01,5.93 1.01,12 C1.01,18.07 5.94,23.01 12,23.01 C18.06,23.01 22.99,18.07 22.99,12 C22.99,5.93 18.06,0.99 12,0.99 Z" id="Shape" fill="#E98024" fill-rule="nonzero"></path>
                            <path d="M14.95,15.24 C14.95,14.62 14.74,14.11 14.31,13.72 C13.88,13.32 13.12,12.94 12.04,12.58 C10.8,12.21 9.88,11.76 9.29,11.24 C8.69,10.72 8.4,9.98 8.4,9.03 C8.4,8.12 8.7,7.38 9.29,6.8 C9.89,6.23 10.7,5.9 11.72,5.82 L11.72,4.12 L12.63,4.12 L12.63,5.82 C13.67,5.91 14.48,6.28 15.05,6.92 C15.62,7.57 15.9,8.44 15.89,9.54 L15.86,9.58 L14.86,9.58 C14.86,8.73 14.62,8.03 14.14,7.5 C13.66,6.97 13,6.7 12.14,6.7 C11.26,6.7 10.59,6.92 10.13,7.35 C9.69,7.8 9.46,8.35 9.46,9.01 C9.46,9.65 9.66,10.17 10.07,10.56 C10.48,10.95 11.25,11.33 12.4,11.69 C13.63,12.08 14.55,12.53 15.14,13.04 C15.73,13.55 16.03,14.28 16.03,15.22 C16.03,16.15 15.72,16.9 15.1,17.46 C14.48,18.02 13.65,18.34 12.6,18.42 L12.6,20.02 L11.7,20.02 L11.7,18.43 C10.62,18.37 9.73,18.04 9.01,17.46 C8.3,16.87 7.95,15.99 7.98,14.8 L8,14.74 L9,14.74 C9,15.74 9.3,16.46 9.9,16.9 C10.5,17.34 11.23,17.56 12.08,17.56 C12.96,17.56 13.66,17.34 14.18,16.9 C14.7,16.47 14.95,15.91 14.95,15.24 Z" id="Shape" fill="#E98024"></path>
                        </g>
                    </g>
                </g>
            </g>
        </g>
    </g>
</svg>