<?xml version="1.0" encoding="UTF-8"?>
<svg width="70px" height="70px" viewBox="0 0 70 70" version="1.1" xmlns="http://www.w3.org/2000/svg" xmlns:xlink="http://www.w3.org/1999/xlink">
    <!-- Generator: Sketch 53.2 (72643) - https://sketchapp.com -->
    <title>ic-risk-free-trial-environment</title>
    <desc>Created with Sketch.</desc>
    <g id="Binary-Bot-Landing-Page" stroke="none" stroke-width="1" fill="none" fill-rule="evenodd">
        <g id="Binary-Bot-Landing-Page-1" transform="translate(-684.000000, -2372.000000)">
            <g id="Why-use-Binary-Bot-for-binary-options-trading?" transform="translate(0.000000, 1918.000000)">
                <g id="row-2" transform="translate(135.000000, 454.000000)">
                    <g id="ic-risk-free-trial-environment" transform="translate(549.000000, 0.000000)">
                        <g>
                            <rect id="bg" x="0" y="0" width="70" height="70"></rect>
                            <polygon id="Shape" fill="#E98024" fill-rule="nonzero" points="35.02 47.99 0.12 29.52 34.19 13.06 45.67 18.79 45.23 19.66 34.18 14.15 2.29 29.56 35.02 46.88 66.85 29.6 46.68 20.25 47.09 19.36 69.03 29.53"></polygon>
                            <path d="M35.4,70 L35.63,49.55 L70,30.86 L70,46.85 L69.78,47 L35.4,70 Z M36.61,50.13 L36.41,68.15 L69.02,46.33 L69.02,32.51 L36.61,50.13 Z" id="Shape" fill="#E98024" fill-rule="nonzero"></path>
                            <path d="M34.15,69.99 L0,46.84 L0,31.14 L34.38,49.55 L34.15,69.99 Z M0.99,46.33 L33.19,68.15 L33.4,50.12 L0.99,32.78 L0.99,46.33 Z" id="Shape" fill="#E98024" fill-rule="nonzero"></path>
                            <path d="M43.01,39.4 C41.98,35.56 40.61,33.32 38.69,32.37 C36.8,31.42 34.22,31.65 30.57,33.08 L30.21,32.17 C34.14,30.63 36.97,30.41 39.13,31.49 C41.31,32.58 42.85,35.01 43.96,39.14 L43.01,39.4 Z" id="Shape" fill="#E98024" fill-rule="nonzero"></path>
                            <path d="M42.25,35.36 L41.89,34.45 C44,33.63 45.1,32.06 45.11,32.05 L48.75,25.8 L44.24,23.2 L54.94,3.6 L57.8,5 L58.11,4.42 L51.71,1.3 L51.4,1.87 L54.26,3.27 L43.56,22.87 L38.7,20.89 L35.39,27.38 L35.39,27.38 C35.39,27.38 34.69,29.14 35.2,31.2 L34.24,31.43 C33.65,29.04 34.45,27.05 34.49,26.97 L38.22,19.64 L43.11,21.62 L52.9,3.69 L50.04,2.29 L51.3,0 L59.47,3.99 L58.22,6.29 L55.36,4.89 L45.57,22.83 L50.1,25.45 L45.95,32.57 C45.87,32.67 44.64,34.43 42.25,35.36 Z" id="Shape" fill="#E98024" fill-rule="nonzero"></path>
                        </g>
                    </g>
                </g>
            </g>
        </g>
    </g>
</svg>