<?xml version="1.0" encoding="UTF-8"?>
<svg width="50px" height="40px" viewBox="0 0 50 40" version="1.1" xmlns="http://www.w3.org/2000/svg" xmlns:xlink="http://www.w3.org/1999/xlink">
    <!-- Generator: Sketch 53.2 (72643) - https://sketchapp.com -->
    <title>ic-straightforward-tutorial</title>
    <desc>Created with Sketch.</desc>
    <g id="Binary-Bot-Landing-Page" stroke="none" stroke-width="1" fill="none" fill-rule="evenodd">
        <g id="Binary-Bot-Landing-Page-1" transform="translate(-735.000000, -3143.000000)">
            <g id="Experience-optimum-automated-trading-functionality-" transform="translate(0.000000, 2656.000000)">
                <g id="column-2" transform="translate(735.000000, 190.000000)">
                    <g id="ic-straightforward-tutorial" transform="translate(0.000000, 292.000000)">
                        <g>
                            <rect id="bg" x="0" y="0" width="50" height="50"></rect>
                            <path d="M48.8,37.98 L1.19,37.98 C0.52,37.98 0,37.52 0,36.93 L0,6.05 C0,5.46 0.52,5 1.19,5 L48.79,5 C49.47,5 50,5.46 50,6.05 L50,36.93 C50,37.52 49.47,37.98 48.8,37.98 Z M1.19,5.98 C1.05,5.98 0.98,6.04 0.98,6.06 L0.98,36.93 C0.99,36.94 1.06,37.01 1.19,37.01 L48.79,37.01 C48.92,37.01 49,36.95 49.01,36.93 L49.01,6.06 C49,6.04 48.92,5.98 48.79,5.98 L1.19,5.98 Z" id="Shape" fill="#E98024" fill-rule="nonzero"></path>
                            <path d="M48.8,37.98 L1.19,37.98 C0.52,37.98 0,37.52 0,36.93 L0,6.05 C0,5.46 0.52,5 1.19,5 L48.79,5 C49.47,5 50,5.46 50,6.05 L50,36.93 C50,37.52 49.47,37.98 48.8,37.98 Z M1.19,5.98 C1.05,5.98 0.98,6.04 0.98,6.06 L0.98,36.93 C0.99,36.94 1.06,37.01 1.19,37.01 L48.79,37.01 C48.92,37.01 49,36.95 49.01,36.93 L49.01,6.06 C49,6.04 48.92,5.98 48.79,5.98 L1.19,5.98 Z" id="Shape" fill="#E98024" fill-rule="nonzero"></path>
                            <path d="M49.51,43.15 L23.04,43.15 C22.77,43.15 22.55,42.93 22.55,42.66 C22.55,42.39 22.77,42.17 23.04,42.17 L49.51,42.17 C49.78,42.17 50,42.39 50,42.66 C50,42.93 49.78,43.15 49.51,43.15 Z" id="Path" fill="#E98024" fill-rule="nonzero"></path>
                            <path d="M49.51,43.15 L23.04,43.15 C22.77,43.15 22.55,42.93 22.55,42.66 C22.55,42.39 22.77,42.17 23.04,42.17 L49.51,42.17 C49.78,42.17 50,42.39 50,42.66 C50,42.93 49.78,43.15 49.51,43.15 Z" id="Path" fill="#E98024" fill-rule="nonzero"></path>
                            <path d="M16.18,43.02 L0.49,43.02 C0.22,43.02 0,42.8 0,42.53 C0,42.26 0.22,42.04 0.49,42.04 L16.18,42.04 C16.45,42.04 16.67,42.26 16.67,42.53 C16.67,42.8 16.45,43.02 16.18,43.02 Z" id="Path" fill="#E98024" fill-rule="nonzero"></path>
                            <path d="M16.18,43.02 L0.49,43.02 C0.22,43.02 0,42.8 0,42.53 C0,42.26 0.22,42.04 0.49,42.04 L16.18,42.04 C16.45,42.04 16.67,42.26 16.67,42.53 C16.67,42.8 16.45,43.02 16.18,43.02 Z" id="Path" fill="#E98024" fill-rule="nonzero"></path>
                            <path d="M19.61,45 C18.26,45 17.16,43.9 17.16,42.54 C17.16,41.18 18.26,40.08 19.61,40.08 C20.96,40.08 22.06,41.18 22.06,42.54 C22.06,43.9 20.96,45 19.61,45 Z M19.61,41.06 C18.8,41.06 18.14,41.73 18.14,42.54 C18.14,43.36 18.8,44.02 19.61,44.02 C20.42,44.02 21.08,43.35 21.08,42.54 C21.08,41.73 20.42,41.06 19.61,41.06 Z" id="Shape" fill="#E98024" fill-rule="nonzero"></path>
                            <path d="M19.61,45 C18.26,45 17.16,43.9 17.16,42.54 C17.16,41.18 18.26,40.08 19.61,40.08 C20.96,40.08 22.06,41.18 22.06,42.54 C22.06,43.9 20.96,45 19.61,45 Z M19.61,41.06 C18.8,41.06 18.14,41.73 18.14,42.54 C18.14,43.36 18.8,44.02 19.61,44.02 C20.42,44.02 21.08,43.35 21.08,42.54 C21.08,41.73 20.42,41.06 19.61,41.06 Z" id="Shape" fill="#E98024" fill-rule="nonzero"></path>
                            <path d="M20.26,27.93 C20.08,27.93 19.92,27.88 19.78,27.8 C19.5,27.64 19.32,27.33 19.32,26.99 L19.32,16 C19.32,15.67 19.5,15.35 19.79,15.19 C20.08,15.02 20.44,15.02 20.73,15.19 L30.21,20.69 C30.5,20.86 30.68,21.17 30.68,21.5 C30.68,21.83 30.5,22.15 30.21,22.31 L20.73,27.81 C20.6,27.89 20.44,27.93 20.26,27.93 Z M20.3,16.06 L20.3,26.99 L29.72,21.46 L20.3,16.06 Z" id="Shape" fill="#E98024" fill-rule="nonzero"></path>
                            <path d="M20.26,27.93 C20.08,27.93 19.92,27.88 19.78,27.8 C19.5,27.64 19.32,27.33 19.32,26.99 L19.32,16 C19.32,15.67 19.5,15.35 19.79,15.19 C20.08,15.02 20.44,15.02 20.73,15.19 L30.21,20.69 C30.5,20.86 30.68,21.17 30.68,21.5 C30.68,21.83 30.5,22.15 30.21,22.31 L20.73,27.81 C20.6,27.89 20.44,27.93 20.26,27.93 Z M20.3,16.06 L20.3,26.99 L29.72,21.46 L20.3,16.06 Z" id="Shape" fill="#E98024" fill-rule="nonzero"></path>
                        </g>
                    </g>
                </g>
            </g>
        </g>
    </g>
</svg>