<?xml version="1.0" encoding="UTF-8"?>
<svg width="50px" height="50px" viewBox="0 0 50 50" version="1.1" xmlns="http://www.w3.org/2000/svg" xmlns:xlink="http://www.w3.org/1999/xlink">
    <!-- Generator: Sketch 53.2 (72643) - https://sketchapp.com -->
    <title>ic-simple-drag-and-drop-interface</title>
    <desc>Created with Sketch.</desc>
    <g id="Binary-Bot-Landing-Page" stroke="none" stroke-width="1" fill="none" fill-rule="evenodd">
        <g id="Binary-Bot-Landing-Page-1" transform="translate(-235.000000, -2846.000000)">
            <g id="Experience-optimum-automated-trading-functionality-" transform="translate(0.000000, 2656.000000)">
                <g id="column-1" transform="translate(235.000000, 190.000000)">
                    <g id="ic-simple-drag-and-drop-interface">
                        <g>
                            <rect id="bg" x="0" y="0" width="50" height="50"></rect>
                            <path d="M17.03,32 L14.97,32 C14.7,32 14.49,31.78 14.49,31.52 C14.49,31.26 14.71,31.04 14.97,31.04 L17.03,31.04 C17.3,31.04 17.51,31.26 17.51,31.52 C17.51,31.78 17.29,32 17.03,32 Z" id="Path" fill="#E98024" fill-rule="nonzero"></path>
                            <path d="M10.79,32 L8.69,32 C8.42,32 8.21,31.78 8.21,31.52 C8.21,31.26 8.43,31.04 8.69,31.04 L10.78,31.04 C11.05,31.04 11.26,31.26 11.26,31.52 C11.26,31.78 11.05,32 10.79,32 Z M4.24,31.8 C4.2,31.8 4.15,31.79 4.11,31.78 C3.19,31.52 2.35,31.02 1.67,30.35 C1.48,30.16 1.48,29.85 1.67,29.66 C1.86,29.47 2.17,29.47 2.36,29.66 C2.92,30.22 3.62,30.63 4.38,30.84 C4.64,30.91 4.79,31.18 4.71,31.44 C4.65,31.66 4.46,31.8 4.24,31.8 Z M0.48,25.91 C0.22,25.91 0,25.7 0,25.43 L0,23.34 C0,23.07 0.22,22.86 0.48,22.86 C0.74,22.86 0.96,23.08 0.96,23.34 L0.96,25.43 C0.97,25.7 0.75,25.91 0.48,25.91 Z M0.48,19.64 C0.22,19.64 0,19.42 0,19.15 L0,17.06 C0,16.79 0.22,16.58 0.48,16.58 C0.74,16.58 0.96,16.8 0.96,17.06 L0.96,19.15 C0.97,19.42 0.75,19.64 0.48,19.64 Z M31.6,16.64 C31.33,16.64 31.12,16.42 31.12,16.16 L31.12,14.07 C31.12,13.8 31.34,13.59 31.6,13.59 C31.86,13.59 32.08,13.81 32.08,14.07 L32.08,16.16 C32.09,16.42 31.87,16.64 31.6,16.64 Z M0.48,13.37 C0.22,13.37 0,13.15 0,12.88 L0,10.79 C0,10.52 0.22,10.31 0.48,10.31 C0.74,10.31 0.96,10.53 0.96,10.79 L0.96,12.88 C0.97,13.15 0.75,13.37 0.48,13.37 Z M31.52,11.23 C31.25,11.23 31.04,11.01 31.04,10.75 L31.04,8.66 C31.04,8.39 31.26,8.18 31.52,8.18 C31.78,8.18 32,8.39 32,8.66 L32,10.75 C32,11.02 31.78,11.23 31.52,11.23 Z M0.48,7.09 C0.22,7.09 0,6.87 0,6.61 L0,5.66 C0,5.14 0.07,4.62 0.21,4.12 C0.28,3.86 0.55,3.71 0.81,3.78 C1.07,3.85 1.22,4.12 1.15,4.38 C1.03,4.8 0.97,5.23 0.97,5.66 L0.97,6.61 C0.97,6.87 0.75,7.09 0.48,7.09 Z M31.31,4.68 C31.1,4.68 30.91,4.54 30.85,4.33 C30.63,3.57 30.21,2.88 29.65,2.32 C29.46,2.13 29.46,1.82 29.65,1.63 C29.84,1.44 30.15,1.44 30.34,1.63 C31.02,2.31 31.52,3.14 31.79,4.06 C31.87,4.32 31.72,4.59 31.46,4.66 C31.4,4.68 31.35,4.68 31.31,4.68 Z M4.2,1.18 C3.99,1.18 3.8,1.04 3.73,0.83 C3.66,0.57 3.81,0.3 4.07,0.23 C4.59,0.08 5.12,0 5.66,0 L6.57,0 C6.84,0 7.05,0.22 7.05,0.48 C7.05,0.74 6.84,0.97 6.57,0.97 L5.66,0.97 C5.21,0.97 4.77,1.03 4.34,1.16 C4.29,1.17 4.25,1.18 4.2,1.18 Z M25.39,0.97 L23.3,0.97 C23.03,0.97 22.82,0.75 22.82,0.49 C22.82,0.23 23.03,0 23.3,0 L25.39,0 C25.66,0 25.87,0.22 25.87,0.48 C25.87,0.74 25.66,0.97 25.39,0.97 Z M19.12,0.97 L17.03,0.97 C16.76,0.97 16.55,0.75 16.55,0.49 C16.55,0.23 16.76,0 17.03,0 L19.12,0 C19.39,0 19.6,0.22 19.6,0.48 C19.6,0.74 19.39,0.97 19.12,0.97 Z M12.84,0.97 L10.75,0.97 C10.48,0.97 10.27,0.75 10.27,0.49 C10.27,0.23 10.48,0 10.75,0 L12.84,0 C13.11,0 13.32,0.22 13.32,0.48 C13.32,0.74 13.11,0.97 12.84,0.97 Z" id="Shape" fill="#E98024" fill-rule="nonzero"></path>
                            <path d="M44.34,50 L23.66,50 C20.54,50 18,47.46 18,44.34 L18,32.27 C18,32 18.22,31.79 18.48,31.79 L18.48,31.79 C18.75,31.79 18.96,32.01 18.96,32.27 L18.96,44.34 C18.96,46.92 21.06,49.03 23.65,49.03 L44.34,49.03 C46.92,49.03 49.03,46.93 49.03,44.34 L49.03,23.66 C49.03,21.08 46.93,18.97 44.34,18.97 L31.07,18.97 C30.8,18.97 30.59,18.75 30.59,18.49 C30.59,18.23 30.8,18 31.07,18 L44.34,18 C47.46,18 50,20.54 50,23.66 L50,44.35 C50,47.46 47.46,50 44.34,50 Z" id="Path" fill="#E98024" fill-rule="nonzero"></path>
                            <path d="M28.1,35.5 L22.37,35.5 C19.87,35.5 17.83,33.35 17.83,30.7 L17.89,28.23 L15.76,25.97 C15.4,25.59 15.2,25.08 15.2,24.54 C15.2,24 15.4,23.49 15.76,23.11 C16.12,22.73 16.62,22.52 17.15,22.52 C17.15,22.52 17.15,22.52 17.15,22.52 C17.68,22.52 18.18,22.74 18.54,23.11 L19.98,24.64 L20.45,24.97 L20.1,24.64 C20.13,24.61 20.14,24.57 20.14,24.53 C20.14,24.5 20.13,24.46 20.1,24.42 L17.5,21.66 C16.76,20.87 16.76,19.58 17.5,18.79 C17.87,18.4 18.36,18.18 18.89,18.18 C18.89,18.18 18.89,18.18 18.89,18.18 C19.42,18.18 19.91,18.4 20.28,18.79 L22.88,21.56 L23.35,21.89 L23,21.56 C23.03,21.53 23.04,21.49 23.04,21.45 C23.04,21.42 23.04,21.38 23,21.34 L21.27,19.5 C20.91,19.11 20.71,18.61 20.71,18.07 C20.71,17.53 20.91,17.02 21.27,16.64 C22.01,15.85 23.31,15.86 24.05,16.64 L25.78,18.48 L26.25,18.81 L25.9,18.48 C25.93,18.45 25.94,18.41 25.94,18.37 C25.94,18.34 25.93,18.3 25.9,18.26 L25.62,17.96 C24.88,17.17 24.88,15.88 25.62,15.09 C25.98,14.71 26.48,14.5 27.01,14.5 C27.01,14.5 27.01,14.5 27.01,14.5 C27.54,14.5 28.04,14.72 28.4,15.09 L34.18,21.23 C35.48,22.61 36.19,24.44 36.19,26.39 C36.19,28.34 35.48,30.17 34.18,31.55 L32.13,33.73 C31.06,34.87 29.63,35.5 28.1,35.5 Z M18.82,29.23 L18.78,30.72 C18.78,32.83 20.39,34.55 22.37,34.55 L28.1,34.55 C29.36,34.55 30.55,34.03 31.45,33.07 L33.5,30.89 C34.63,29.69 35.25,28.09 35.25,26.39 C35.25,24.69 34.63,23.09 33.5,21.89 L27.72,15.75 C27.54,15.56 27.29,15.46 27.03,15.46 C27.03,15.46 27.03,15.46 27.03,15.46 C26.77,15.46 26.51,15.57 26.34,15.75 C25.94,16.17 25.94,16.88 26.34,17.31 L26.62,17.61 C26.81,17.82 26.92,18.09 26.92,18.37 C26.92,18.66 26.81,18.93 26.62,19.13 C26.22,19.56 25.51,19.56 25.1,19.13 L23.37,17.29 C23,16.9 22.35,16.89 21.98,17.29 C21.79,17.5 21.68,17.77 21.68,18.07 C21.68,18.37 21.79,18.64 21.98,18.85 L23.71,20.69 C23.9,20.89 24.01,21.17 24.01,21.45 C24.01,21.74 23.9,22.01 23.71,22.21 C23.51,22.42 23.24,22.54 22.95,22.54 C22.95,22.54 22.95,22.54 22.95,22.54 C22.66,22.54 22.39,22.42 22.19,22.21 L19.59,19.45 C19.4,19.25 19.16,19.14 18.9,19.14 L18.9,19.14 C18.64,19.14 18.39,19.25 18.21,19.45 C17.81,19.87 17.81,20.59 18.21,21.01 L20.81,23.77 C21,23.98 21.11,24.25 21.11,24.53 C21.11,24.82 21,25.09 20.81,25.29 C20.41,25.72 19.7,25.72 19.29,25.29 L17.85,23.76 C17.67,23.57 17.42,23.47 17.16,23.47 C17.16,23.47 17.16,23.47 17.16,23.47 C16.9,23.47 16.64,23.58 16.47,23.76 C16.28,23.97 16.17,24.24 16.17,24.54 C16.17,24.84 16.28,25.11 16.47,25.32 L20.81,29.94 C20.99,30.13 20.98,30.43 20.79,30.61 C20.6,30.79 20.3,30.78 20.12,30.59 L18.82,29.23 Z" id="Shape" fill="#E98024" fill-rule="nonzero"></path>
                        </g>
                    </g>
                </g>
            </g>
        </g>
    </g>
</svg>