<?xml version="1.0" encoding="UTF-8"?>
<svg width="70px" height="70px" viewBox="0 0 70 70" version="1.1" xmlns="http://www.w3.org/2000/svg" xmlns:xlink="http://www.w3.org/1999/xlink">
    <!-- Generator: Sketch 52.6 (67491) - http://www.bohemiancoding.com/sketch -->
    <title>ic-turnover</title>
    <desc>Created with Sketch.</desc>
    <g id="Binary-Bot-Landing-Page" stroke="none" stroke-width="1" fill="none" fill-rule="evenodd">
        <g id="Binary-Bot-Landing-Page-1" transform="translate(-935.000000, -1670.000000)" fill-rule="nonzero">
            <g id="The-pioneer-of-automated-binary-trading" transform="translate(0.000000, 1589.000000)">
                <g id="ic-turnover" transform="translate(935.000000, 81.000000)">
                    <circle id="circle" fill="#F2F3F8" cx="35" cy="35" r="35"></circle>
                    <path d="M26.5004296,39.4407682 C26.5320997,37.2589384 28.3106388,35.5 30.5,35.5 C32.5398088,35.5 34.2230041,37.0268442 34.4690531,39 L37.799086,39 L26.4948389,27.2122679 L19.2071068,34.5 L24.8535534,40.1464466 C24.8795694,40.1724626 24.9021191,40.2006323 24.9212026,40.2303817 L26.5004296,39.4407682 Z M27.5414792,39 L33.4585208,39 C33.2204817,37.5811433 31.9864981,36.5 30.5,36.5 C29.0135019,36.5 27.7795183,37.5811433 27.5414792,39 Z M46.1508291,41.1368782 L50.1715729,38.1213203 L52.7928932,35.5 L45.5,28.2071068 L36.9918084,36.7152984 L38.6429094,38.4365488 C39.1086291,36.743608 40.6590845,35.5 42.5,35.5 C44.709139,35.5 46.5,37.290861 46.5,39.5 C46.5,40.0831941 46.3751921,40.6372377 46.1508291,41.1368782 Z M42.5404981,42.4997322 C44.1786858,42.4780582 45.5,41.1433338 45.5,39.5 C45.5,37.8431458 44.1568542,36.5 42.5,36.5 C40.8986034,36.5 39.5902661,37.754736 39.5044758,39.3347201 L42.5404981,42.4997322 Z M51.2071068,38.5 L53.8535534,41.1464466 C54.0595018,41.352395 54.046533,41.690082 53.8253957,41.8796283 L39.8253957,53.8796283 C39.7347741,53.9573039 39.6193556,54 39.5,54 L35.5,54 L35.3076923,53.9615385 L23.4,49 L15.5,49 C15.2238576,49 15,48.7761424 15,48.5 C15,48.2238576 15.2238576,48 15.5,48 L23.5,48 L23.6923077,48.0384615 L35.6,53 L39.315038,53 L52.7646523,41.4717591 L50.4530818,39.1601886 L38.8,47.9 C38.6484912,48.0136316 38.4457852,48.0319096 38.2763932,47.9472136 L30.2763932,43.9472136 C29.8044825,43.7112582 29.9723878,43 30.5,43 L38,43 L38,40 L27.618034,40 L23.7236068,41.9472136 C23.6541791,41.9819275 23.5776225,42 23.5,42 L15.5,42 C15.2238576,42 15,41.7761424 15,41.5 C15,41.2238576 15.2238576,41 15.5,41 L23.381966,41 L23.9892508,40.6963576 L18.1464466,34.8535534 C17.9511845,34.6582912 17.9511845,34.3417088 18.1464466,34.1464466 L26.1464466,26.1464466 C26.3437127,25.9491806 26.664253,25.9515032 26.8586397,26.1516072 L36.2994104,35.9934828 L45.1464466,27.1464466 C45.3417088,26.9511845 45.6582912,26.9511845 45.8535534,27.1464466 L53.8535534,35.1464466 C54.0488155,35.3417088 54.0488155,35.6582912 53.8535534,35.8535534 L51.2071068,38.5 Z M39,40.2522773 L39,43.5 C39,43.7761424 38.7761424,44 38.5,44 L32.618034,44 L38.4472136,46.9145898 L42.4849545,43.8862841 L39,40.2522773 Z M38.0064447,24.2384211 C38.0064447,23.9478933 37.8909786,23.7031589 37.660043,23.5042105 C37.4291073,23.3052622 37.039745,23.125264 36.4919441,22.9642105 C35.7293195,22.7589463 35.1734711,22.4913174 34.8243824,22.1613158 C34.4752936,21.8313141 34.3007519,21.4121078 34.3007519,20.9036842 C34.3007519,20.3857869 34.4717133,19.9610543 34.8136412,19.6294737 C35.1555692,19.2978931 35.6254893,19.1005266 36.2234157,19.0373684 L36.2234157,18 L37.0236305,18 L37.0236305,19.0421053 C37.6251373,19.1147372 38.0932672,19.3373666 38.4280344,19.71 C38.7628015,20.0826334 38.9301826,20.5926283 38.9301826,21.24 L37.9419979,21.24 C37.9419979,20.7947346 37.8220563,20.4410539 37.5821697,20.1789474 C37.3422831,19.9168408 37.018262,19.7857895 36.6100967,19.7857895 C36.1840294,19.7857895 35.8582181,19.8828938 35.6326531,20.0771053 C35.407088,20.2713168 35.2943072,20.5421035 35.2943072,20.8894737 C35.2943072,21.2115806 35.4133536,21.4681569 35.6514501,21.6592105 C35.8895465,21.8502641 36.2815941,22.0239466 36.8276047,22.1802632 C37.3736153,22.3365797 37.7996762,22.5086833 38.1058002,22.6965789 C38.4119242,22.8844746 38.6374858,23.1031566 38.7824919,23.3526316 C38.927498,23.6021065 39,23.8942089 39,24.2289474 C39,24.7626342 38.8182976,25.1921036 38.4548872,25.5173684 C38.0914769,25.8426332 37.582173,26.0352629 36.9269603,26.0952632 L36.9269603,27 L36.132116,27 L36.132116,26.0952632 C35.4661621,26.0415787 34.944327,25.8323702 34.5665951,25.4676316 C34.1888631,25.1028929 34,24.6078979 34,23.9826316 L34.9935553,23.9826316 C34.9935553,24.4215811 35.1242379,24.7594725 35.3856069,24.9963158 C35.6469759,25.2331591 36.0175415,25.3515789 36.4973147,25.3515789 C36.9663468,25.3515789 37.3351222,25.2521063 37.603652,25.0531579 C37.8721818,24.8542095 38.0064447,24.5826333 38.0064447,24.2384211 Z M36.5,29 C32.9101491,29 30,26.0898509 30,22.5 C30,18.9101491 32.9101491,16 36.5,16 C40.0898509,16 43,18.9101491 43,22.5 C43,26.0898509 40.0898509,29 36.5,29 Z M36.5,28 C39.5375661,28 42,25.5375661 42,22.5 C42,19.4624339 39.5375661,17 36.5,17 C33.4624339,17 31,19.4624339 31,22.5 C31,25.5375661 33.4624339,28 36.5,28 Z" id="Combined-Shape" fill="#2A3052"></path>
                </g>
            </g>
        </g>
    </g>
</svg>