<?xml version="1.0" encoding="UTF-8"?>
<svg width="70px" height="70px" viewBox="0 0 70 70" version="1.1" xmlns="http://www.w3.org/2000/svg" xmlns:xlink="http://www.w3.org/1999/xlink">
    <!-- Generator: Sketch 52.6 (67491) - http://www.bohemiancoding.com/sketch -->
    <title>ic-users</title>
    <desc>Created with Sketch.</desc>
    <g id="Binary-Bot-Landing-Page" stroke="none" stroke-width="1" fill="none" fill-rule="evenodd">
        <g id="Binary-Bot-Landing-Page-1" transform="translate(-135.000000, -1670.000000)" fill-rule="nonzero">
            <g id="The-pioneer-of-automated-binary-trading" transform="translate(0.000000, 1589.000000)">
                <g id="ic-users" transform="translate(135.000000, 81.000000)">
                    <circle id="circle" fill="#F2F3F8" cx="35" cy="35" r="35"></circle>
                    <path d="M43.9719254,25.9802992 C43.9811651,25.975527 43.9905272,25.9710114 44,25.9667676 L44,25 C44,20.0294373 39.9705627,16 35,16 C30.0294373,16 26,20.0294373 26,25 L26,25.9667676 C26.0094728,25.9710114 26.0188349,25.975527 26.0280746,25.9802992 C28.0543609,25.8220697 29,24.7069727 29,22.5 C29,22.2238576 29.2238576,22 29.5,22 L35,22 L35,23 L29.9841906,23 C29.8749625,24.6801327 29.2009523,25.8508188 28,26.4742184 L28,30 C28,33.8659932 31.1340068,37 35,37 C38.8659932,37 42,33.8659932 42,30 L42,26.4742184 C40.7990477,25.8508188 40.1250375,24.6801327 40.0158094,23 L35,23 L35,22 L40.5,22 C40.7761424,22 41,22.2238576 41,22.5 C41,24.7069727 41.9456391,25.8220697 43.9719254,25.9802992 Z M43.9064856,26.9774869 C43.5851406,26.9522818 43.2828874,26.9059669 43,26.8388161 L43,28.9146471 C43.5825962,28.7087289 44,28.1531094 44,27.5 C44,27.3162385 43.9669559,27.1401948 43.9064856,26.9774869 Z M26.0935144,26.9774869 C26.0330441,27.1401948 26,27.3162385 26,27.5 C26,28.1531094 26.4174038,28.7087289 27,28.9146471 L27,26.8388161 C26.7171126,26.9059669 26.4148594,26.9522818 26.0935144,26.9774869 Z M25.0500091,27 L25,27 L25,25 C25,19.4771525 29.4771525,15 35,15 C40.5228475,15 45,19.4771525 45,25 L45,27 L44.9499909,27 C44.9827849,27.161555 45,27.3287671 45,27.5 C45,28.709479 44.1411202,29.7183558 43,29.9499909 L43,30 C43,32.9630013 41.3891708,35.5497733 38.9954642,36.9323643 C38.9984553,36.9544832 39,36.9770612 39,37 L39,38.2618386 C39.141464,38.2863514 39.281138,38.331552 39.4146385,38.3983022 L46.2681425,41.8250542 C46.6973824,42.0396742 46.9980171,42.4467213 47.076913,42.9200965 L48.7991305,53.2534015 C48.8127133,53.3348987 48.8195396,53.4173787 48.8195396,53.5 C48.8195396,54.3284271 48.1479667,55 47.3195396,55 L22.6804604,55 C22.5978391,55 22.5153591,54.9931737 22.4338619,54.9795909 C21.6167065,54.8433983 21.064677,54.070557 21.2008695,53.2534015 L22.923087,42.9200965 C23.0019829,42.4467213 23.3026176,42.0396742 23.7318575,41.8250542 L30.5853615,38.3983022 C30.718862,38.331552 30.858536,38.2863514 31,38.2618386 L31,37 C31,36.9770612 31.0015447,36.9544832 31.0045358,36.9323643 C28.6108292,35.5497733 27,32.9630013 27,30 L27,29.9499909 C25.8588798,29.7183558 25,28.709479 25,27.5 C25,27.3287671 25.0172151,27.161555 25.0500091,27 Z M29.5447214,40.0366563 L24.1790711,42.7194814 C24.0359911,42.7910214 23.9357796,42.9267038 23.909481,43.0844955 L22.1872635,53.4178005 C22.1418659,53.6901857 22.3258758,53.9477994 22.5982609,53.993197 C22.6254266,53.9977246 22.65292,54 22.6804604,54 L47.3195396,54 C47.595682,54 47.8195396,53.7761424 47.8195396,53.5 C47.8195396,53.4724596 47.8172642,53.4449662 47.8127365,53.4178005 L46.090519,43.0844955 C46.0642204,42.9267038 45.9640089,42.7910214 45.8209289,42.7194814 L40.5706172,40.0943256 L39.0658532,43.1038537 C38.7106697,43.8142207 37.8633318,44.1246072 37.1333335,43.8117508 L35.0720866,42.9283593 L33.0108398,43.8117508 C32.2808415,44.1246072 31.4335035,43.8142207 31.07832,43.1038537 L29.5447214,40.0366563 Z M30.4391486,39.5894427 L31.9727472,42.6566401 C32.0911417,42.8934291 32.3735877,42.9968912 32.6169205,42.8926058 L34.1663034,42.2285845 C34.1131531,42.1929583 34.0616789,42.1535291 34.0122431,42.1102728 C33.9621269,42.0664211 33.9149866,42.0192808 33.871135,41.9691647 L31.6324703,39.4106907 C31.4826384,39.2394544 31.2360872,39.1909734 31.0325751,39.2927294 L30.4391486,39.5894427 Z M35.8885525,42.1903057 L37.5272528,42.8926058 C37.7705855,42.9968912 38.0530315,42.8934291 38.171426,42.6566401 L39.67619,39.647112 L38.9674249,39.2927294 C38.7639128,39.1909734 38.5173616,39.2394544 38.3675297,39.4106907 L36.128865,41.9691647 C36.0554531,42.053064 35.9747589,42.126817 35.8885525,42.1903057 Z M38,37.418483 C37.0735686,37.7934929 36.0609004,38 35,38 C33.9390996,38 32.9264314,37.7934929 32,37.418483 L32,38.4372014 C32.1421203,38.5183127 32.2726541,38.6237372 32.385047,38.7521861 L34.6237117,41.31066 C34.6383289,41.3273654 34.6540423,41.3430789 34.6707477,41.3576961 C34.878566,41.5395371 35.1944473,41.5184784 35.3762883,41.31066 L37.614953,38.7521861 C37.7273459,38.6237372 37.8578797,38.5183127 38,38.4372014 L38,37.418483 Z M43.5,48 C43.7761424,48 44,48.2238576 44,48.5 L44,54 L43,54 L43,48.5 C43,48.2238576 43.2238576,48 43.5,48 Z M26.5,48 C26.7761424,48 27,48.2238576 27,48.5 L27,54 L26,54 L26,48.5 C26,48.2238576 26.2238576,48 26.5,48 Z" id="Combined-Shape" fill="#2A3052"></path>
                </g>
            </g>
        </g>
    </g>
</svg>