<?xml version="1.0" encoding="UTF-8"?>
<svg width="34px" height="26px" viewBox="0 0 34 26" version="1.1" xmlns="http://www.w3.org/2000/svg" xmlns:xlink="http://www.w3.org/1999/xlink">
    <!-- Generator: Sketch 52.6 (67491) - http://www.bohemiancoding.com/sketch -->
    <title>ic-uk</title>
    <desc>Created with Sketch.</desc>
    <defs>
        <path d="M22.2025781,3.75 L1.79742187,3.75 C0.804703125,3.75 0,4.55470312 0,5.54742187 L0,17.6767969 C0,18.6694688 0.804703125,19.4742187 1.79742187,19.4742187 L22.2025781,19.4742187 C23.19525,19.4742187 24,18.6695156 24,17.6767969 L24,5.54742187 C24,4.55470312 23.1952969,3.75 22.2025781,3.75 Z" id="path-1"></path>
        <filter x="-33.3%" y="-44.5%" width="166.7%" height="201.8%" filterUnits="objectBoundingBox" id="filter-2">
            <feOffset dx="0" dy="1" in="SourceAlpha" result="shadowOffsetOuter1"></feOffset>
            <feGaussianBlur stdDeviation="2.5" in="shadowOffsetOuter1" result="shadowBlurOuter1"></feGaussianBlur>
            <feColorMatrix values="0 0 0 0 0.164705882   0 0 0 0 0.188235294   0 0 0 0 0.321568627  0 0 0 0.14 0" type="matrix" in="shadowBlurOuter1"></feColorMatrix>
        </filter>
    </defs>
    <g id="Binary-Bot-Landing-Page" stroke="none" stroke-width="1" fill="none" fill-rule="evenodd">
        <g id="Binary-Bot-Landing-Page-1" transform="translate(-1232.000000, -34.000000)">
            <g id="Above-the-fold">
                <g id="language" transform="translate(1237.000000, 34.000000)">
                    <g id="Icon/Flag/United-Kingdom-GBP">
                        <g id="Shadow" fill-rule="nonzero">
                            <use fill="black" fill-opacity="1" filter="url(#filter-2)" xlink:href="#path-1"></use>
                            <use fill="#FFFFFF" xlink:href="#path-1"></use>
                        </g>
                        <g stroke-width="1" fill-rule="evenodd" transform="translate(0.000000, 3.750000)">
                            <path d="M22.2025781,0.0129375 L1.79742187,0.0129375 C0.804703125,0.0129375 0,0.817640625 0,1.81035937 L0,13.9396875 C0,14.9323594 0.804703125,15.7371094 1.79742187,15.7371094 L22.2025781,15.7371094 C23.19525,15.7371094 24,14.9324062 24,13.9396875 L24,1.81035937 C24,0.817640625 23.1952969,0.0129375 22.2025781,0.0129375 Z" id="blue" fill="#0D47A1" fill-rule="nonzero"></path>
                            <path d="M23.9751094,1.51321875 C23.8334531,0.662015625 23.094,0.012890625 22.2025781,0.012890625 L21.7349063,0.012890625 L14.0689688,5.03540625 L14.0689688,0.0129375 L9.93103125,0.0129375 L9.93103125,5.03545313 L2.26509375,0.0129375 L1.79742187,0.0129375 C0.906,0.0129375 0.166546875,0.662015625 0.024890625,1.51326562 L6.57698438,5.80607813 L0,5.80607813 L0,9.94401563 L6.57698438,9.94401563 L0.024890625,14.2367344 C0.166546875,15.0879375 0.906,15.7370625 1.79742187,15.7370625 L2.26509375,15.7370625 L9.93103125,10.7145469 L9.93103125,15.7370625 L14.0689687,15.7370625 L14.0689687,10.7145469 L21.7349063,15.7370625 L22.2025781,15.7370625 C23.094,15.7370625 23.8334531,15.0879844 23.9751094,14.2367344 L17.4230156,9.94392188 L24,9.94392188 L24,5.80598438 L17.4230156,5.80598438 L23.9751094,1.51321875 Z" id="white" fill="#FFFFFF" fill-rule="nonzero"></path>
                            <path d="M13.2413906,0.0129375 L13.2413906,6.63360937 L24,6.63360937 L24,9.11639062 L13.2413906,9.11639062 L13.2413906,15.7370625 L10.7586094,15.7370625 L10.7586094,9.11639062 L0,9.11639062 L0,6.63360937 L10.7586094,6.63360937 L10.7586094,0.0129375 L13.2413906,0.0129375 Z M1.16217187,15.6211875 C0.87721875,15.5135156 0.627046875,15.3354844 0.432375,15.1082813 L8.3881875,9.94396875 L9.90825,9.94396875 L1.16217187,15.6211875 Z M16.2369375,9.94396875 L23.7638906,14.82975 C23.6227969,15.0766875 23.4249844,15.2869688 23.1879375,15.4426406 L14.716875,9.94396875 L16.2369375,9.94396875 Z M0.189796875,1.00664063 C0.316359375,0.7539375 0.5004375,0.53503125 0.725390625,0.36759375 L9.10345312,5.80603125 L7.58339062,5.80603125 L0.189796875,1.00664063 Z M15.5890313,5.80603125 L14.0689688,5.80603125 L22.8235313,0.123140625 C23.1104531,0.22875 23.3625938,0.40575 23.5594219,0.632203125 L15.5890313,5.80603125 Z" id="red" fill="#F44336" fill-rule="nonzero"></path>
                        </g>
                    </g>
                </g>
            </g>
        </g>
    </g>
</svg>