<?xml version="1.0" encoding="UTF-8"?>
<svg width="220px" height="51px" viewBox="0 0 220 51" version="1.1" xmlns="http://www.w3.org/2000/svg" xmlns:xlink="http://www.w3.org/1999/xlink">
    <!-- Generator: Sketch 52.6 (67491) - http://www.bohemiancoding.com/sketch -->
    <title>logo</title>
    <desc>Created with Sketch.</desc>
    <defs>
        <polygon id="path-1" points="25.4806667 0.271333333 25.4806667 17.4546667 0.200933333 17.4546667 0.200933333 0.271333333 25.4806667 0.271333333"></polygon>
        <polygon id="path-3" points="0 51 219 51 219 0 0 0"></polygon>
    </defs>
    <g id="Binary-Bot-Landing-Page" stroke="none" stroke-width="1" fill="none" fill-rule="evenodd">
        <g id="Binary-Bot-Landing-Page-1" transform="translate(-160.000000, -20.000000)">
            <g id="Above-the-fold">
                <g id="logo" transform="translate(160.000000, 20.000000)">
                    <g>
                        <path d="M169.992795,22.0139042 C169.423173,22.5971964 168.80434,23.0786005 168.166632,23.4464917 C167.558584,23.7986552 166.83122,23.9812331 166.008806,23.9812331 C165.345481,23.9812331 164.731367,23.8499411 164.181293,23.5914599 C163.63122,23.3288759 163.148557,22.9732933 162.750158,22.5315504 C162.348388,22.0870721 162.034927,21.5578012 161.814493,20.9567299 C161.595408,20.3515557 161.484179,19.6985146 161.484179,19.0140182 L161.484179,18.9504236 C161.484179,18.288493 161.593385,17.6470767 161.814493,17.0398511 C162.034927,16.4360445 162.342321,15.9115602 162.723194,15.478023 C163.103392,15.0472211 163.563135,14.6964252 164.096356,14.4338411 C164.619465,14.178779 165.201222,14.0481708 165.823425,14.0481708 C166.703813,14.0481708 167.447356,14.2259621 168.038551,14.576758 C168.658732,14.9446492 169.245207,15.4281047 169.802022,16.0066102 L170.067622,16.2815029 L172.865178,13.2193899 L172.64407,12.9725335 C171.85671,12.0849447 170.918348,11.3628386 169.866063,10.8233104 C168.799621,10.2769441 167.449379,10 165.857805,10 C164.594523,10 163.414156,10.2434373 162.327491,10.7180033 C161.248241,11.1959883 160.301116,11.8517646 159.515778,12.6627664 C158.729766,13.4765034 158.106889,14.4482012 157.664672,15.5409338 C157.227175,16.6322988 157,17.802986 157,19.014702 L157,19.0782965 C157,20.2906963 157.227175,21.4538616 157.664672,22.5411237 C158.106889,23.6249668 158.729766,24.5809368 159.515778,25.3857843 C160.306509,26.1885803 161.247567,26.828629 162.314683,27.2949892 C163.384495,27.7620332 164.566884,28 165.825448,28 C167.466231,28 168.846134,27.6929681 169.926059,27.0932644 C170.984411,26.5003989 171.946366,25.7181172 172.769454,24.7724044 L173,24.5159746 L170.241542,21.7643126 L169.992795,22.0139042 Z" id="Fill-7" fill="#E68025"></path>
                        <path d="M183.013398,23.9846522 C182.357574,23.9846522 181.745292,23.854044 181.193971,23.5941952 C180.645999,23.3329788 180.158988,22.9726095 179.749684,22.5178741 C179.349758,22.0624549 179.02486,21.5318163 178.798437,20.9375831 C178.572683,20.3454014 178.456122,19.6991984 178.456122,19.0167534 L178.456122,18.9517912 C178.456122,18.2878091 178.561965,17.6436576 178.770971,17.036432 C178.977968,16.4387798 179.284779,15.9170307 179.673986,15.485545 C180.067882,15.0526916 180.546855,14.7005281 181.102866,14.4393116 C181.652177,14.1808305 182.275177,14.0502222 182.951768,14.0502222 C183.633048,14.0502222 184.256718,14.1808305 184.806029,14.4393116 C185.366059,14.7005281 185.848381,15.0567944 186.254336,15.5026403 C186.655601,15.9450671 186.978489,16.4763895 187.202233,17.076777 C187.428656,17.6833188 187.544548,18.3329408 187.544548,19.014702 L187.544548,19.0789804 C187.544548,19.7422786 187.441384,20.3823272 187.231708,20.977928 C187.019352,21.5653231 186.719241,22.0891236 186.326014,22.5356532 C185.930778,22.9760286 185.451805,23.3275083 184.902493,23.5921438 C184.344473,23.854044 183.713435,23.9846522 183.013398,23.9846522 M189.45642,12.6326786 C188.659918,11.8168902 187.699963,11.1665844 186.606029,10.7036432 C185.518794,10.237283 184.30495,10 183.013398,10 C181.721176,10 180.51604,10.2441211 179.422106,10.7193709 C178.326163,11.1973559 177.373576,11.8483456 176.577075,12.6620826 C175.778563,13.4758196 175.146855,14.4358926 174.689319,15.5176842 C174.231783,16.6049462 174,17.7804202 174,19.014702 L174,19.0789804 C174,20.292064 174.227093,21.4565969 174.668552,22.5411237 C175.11671,23.6256506 175.748418,24.5850397 176.549609,25.3857843 C177.345441,26.189948 178.302047,26.8306804 179.396651,27.3004597 C180.487235,27.762717 181.685002,28 182.951768,28 C184.24064,28 185.459174,27.7579303 186.563826,27.2792615 C187.669148,26.8046955 188.625084,26.1509706 189.424265,25.339285 C190.218757,24.5262318 190.857834,23.5668427 191.312021,22.4809482 C191.772907,21.3964214 192,20.229837 192,19.014702 L192,18.9517912 C192,17.7175094 191.772907,16.5454545 191.329438,15.4711849 C190.88195,14.4010181 190.255601,13.4436804 189.45642,12.6326786" id="Fill-9" fill="#E68025"></path>
                        <g id="Group-13" transform="translate(194.000000, 10.000000)">
                            <mask id="mask-2" fill="white">
                                <use xlink:href="#path-1"></use>
                            </mask>
                            <g id="Clip-12"></g>
                            <path d="M23.8816,1.98733333 C22.8209333,0.850666667 21.3256,0.271333333 19.4536,0.271333333 C18.1722667,0.271333333 17.0496,0.552666667 16.1056,1.10733333 C15.3282667,1.56466667 14.6342667,2.15466667 14.0236,2.86333333 C13.5902667,2.16133333 13.0262667,1.57466667 12.3162667,1.11733333 C11.4662667,0.556666667 10.4089333,0.273333333 9.18693333,0.273333333 C8.5476,0.273333333 7.95293333,0.356 7.4236,0.522 C6.89493333,0.684666667 6.40826667,0.914 5.99026667,1.19933333 C5.5756,1.48066667 5.19626667,1.798 4.8776,2.14333333 C4.7916,2.23266667 4.71493333,2.32333333 4.6376,2.414 L4.6376,0.608666667 L0.200933333,0.608666667 L0.200933333,17.4546667 L4.6376,17.4546667 L4.6376,8.04066667 C4.6376,6.87933333 4.9236,5.962 5.49293333,5.31933333 C6.0576,4.68266667 6.7876,4.37266667 7.7216,4.37266667 C8.6536,4.37266667 9.35426667,4.66266667 9.85293333,5.252 C10.3662667,5.85266667 10.6249333,6.752 10.6249333,7.92 L10.6249333,17.4526667 L15.0616,17.4526667 L15.0616,8.01333333 C15.0616,6.812 15.3496,5.89066667 15.9229333,5.28266667 C16.4969333,4.668 17.2229333,4.37266667 18.1476,4.37266667 C19.0782667,4.37266667 19.7802667,4.66266667 20.2782667,5.252 C20.7869333,5.85266667 21.0489333,6.764 21.0489333,7.952 L21.0489333,17.4526667 L25.4809333,17.4526667 L25.4809333,6.798 C25.4789333,4.73733333 24.9449333,3.12133333 23.8816,1.98733333" id="Fill-11" fill="#E68025" mask="url(#mask-2)"></path>
                        </g>
                        <mask id="mask-4" fill="white">
                            <use xlink:href="#path-3"></use>
                        </mask>
                        <g id="Clip-15"></g>
                        <path d="M155,25.5016949 C155,24.1186441 153.88256,23 152.504068,23 C151.122186,23 150,24.1186441 150,25.5016949 C150,26.8766102 151.122186,28 152.504068,28 C153.88256,27.9979661 155,26.8766102 155,25.5016949" id="Fill-17" fill="#FFFFFF" mask="url(#mask-4)"></path>
                        <g id="binary" mask="url(#mask-4)" fill="#FFFFFF">
                            <g transform="translate(57.000000, 4.000000)">
                                <path d="M37.8692679,6.27566744 C39.7883893,6.27566744 41.2963179,6.89073721 42.3485464,8.09794651 C43.3967893,9.29301628 43.9302107,10.9136442 43.9302107,12.9092488 L43.9302107,23.6567837 L39.5073964,23.6567837 L39.5073964,14.0456442 C39.5073964,12.8654116 39.234375,11.9535977 38.7036107,11.3371791 C38.1774964,10.7221093 37.439475,10.4246907 36.449025,10.4246907 C35.4751821,10.4246907 34.7059393,10.7349233 34.1067536,11.3769698 C33.5095607,12.0156442 33.2073107,12.9342023 33.2073107,14.1076907 L33.2073107,23.6581326 L28.7891464,23.6581326 L28.7891464,6.61692326 L33.2073107,6.61692326 L33.2073107,8.47494651 C33.2923393,8.37580698 33.3786964,8.27734186 33.4650536,8.18764419 C33.7932107,7.82480698 34.1871321,7.49501628 34.6222393,7.20703953 C35.0646536,6.91906279 35.5548964,6.69178372 36.0750321,6.5279 C36.6011464,6.36064419 37.2096321,6.27566744 37.8692679,6.27566744 Z" id="Fill-1"></path>
                                <path d="M53.399205,20.5010442 C52.5987407,20.5010442 51.9198407,20.312207 51.3837621,19.9433 C50.888205,19.5979977 50.6457407,19.1083698 50.6457407,18.4474395 L50.6457407,18.3840442 C50.6457407,17.7190674 50.9134479,17.2085326 51.4641407,16.8234395 C52.0513693,16.4140674 52.8963407,16.2083698 53.975805,16.2083698 C54.659355,16.2083698 55.3223121,16.2677186 55.933455,16.384393 C56.449605,16.4862302 56.9132764,16.6076256 57.3058693,16.7472302 L57.3058693,17.4270442 C57.3058693,17.8836256 57.2135336,18.3024395 57.0315193,18.6679744 C56.8415336,19.0402535 56.5685121,19.3659977 56.2330479,19.6317186 C55.8769907,19.9021605 55.4598193,20.1179744 54.980205,20.2724163 C54.4999264,20.423486 53.966505,20.5010442 53.399205,20.5010442 M54.1611407,6.40097442 C52.8126407,6.40097442 51.646155,6.52776512 50.6909121,6.78067209 C49.7423121,7.03425349 48.7983621,7.37348605 47.8955979,7.79027674 L47.6033121,7.92853256 L48.8295836,11.5960209 L49.1796621,11.4483233 C49.8891193,11.1488814 50.6038907,10.9054163 51.2907621,10.7226488 C51.9723193,10.5446023 52.7608264,10.4549047 53.6416693,10.4549047 C54.8214407,10.4549047 55.733505,10.7266953 56.3466407,11.2669047 C56.9179264,11.7659744 57.2135336,12.469393 57.2434264,13.4176256 C56.7398979,13.2712767 56.2224193,13.149207 55.6923193,13.0520907 C54.9968121,12.9259744 54.143205,12.8619047 53.1507621,12.8619047 C52.1935264,12.8619047 51.2854479,12.9738581 50.4610693,13.1977651 C49.6167621,13.4236953 48.8800693,13.7784395 48.2675979,14.2485093 C47.647155,14.7239744 47.1555836,15.3275791 46.8088264,16.044486 C46.461405,16.7627419 46.2860336,17.610486 46.2860336,18.5668116 L46.2860336,18.630207 C46.2860336,19.5062767 46.456755,20.2960209 46.7948764,20.971114 C47.1243621,21.6435093 47.5800621,22.2147419 48.1373979,22.6659279 C48.684105,23.1130674 49.3357693,23.4590442 50.0644907,23.6869977 C50.7832479,23.9115791 51.5564764,24.0269047 52.3649121,24.0269047 C53.6330336,24.0269047 54.7304336,23.7854628 55.6305407,23.3073 C56.2270693,22.9876256 56.7598264,22.6200674 57.2155264,22.2012535 L57.2155264,23.6856488 L61.5778907,23.6856488 L61.5778907,13.6556953 C61.5778907,11.3822302 60.960105,9.58557907 59.7384836,8.31834651 C58.5195193,7.04369535 56.6442407,6.40097442 54.1611407,6.40097442" id="Fill-3"></path>
                                <path d="M84.3468814,18.0549279 L80.0343386,6.61678837 L75.3378386,6.61678837 L82.1852957,23.2951605 C81.92091,23.8812302 81.6505457,24.2879047 81.3761957,24.4989977 C81.0898886,24.7208814 80.7331671,24.8287884 80.2787957,24.8287884 C79.9327029,24.8287884 79.5952457,24.7741605 79.2743957,24.6743465 C78.9369386,24.5684628 78.6087814,24.4241372 78.2819529,24.2508116 L77.9524671,24.0727651 L76.4133171,27.5102767 L76.7042743,27.6667419 C77.2841957,27.9884395 77.8993243,28.2399977 78.5230886,28.424114 C79.1521671,28.6055326 79.8782314,28.6986023 80.6760386,28.6986023 C81.3549386,28.6986023 81.9753814,28.6102535 82.5181029,28.4369279 C83.0674671,28.2561837 83.57631,27.9688814 84.0399814,27.5817651 C84.4910314,27.1953233 84.9088671,26.6962535 85.2722314,26.0852302 C85.6256314,25.4930907 85.9717243,24.7573 86.3032029,23.8947186 L92.8829529,6.61813721 L88.28211,6.61813721 L84.3468814,18.0549279 Z" id="Fill-5"></path>
                                <polygon id="Fill-14" points="22.0091143 23.6589419 26.4339214 23.6589419 26.4339214 6.61705814 22.0091143 6.61705814"></polygon>
                                <path d="M26.6694771,2.62888372 C26.6694771,1.25644186 25.57407,0.141627907 24.2195914,0.141627907 C22.8657771,0.141627907 21.7736914,1.25644186 21.7736914,2.62888372 C21.7736914,4.00132558 22.8657771,5.1147907 24.2195914,5.1147907 C25.57407,5.1147907 26.6694771,4.00132558 26.6694771,2.62888372" id="Fill-16"></path>
                                <path d="M15.2270893,16.6738535 C15.2270893,17.6490628 14.8756821,18.3612488 14.1602464,18.8454814 C13.4295321,19.3425279 12.3919179,19.5947605 11.092575,19.5947605 L4.87419643,19.5947605 L4.73270357,19.5947605 L4.73270357,19.4544814 L4.73270357,13.8952488 L4.73270357,13.7489 L4.87419643,13.7489 L10.8022821,13.7489 C12.3148607,13.7489 13.4527821,14.0092256 14.175525,14.5177372 C14.8783393,15.008714 15.2270893,15.6945977 15.2270893,16.607086 L15.2270893,16.6738535 Z M4.73270357,9.70845814 L4.73270357,4.34952791 L4.73270357,4.2079 L4.87419643,4.2079 L10.2223607,4.2079 C11.4492964,4.2079 12.3985607,4.4473186 13.0336179,4.93155116 C13.6553893,5.40296977 13.9563107,6.04636512 13.9563107,6.89883023 L13.9563107,6.9629 C13.9563107,7.9414814 13.6142036,8.64422558 12.901425,9.1163186 C12.1707107,9.60864419 11.1696321,9.85345814 9.92476071,9.85345814 L4.87419643,9.85345814 L4.73270357,9.85345814 L4.73270357,9.70845814 Z M18.341925,13.2538767 C17.9320607,12.799993 17.4311893,12.4034349 16.8711964,12.0702721 C16.5177964,11.8665977 16.1345036,11.6764116 15.7319464,11.5003884 L15.4828393,11.3965279 L15.7073679,11.2481558 C15.8986821,11.1240628 16.0899964,10.985807 16.277325,10.8381093 C16.691175,10.5191093 17.053875,10.1414349 17.3574536,9.71857442 C17.6597036,9.29773721 17.909475,8.79866744 18.0987964,8.24294651 C18.2887821,7.68250465 18.3844393,7.03438837 18.3844393,6.30534186 L18.3844393,6.24059767 C18.3844393,4.66785349 17.8476964,3.32508605 16.788825,2.25343488 C15.417075,0.851993023 13.3690821,0.141155814 10.7099464,0.141155814 L0.309889286,0.141155814 L0.309889286,23.6567837 L11.0288036,23.6567837 C12.2995821,23.6567837 13.4707179,23.5165047 14.5176321,23.2359465 C15.5784964,22.9553884 16.4972036,22.5426442 17.2498393,22.0017605 C18.0104464,21.4527837 18.6049821,20.7608302 19.0241464,19.9407372 C19.4340107,19.1213186 19.6492393,18.1629698 19.6492393,17.0973884 L19.6492393,17.0326442 C19.6492393,16.2199698 19.5356464,15.4956442 19.3077964,14.8805744 C19.0852607,14.2614581 18.7610893,13.711807 18.341925,13.2538767 L18.341925,13.2538767 Z" id="Fill-18"></path>
                                <path d="M73.7186421,6.30729767 C72.218685,6.24187907 70.9518921,6.60876279 69.9554636,7.4066 C69.335685,7.89555349 68.8022636,8.49308837 68.3631707,9.1938093 L68.3631707,6.61685581 L63.9396921,6.61685581 L63.9396921,23.6587395 L68.3631707,23.6587395 L68.3631707,17.0865302 C68.3631707,16.0546698 68.4873921,15.1442047 68.7418136,14.3659256 C68.9895921,13.6072047 69.3409993,12.9698791 69.7887279,12.473507 C70.2411064,11.9784837 70.7811707,11.6041814 71.4016136,11.3559953 C72.023385,11.1064605 72.7281921,10.9796698 73.4934493,10.9796698 L74.036835,10.9796698 L74.036835,6.32146047 L73.7186421,6.30729767 Z" id="Fill-19"></path>
                            </g>
                        </g>
                        <g id="tagline" mask="url(#mask-4)" fill="#FFFFFF">
                            <g transform="translate(57.000000, 37.000000)">
                                <polygon id="Fill-20" points="1.57761551 9.06873333 3.21546857 1.15473333 0.308725714 1.15473333 0.520317551 0.138066667 7.4929298 0.138066667 7.28133796 1.15473333 4.39972163 1.15473333 2.76186857 9.06873333"></polygon>
                                <path d="M5.81937061,9.06873333 L7.1609951,2.59873333 L8.12770531,2.59873333 L7.85594204,3.92073333 C8.18589306,3.4214 8.50923184,3.05206667 8.82529714,2.81206667 C9.14136245,2.57273333 9.46536245,2.45273333 9.79531347,2.45273333 C10.0128563,2.45273333 10.2806522,2.5314 10.5993624,2.69073333 L10.1517135,3.71406667 C9.96260327,3.57606667 9.75497878,3.50673333 9.52950122,3.50673333 C9.14665224,3.50673333 8.7538849,3.7214 8.35119918,4.15206667 C7.94851347,4.58273333 7.63244816,5.35673333 7.40300327,6.4734 L6.85881551,9.06873333 L5.81937061,9.06873333 Z" id="Fill-21"></path>
                                <path d="M14.3213951,7.89886667 C13.5517298,8.7762 12.7642114,9.21553333 11.95884,9.21553333 C11.4629216,9.21553333 11.063542,9.0722 10.7593788,8.78553333 C10.4552155,8.49886667 10.3031339,8.14886667 10.3031339,7.73486667 C10.3031339,7.46286667 10.37124,6.99553333 10.5081135,6.33353333 L11.2817461,2.59886667 L12.3754114,2.59886667 L11.5178033,6.73553333 C11.4450686,7.0802 11.4087012,7.34886667 11.4087012,7.53953333 C11.4087012,7.78353333 11.4827584,7.97286667 11.6295502,8.10886667 C11.776342,8.24553333 11.9932237,8.31353333 12.2788727,8.31353333 C12.5850196,8.31353333 12.8838931,8.2382 13.1761543,8.0882 C13.4684155,7.9382 13.7196808,7.73486667 13.9319339,7.47886667 C14.1428645,7.22286667 14.3154441,6.9202 14.4483502,6.57086667 C14.5369543,6.34753333 14.6394441,5.95553333 14.7564808,5.39486667 L15.3363747,2.59886667 L16.43004,2.59886667 L15.0890767,9.06886667 L14.0793869,9.06886667 L14.3213951,7.89886667 Z" id="Fill-22"></path>
                                <path d="M16.9255616,6.8572 L18.0192269,6.78986667 C18.0192269,7.1072 18.0674963,7.3772 18.1646963,7.60053333 C18.2612351,7.82386667 18.4391045,8.0072 18.6989657,8.14853333 C18.9588269,8.29053333 19.262329,8.36253333 19.6088106,8.36253333 C20.0921657,8.36253333 20.4545167,8.26453333 20.6958637,8.0692 C20.9378718,7.87453333 21.0582147,7.64586667 21.0582147,7.3812 C21.0582147,7.19053333 20.9861412,7.00986667 20.8413331,6.8392 C20.6918963,6.66853333 20.3282229,6.45786667 19.7503127,6.20853333 C19.1724024,5.95853333 18.802778,5.7832 18.6414392,5.6812 C18.3716596,5.51453333 18.1680024,5.31853333 18.031129,5.0932 C17.8942555,4.86853333 17.8261494,4.6092 17.8261494,4.31653333 C17.8261494,3.8052 18.0271616,3.36653333 18.4298473,3.0012 C18.8331943,2.6352 19.3972188,2.4532 20.1219208,2.4532 C20.9279535,2.4532 21.5409086,2.64053333 21.9621086,3.01586667 C22.3826473,3.39186667 22.6015127,3.88653333 22.617382,4.49986667 L21.548182,4.57253333 C21.5316514,4.18253333 21.394778,3.87386667 21.1375616,3.6472 C20.8790229,3.4192 20.5146882,3.30586667 20.0432351,3.30586667 C19.6650147,3.30586667 19.3707698,3.3932 19.1611616,3.5672 C18.9515535,3.74186667 18.84708,3.93053333 18.84708,4.13386667 C18.84708,4.3372 18.9376678,4.51586667 19.1188433,4.67053333 C19.2398473,4.77586667 19.5519453,4.93853333 20.0557984,5.1572 C20.8935698,5.5232 21.4212269,5.81186667 21.6387698,6.02253333 C21.9852514,6.35986667 22.1584922,6.76986667 22.1584922,7.25386667 C22.1584922,7.57386667 22.060631,7.8892 21.8655698,8.19786667 C21.6698473,8.50653333 21.3716351,8.7532 20.9709331,8.93786667 C20.570231,9.12253333 20.0981167,9.2152 19.553929,9.2152 C18.8126963,9.2152 18.1825494,9.03053333 17.6628269,8.66053333 C17.1431045,8.29053333 16.8977902,7.68986667 16.9255616,6.8572" id="Fill-23"></path>
                                <path d="M25.5663771,8.1736 L25.3852016,9.07493333 C25.1233567,9.14426667 24.8694465,9.17893333 24.623471,9.17893333 C24.1890465,9.17893333 23.8425649,9.07093333 23.5840261,8.8556 C23.3909486,8.69293333 23.2944098,8.4716 23.2944098,8.1916 C23.2944098,8.04893333 23.3466465,7.72226667 23.4517812,7.21093333 L24.2307037,3.4516 L23.3671445,3.4516 L23.5417078,2.59893333 L24.4065894,2.59893333 L24.7385241,1.00893333 L25.9895608,0.246933333 L25.4995935,2.59893333 L26.5754057,2.59893333 L26.3942302,3.4516 L25.324369,3.4516 L24.5811527,7.0276 C24.4885812,7.48293333 24.4422955,7.75493333 24.4422955,7.84426667 C24.4422955,7.97426667 24.4793241,8.07426667 24.5540424,8.14293333 C24.6287608,8.21226667 24.7504261,8.24626667 24.9196996,8.24626667 C25.1617078,8.24626667 25.3772669,8.2216 25.5663771,8.1736" id="Fill-24"></path>
                                <path d="M27.983351,5.26733333 L31.5850408,5.26733333 C31.5890082,5.15333333 31.5909918,5.072 31.5909918,5.024 C31.5909918,4.47133333 31.4541184,4.048 31.1797102,3.75333333 C30.9059633,3.45866667 30.5535306,3.31133333 30.1224122,3.31133333 C29.6549265,3.31133333 29.229098,3.47466667 28.8442653,3.79933333 C28.4600939,4.124 28.1731224,4.614 27.983351,5.26733333 M31.1618571,6.86933333 L32.2251061,6.97866667 C32.0723633,7.51133333 31.7205918,8.01666667 31.1711143,8.496 C30.6209755,8.97533333 29.965702,9.21533333 29.2039714,9.21533333 C28.728551,9.21533333 28.2928041,9.10466667 27.8960694,8.88333333 C27.4993347,8.662 27.1971551,8.33933333 26.9895306,7.918 C26.7819061,7.49533333 26.6780939,7.01333333 26.6780939,6.474 C26.6780939,5.76666667 26.8400939,5.082 27.1647551,4.418 C27.4887551,3.75333333 27.9086327,3.26 28.4243878,2.93733333 C28.9401429,2.61466667 29.4982163,2.45266667 30.0986082,2.45266667 C30.8636449,2.45266667 31.4752776,2.69266667 31.9321837,3.17133333 C32.389751,3.65066667 32.6178735,4.30466667 32.6178735,5.13333333 C32.6178735,5.45 32.590102,5.77533333 32.5332367,6.108 L27.8081265,6.108 C27.7922571,6.234 27.7843224,6.34733333 27.7843224,6.44866667 C27.7843224,7.05466667 27.9218571,7.516 28.198249,7.83533333 C28.4739796,8.154 28.8112041,8.31333333 29.2099224,8.31333333 C29.5848367,8.31333333 29.9531388,8.18933333 30.3154898,7.942 C30.678502,7.694 30.9601837,7.33666667 31.1618571,6.86933333" id="Fill-25"></path>
                                <path d="M34.660462,6.3578 C34.660462,6.80846667 34.7047641,7.1638 34.7933682,7.42446667 C34.8819722,7.6838 35.0327314,7.8998 35.2463069,8.07246667 C35.4598824,8.24513333 35.7157763,8.3318 36.0139886,8.3318 C36.5092457,8.3318 36.9588784,8.0718 37.3609029,7.5518 C37.9011233,6.8618 38.1709029,6.00846667 38.1709029,4.99313333 C38.1709029,4.4818 38.0379967,4.08113333 37.7721845,3.79246667 C37.5063722,3.50446667 37.1717927,3.36046667 36.7691069,3.36046667 C36.507262,3.36046667 36.26856,3.41913333 36.0530008,3.53713333 C35.8374416,3.65446667 35.6245273,3.85446667 35.4129355,4.13713333 C35.2013437,4.4198 35.0228131,4.7778 34.8780049,5.21246667 C34.7325355,5.64713333 34.660462,6.02913333 34.660462,6.3578 L34.660462,6.3578 Z M37.6577927,8.13046667 C37.0329355,8.85313333 36.3803069,9.21513333 35.6999069,9.21513333 C35.0915804,9.21513333 34.5850824,8.98846667 34.1797518,8.5358 C33.7750824,8.08313333 33.5727478,7.42646667 33.5727478,6.56513333 C33.5727478,5.77713333 33.7327641,5.05713333 34.053458,4.40513333 C34.3734906,3.7538 34.7741927,3.26446667 35.2555641,2.9398 C35.7369355,2.61513333 36.2189682,2.45313333 36.7023233,2.45313333 C37.5004212,2.45313333 38.1027967,2.84046667 38.5094498,3.61646667 L39.2341518,0.1378 L40.3225273,0.1378 L38.4730824,9.06846667 L37.4640539,9.06846667 L37.6577927,8.13046667 Z" id="Fill-26"></path>
                                <path d="M45.2710653,6.41253333 L45.2651143,6.61986667 C45.2651143,7.17253333 45.3960367,7.59253333 45.6578816,7.88053333 C45.9197265,8.1692 46.2457102,8.31386667 46.6364939,8.31386667 C47.0193429,8.31386667 47.3711143,8.17786667 47.6911469,7.90786667 C48.0111796,7.63853333 48.2743469,7.21653333 48.4799878,6.64453333 C48.6849673,6.0712 48.7874571,5.5432 48.7874571,5.06053333 C48.7874571,4.51586667 48.6578571,4.0932 48.3979959,3.79253333 C48.1381347,3.49253333 47.8167796,3.34253333 47.4339306,3.34253333 C47.0391796,3.34253333 46.6768286,3.4952 46.3462163,3.80186667 C46.0162653,4.10853333 45.7398735,4.5812 45.5190245,5.21853333 C45.3537184,5.69386667 45.2710653,6.09186667 45.2710653,6.41253333 L45.2710653,6.41253333 Z M43.6517265,9.06853333 L45.5005102,0.137866667 L46.5941755,0.137866667 L45.9355959,3.32986667 C46.2820776,3.0092 46.5961592,2.7832 46.878502,2.65053333 C47.1601837,2.51853333 47.4544286,2.4532 47.7605755,2.4532 C48.3609673,2.4532 48.8615143,2.67786667 49.2622163,3.12853333 C49.6629184,3.57986667 49.8632694,4.2352 49.8632694,5.09653333 C49.8632694,5.66986667 49.7826,6.1932 49.6219224,6.66853333 C49.4605837,7.14386667 49.2608939,7.54253333 49.0235143,7.86586667 C48.7854735,8.18853333 48.5401592,8.44653333 48.286249,8.6392 C48.0323388,8.83253333 47.7724776,8.97653333 47.5066653,9.07186667 C47.2408531,9.1672 46.9849592,9.2152 46.7396449,9.2152 C46.3164612,9.2152 45.9441918,9.10253333 45.6215143,8.87653333 C45.2988367,8.6512 45.0475714,8.3072 44.8663959,7.84386667 L44.6124857,9.06853333 L43.6517265,9.06853333 Z" id="Fill-27"></path>
                                <path d="M50.1230645,11.5668 L50.1898482,10.5308 C50.4153257,10.5961333 50.6348522,10.6288 50.8484278,10.6288 C51.069938,10.6288 51.2491298,10.5781333 51.3860033,10.4761333 C51.5632114,10.3421333 51.7569502,10.0901333 51.9665584,9.72013333 L52.3163461,9.0868 L51.2471461,2.5988 L52.3229584,2.5988 L52.8063135,5.87013333 C52.9028522,6.51613333 52.9855053,7.16213333 53.0536114,7.80746667 L55.9239869,2.5988 L57.0659216,2.5988 L52.9749257,9.92813333 C52.5801747,10.6428 52.2303869,11.1154667 51.92424,11.3474667 C51.6174318,11.5788 51.2656604,11.6941333 50.8662808,11.6941333 C50.6123706,11.6941333 50.3650727,11.6521333 50.1230645,11.5668" id="Fill-28"></path>
                                <path d="M62.7156882,8.1736 L62.5345127,9.07493333 C62.2726678,9.14426667 62.0187576,9.17893333 61.7734433,9.17893333 C61.3383576,9.17893333 60.9918759,9.07093333 60.7339984,8.8556 C60.5402596,8.69293333 60.4437208,8.4716 60.4437208,8.1916 C60.4437208,8.04893333 60.4966188,7.72226667 60.6010922,7.21093333 L61.3800147,3.4516 L60.5164555,3.4516 L60.69168,2.59893333 L61.5559004,2.59893333 L61.8878351,1.00893333 L63.1388718,0.246933333 L62.6489045,2.59893333 L63.7247167,2.59893333 L63.5435412,3.4516 L62.4743412,3.4516 L61.7311249,7.0276 C61.6385535,7.48293333 61.5916065,7.75493333 61.5916065,7.84426667 C61.5916065,7.97426667 61.6292963,8.07426667 61.7033535,8.14293333 C61.7780718,8.21226667 61.9003984,8.24626667 62.0690106,8.24626667 C62.3110188,8.24626667 62.526578,8.2216 62.7156882,8.1736" id="Fill-29"></path>
                                <path d="M63.5980922,9.06873333 L64.9397167,2.59873333 L65.9064269,2.59873333 L65.6346637,3.92073333 C65.9646147,3.4214 66.2879535,3.05206667 66.6040188,2.81206667 C66.9200841,2.57273333 67.2434229,2.45273333 67.5740351,2.45273333 C67.791578,2.45273333 68.0593739,2.5314 68.3780841,2.69073333 L67.9304351,3.71406667 C67.7413249,3.57606667 67.5337004,3.50673333 67.3082229,3.50673333 C66.9253739,3.50673333 66.5326065,3.7214 66.1299208,4.15206667 C65.7272351,4.58273333 65.4105086,5.35673333 65.1810637,6.4734 L64.6375371,9.06873333 L63.5980922,9.06873333 Z" id="Fill-30"></path>
                                <path d="M72.4503673,5.7914 C72.2976245,5.85206667 72.1329796,5.89873333 71.9577551,5.9314 C71.7825306,5.96406667 71.4896082,5.99873333 71.0783265,6.03473333 C70.4422286,6.0914 69.9932571,6.16406667 69.7314122,6.25073333 C69.4695673,6.33806667 69.2718612,6.4774 69.1389551,6.66806667 C69.006049,6.8594 68.9392653,7.07073333 68.9392653,7.30206667 C68.9392653,7.61073333 69.0457224,7.86406667 69.2566531,8.0634 C69.4682449,8.26273333 69.769102,8.36206667 70.1605469,8.36206667 C70.522898,8.36206667 70.8713633,8.2654 71.2052816,8.07273333 C71.5398612,7.88006667 71.8036898,7.61073333 71.9967673,7.2654 C72.1905061,6.92006667 72.3412653,6.42873333 72.4503673,5.7914 M72.045698,8.26473333 C71.6668163,8.5934 71.3024816,8.83406667 70.9513714,8.98673333 C70.6015837,9.13873333 70.2266694,9.2154 69.827951,9.2154 C69.2354939,9.2154 68.758751,9.0394 68.3957388,8.68806667 C68.0333878,8.33673333 67.851551,7.8874 67.851551,7.33873333 C67.851551,6.97673333 67.9335429,6.6574 68.0968653,6.3794 C68.2601878,6.10073333 68.4764082,5.8774 68.7461878,5.70873333 C69.0159673,5.54006667 69.3465796,5.4194 69.7373633,5.34673333 C69.9833388,5.29806667 70.449502,5.25873333 71.1358531,5.23073333 C71.8228653,5.20206667 72.3154776,5.1294 72.6136898,5.0114 C72.6983265,4.71073333 72.7399837,4.4614 72.7399837,4.26206667 C72.7399837,4.00606667 72.6474122,3.8054 72.4622694,3.65873333 C72.2083592,3.45606667 71.8380735,3.35473333 71.350751,3.35473333 C70.8912,3.35473333 70.5156245,3.45673333 70.2233633,3.66206667 C69.9317633,3.86673333 69.718849,4.15873333 69.5859429,4.53606667 L68.4803755,4.43873333 C68.7058531,3.7974 69.0635755,3.3054 69.5528816,2.96473333 C70.0421878,2.6234 70.6597714,2.45273333 71.4049714,2.45273333 C72.1984408,2.45273333 72.8266041,2.6434 73.2901224,3.0254 C73.6445388,3.3094 73.8217469,3.6794 73.8217469,4.13406667 C73.8217469,4.4794 73.7714939,4.8794 73.6709878,5.33406667 L73.3145878,6.94273333 C73.2015184,7.45406667 73.1453143,7.87073333 73.1453143,8.19206667 C73.1453143,8.39473333 73.1896163,8.6874 73.2782204,9.06873333 L72.1726531,9.06873333 C72.1118204,8.85806667 72.069502,8.5894 72.045698,8.26473333" id="Fill-31"></path>
                                <path d="M75.9308547,6.3578 C75.9308547,6.80846667 75.9751567,7.1638 76.0637608,7.42446667 C76.1523649,7.6838 76.3031241,7.8998 76.5166996,8.07246667 C76.7302751,8.24513333 76.986169,8.3318 77.2843812,8.3318 C77.7796384,8.3318 78.229271,8.0718 78.6319567,7.5518 C79.1715159,6.8618 79.4419567,6.00846667 79.4419567,4.99313333 C79.4419567,4.4818 79.3083894,4.08113333 79.0425771,3.79246667 C78.7767649,3.50446667 78.4421853,3.36046667 78.0394996,3.36046667 C77.7776547,3.36046667 77.5389527,3.41913333 77.3233935,3.53713333 C77.1078343,3.65446667 76.89492,3.85446667 76.6833282,4.13713333 C76.4717363,4.4198 76.2932057,4.7778 76.1483976,5.21246667 C76.0029282,5.64713333 75.9308547,6.02913333 75.9308547,6.3578 L75.9308547,6.3578 Z M78.9281853,8.13046667 C78.3033282,8.85313333 77.6513608,9.21513333 76.9702996,9.21513333 C76.3619731,9.21513333 75.8554751,8.98846667 75.4501445,8.5358 C75.0454751,8.08313333 74.8431404,7.42646667 74.8431404,6.56513333 C74.8431404,5.77713333 75.0031567,5.05713333 75.3238506,4.40513333 C75.6438833,3.7538 76.0445853,3.26446667 76.5259567,2.9398 C77.0073282,2.61513333 77.4893608,2.45313333 77.9733771,2.45313333 C78.7708139,2.45313333 79.3731894,2.84046667 79.7798424,3.61646667 L80.5045445,0.1378 L81.59292,0.1378 L79.7434751,9.06846667 L78.7344465,9.06846667 L78.9281853,8.13046667 Z" id="Fill-32"></path>
                                <path d="M83.0186522,5.26733333 L86.6196808,5.26733333 C86.6243094,5.15333333 86.6262931,5.072 86.6262931,5.024 C86.6262931,4.47133333 86.4894196,4.048 86.2150114,3.75333333 C85.9412645,3.45866667 85.5888318,3.31133333 85.1577135,3.31133333 C84.6902278,3.31133333 84.2643992,3.47466667 83.8795665,3.79933333 C83.4947339,4.124 83.2077624,4.614 83.0186522,5.26733333 M86.1971584,6.86933333 L87.2604073,6.97866667 C87.1076645,7.51133333 86.7558931,8.01666667 86.2057543,8.496 C85.6562767,8.97533333 85.0010033,9.21533333 84.2392727,9.21533333 C83.7638522,9.21533333 83.3281053,9.10466667 82.9313706,8.88333333 C82.5346359,8.662 82.2324563,8.33933333 82.0248318,7.918 C81.8172073,7.49533333 81.7133951,7.01333333 81.7133951,6.474 C81.7133951,5.76666667 81.8753951,5.082 82.2000563,4.418 C82.5240563,3.75333333 82.9439339,3.26 83.459689,2.93733333 C83.9754441,2.61466667 84.5335176,2.45266667 85.1332482,2.45266667 C85.8989461,2.45266667 86.5099176,2.69266667 86.9674849,3.17133333 C87.4250522,3.65066667 87.6531747,4.30466667 87.6531747,5.13333333 C87.6531747,5.45 87.624742,5.77533333 87.568538,6.108 L82.8434278,6.108 C82.8268971,6.234 82.8189624,6.34733333 82.8189624,6.44866667 C82.8189624,7.05466667 82.9571584,7.516 83.232889,7.83533333 C83.5092808,8.154 83.8465053,8.31333333 84.2452237,8.31333333 C84.620138,8.31333333 84.98844,8.18933333 85.350791,7.942 C85.7138033,7.694 85.9954849,7.33666667 86.1971584,6.86933333" id="Fill-33"></path>
                                <path d="M88.3662392,9.06873333 L89.7078637,2.59873333 L90.6745739,2.59873333 L90.4028106,3.92073333 C90.7327616,3.4214 91.0561004,3.05206667 91.3721657,2.81206667 C91.6888922,2.57273333 92.012231,2.45273333 92.342182,2.45273333 C92.5597249,2.45273333 92.8275208,2.5314 93.146231,2.69073333 L92.698582,3.71406667 C92.5094718,3.57606667 92.3018473,3.50673333 92.0763698,3.50673333 C91.6935208,3.50673333 91.3007535,3.7214 90.8980678,4.15206667 C90.495382,4.58273333 90.1793167,5.35673333 89.9498718,6.4734 L89.4056841,9.06873333 L88.3662392,9.06873333 Z" id="Fill-34"></path>
                                <path d="M92.5899429,6.8572 L93.6836082,6.78986667 C93.6836082,7.1072 93.7318776,7.3772 93.8290776,7.60053333 C93.9256163,7.82386667 94.1034857,8.0072 94.3633469,8.14853333 C94.6232082,8.29053333 94.9267102,8.36253333 95.2731918,8.36253333 C95.7565469,8.36253333 96.118898,8.26453333 96.3609061,8.0692 C96.6022531,7.87453333 96.7232571,7.64586667 96.7232571,7.3812 C96.7232571,7.19053333 96.6505224,7.00986667 96.5057143,6.8392 C96.3562776,6.66853333 95.9926041,6.45786667 95.4146939,6.20853333 C94.8367837,5.95853333 94.4671592,5.7832 94.3058204,5.6812 C94.0360408,5.51453333 93.8323837,5.31853333 93.6955102,5.0932 C93.5586367,4.86853333 93.4905306,4.6092 93.4905306,4.31653333 C93.4905306,3.8052 93.6922041,3.36653333 94.0942286,3.0012 C94.4975755,2.6352 95.0616,2.4532 95.786302,2.4532 C96.5923347,2.4532 97.2052898,2.64053333 97.6264898,3.01586667 C98.0470286,3.39186667 98.2658939,3.88653333 98.2817633,4.49986667 L97.2125633,4.57253333 C97.1966939,4.18253333 97.0591592,3.87386667 96.8019429,3.6472 C96.5434041,3.4192 96.1790694,3.30586667 95.7076163,3.30586667 C95.3293959,3.30586667 95.035151,3.3932 94.8255429,3.5672 C94.6159347,3.74186667 94.5114612,3.93053333 94.5114612,4.13386667 C94.5114612,4.3372 94.602049,4.51586667 94.7832245,4.67053333 C94.9042286,4.77586667 95.2163265,4.93853333 95.7201796,5.1572 C96.557951,5.5232 97.0856082,5.81186667 97.303151,6.02253333 C97.6496327,6.35986667 97.8228735,6.76986667 97.8228735,7.25386667 C97.8228735,7.57386667 97.7250122,7.8892 97.529951,8.19786667 C97.3342286,8.50653333 97.0366776,8.7532 96.6353143,8.93786667 C96.2346122,9.12253333 95.762498,9.2152 95.2183102,9.2152 C94.4770776,9.2152 93.8469306,9.03053333 93.3272082,8.66053333 C92.8074857,8.29053333 92.5621714,7.68986667 92.5899429,6.8572" id="Fill-35"></path>
                                <path d="M102.215784,6.8572 L103.30945,6.78986667 C103.30945,7.1072 103.357719,7.3772 103.454919,7.60053333 C103.551458,7.82386667 103.729327,8.0072 103.989189,8.14853333 C104.24905,8.29053333 104.552552,8.36253333 104.899033,8.36253333 C105.382389,8.36253333 105.74474,8.26453333 105.986087,8.0692 C106.228095,7.87453333 106.348438,7.64586667 106.348438,7.3812 C106.348438,7.19053333 106.276364,7.00986667 106.130895,6.8392 C105.982119,6.66853333 105.618446,6.45786667 105.040536,6.20853333 C104.462625,5.95853333 104.093001,5.7832 103.931662,5.6812 C103.661882,5.51453333 103.458225,5.31853333 103.321352,5.0932 C103.184478,4.86853333 103.115711,4.6092 103.115711,4.31653333 C103.115711,3.8052 103.317384,3.36653333 103.72007,3.0012 C104.123417,2.6352 104.68678,2.4532 105.412144,2.4532 C106.218176,2.4532 106.831131,2.64053333 107.252331,3.01586667 C107.67287,3.39186667 107.891736,3.88653333 107.907605,4.49986667 L106.838405,4.57253333 C106.821874,4.18253333 106.685001,3.87386667 106.427784,3.6472 C106.169246,3.4192 105.804911,3.30586667 105.333458,3.30586667 C104.955238,3.30586667 104.660993,3.3932 104.451384,3.5672 C104.241776,3.74186667 104.137303,3.93053333 104.137303,4.13386667 C104.137303,4.3372 104.227891,4.51586667 104.409066,4.67053333 C104.53007,4.77586667 104.842168,4.93853333 105.34536,5.1572 C106.183793,5.5232 106.71145,5.81186667 106.928993,6.02253333 C107.275474,6.35986667 107.448715,6.76986667 107.448715,7.25386667 C107.448715,7.57386667 107.350854,7.8892 107.155793,8.19786667 C106.96007,8.50653333 106.661858,8.7532 106.261156,8.93786667 C105.860454,9.12253333 105.387678,9.2152 104.844152,9.2152 C104.102919,9.2152 103.472772,9.03053333 102.95305,8.66053333 C102.433327,8.29053333 102.188013,7.68986667 102.215784,6.8572" id="Fill-36"></path>
                                <path d="M109.853456,1.38646667 L110.113318,0.1378 L111.201032,0.1378 L110.941171,1.38646667 L109.853456,1.38646667 Z M108.257922,9.06846667 L109.599546,2.59846667 L110.693873,2.59846667 L109.352248,9.06846667 L108.257922,9.06846667 Z" id="Fill-37"></path>
                                <path d="M111.050008,9.06873333 L112.391633,2.59873333 L113.382147,2.59873333 L113.146751,3.7254 C113.577869,3.28273333 113.980555,2.96006667 114.355469,2.7574 C114.729722,2.55473333 115.112571,2.45273333 115.503355,2.45273333 C116.023078,2.45273333 116.431053,2.59473333 116.72662,2.8794 C117.022849,3.1634 117.170963,3.5434 117.170963,4.01873333 C117.170963,4.25806667 117.118727,4.63606667 117.014253,5.1514 L116.198302,9.06873333 L115.104637,9.06873333 L115.956294,4.96873333 C116.040931,4.57073333 116.083249,4.27673333 116.083249,4.0854 C116.083249,3.87006667 116.009853,3.6954 115.863061,3.5614 C115.715608,3.4274 115.503355,3.36006667 115.22498,3.36006667 C114.665584,3.36006667 114.16702,3.5634 113.729951,3.97006667 C113.292882,4.37606667 112.971527,5.07206667 112.765886,6.05873333 L112.143673,9.06873333 L111.050008,9.06873333 Z" id="Fill-38"></path>
                                <path d="M122.361509,6.71133333 L123.455175,6.82666667 C123.181428,7.63533333 122.791305,8.23533333 122.28613,8.62733333 C121.780293,9.01933333 121.205028,9.21533333 120.560995,9.21533333 C119.864064,9.21533333 119.298718,8.98733333 118.865616,8.53266667 C118.433175,8.078 118.216293,7.44266667 118.216293,6.626 C118.216293,5.91933333 118.35515,5.22466667 118.633526,4.542 C118.91124,3.86 119.309297,3.34066667 119.827036,2.98533333 C120.344113,2.63066667 120.935248,2.45266667 121.60044,2.45266667 C122.288775,2.45266667 122.834946,2.64866667 123.237632,3.04066667 C123.640318,3.43266667 123.841991,3.95133333 123.841991,4.59733333 L122.766179,4.67 C122.762211,4.26 122.644513,3.93933333 122.413085,3.70733333 C122.181656,3.476 121.876171,3.36066667 121.497289,3.36066667 C121.058236,3.36066667 120.678032,3.50066667 120.355354,3.78066667 C120.033338,4.06066667 119.780089,4.48666667 119.59693,5.05733333 C119.413771,5.628 119.32186,6.17666667 119.32186,6.70466667 C119.32186,7.25733333 119.442864,7.67133333 119.684873,7.94733333 C119.92622,8.22466667 120.224432,8.36266667 120.578848,8.36266667 C120.933264,8.36266667 121.273134,8.226 121.597134,7.954 C121.921134,7.682 122.176367,7.26733333 122.361509,6.71133333" id="Fill-39"></path>
                                <path d="M125.654738,5.26733333 L129.255767,5.26733333 C129.260395,5.15333333 129.262379,5.072 129.262379,5.024 C129.262379,4.47133333 129.125505,4.048 128.851097,3.75333333 C128.57735,3.45866667 128.224918,3.31133333 127.793799,3.31133333 C127.326313,3.31133333 126.900485,3.47466667 126.515652,3.79933333 C126.13082,4.124 125.843848,4.614 125.654738,5.26733333 M128.833244,6.86933333 L129.896493,6.97866667 C129.74375,7.51133333 129.391979,8.01666667 128.84184,8.496 C128.292362,8.97533333 127.637089,9.21533333 126.875358,9.21533333 C126.399938,9.21533333 125.964191,9.10466667 125.567456,8.88333333 C125.170722,8.662 124.868542,8.33933333 124.660918,7.918 C124.453293,7.49533333 124.349481,7.01333333 124.349481,6.474 C124.349481,5.76666667 124.511481,5.082 124.836142,4.418 C125.160142,3.75333333 125.58002,3.26 126.095775,2.93733333 C126.61153,2.61466667 127.169603,2.45266667 127.769334,2.45266667 C128.535032,2.45266667 129.146003,2.69266667 129.603571,3.17133333 C130.061138,3.65066667 130.28926,4.30466667 130.28926,5.13333333 C130.28926,5.45 130.260828,5.77533333 130.204624,6.108 L125.479513,6.108 C125.462983,6.234 125.455048,6.34733333 125.455048,6.44866667 C125.455048,7.05466667 125.593244,7.516 125.868975,7.83533333 C126.145367,8.154 126.482591,8.31333333 126.881309,8.31333333 C127.256224,8.31333333 127.624526,8.18933333 127.986877,7.942 C128.349889,7.694 128.631571,7.33666667 128.833244,6.86933333" id="Fill-40"></path>
                                <path d="M134.754642,9.06873333 C134.867711,8.53673333 135.02376,8.09073333 135.222789,7.7314 C135.422478,7.37206667 135.687629,7.03073333 136.01758,6.70806667 C136.348193,6.3854 136.984291,5.84406667 137.927197,5.08406667 C138.499156,4.6254 138.88994,4.28606667 139.099548,4.06673333 C139.401066,3.75006667 139.620593,3.44006667 139.758127,3.1354 C139.850699,2.92806667 139.896984,2.70206667 139.896984,2.45873333 C139.896984,2.04873333 139.752838,1.70006667 139.465205,1.41406667 C139.176911,1.1274 138.823156,0.984066667 138.404601,0.984066667 C137.989352,0.984066667 137.627001,1.1294 137.316887,1.42006667 C137.006772,1.71073333 136.785262,2.17606667 136.652356,2.81806667 L135.582495,2.66006667 C135.687629,1.8674 135.992454,1.2434 136.498291,0.786066667 C137.003466,0.3294 137.632952,0.1014 138.386087,0.1014 C138.88994,0.1014 139.346184,0.206733333 139.754821,0.4174 C140.164119,0.6294 140.470927,0.9254 140.676568,1.30673333 C140.882209,1.6894 140.984699,2.08273333 140.984699,2.4894 C140.984699,3.08273333 140.775091,3.65273333 140.356536,4.20073333 C140.098658,4.54206667 139.340895,5.21473333 138.084568,6.21806667 C137.544348,6.64806667 137.142323,7.0014 136.878495,7.2774 C136.614666,7.55406667 136.416299,7.8134 136.283393,8.0574 L140.247433,8.0574 L140.035842,9.06873333 L134.754642,9.06873333 Z" id="Fill-41"></path>
                                <path d="M142.845583,6.419 C142.845583,6.967 142.936171,7.39566667 143.117346,7.70433333 C143.363322,8.13033333 143.727656,8.34433333 144.211011,8.34433333 C144.634195,8.34433333 145.019028,8.151 145.365509,7.76566667 C145.864734,7.221 146.240309,6.42366667 146.492236,5.37433333 C146.744162,4.32366667 146.869795,3.46566667 146.869795,2.79966667 C146.869795,2.15766667 146.74813,1.695 146.504138,1.41033333 C146.260807,1.127 145.939452,0.984333333 145.540734,0.984333333 C145.250456,0.984333333 144.980016,1.05966667 144.728089,1.21033333 C144.476162,1.36033333 144.235477,1.61833333 144.006032,1.98366667 C143.679387,2.499 143.395722,3.271 143.153713,4.29833333 C142.948073,5.17633333 142.845583,5.88233333 142.845583,6.419 M141.788285,6.13833333 C141.788285,5.383 141.900032,4.61566667 142.123526,3.83566667 C142.34702,3.05566667 142.596301,2.43233333 142.870048,1.965 C143.143795,1.49833333 143.42746,1.13233333 143.721705,0.869 C144.01595,0.604333333 144.304905,0.410333333 144.589232,0.287 C144.872897,0.163 145.188301,0.101 145.534783,0.101 C146.211216,0.101 146.776562,0.354333333 147.229501,0.862333333 C147.68244,1.37033333 147.90924,2.103 147.90924,3.06166667 C147.90924,4.04833333 147.751869,5.02566667 147.437787,5.99166667 C147.067501,7.13766667 146.551746,7.99633333 145.891183,8.56966667 C145.383362,9.00366667 144.805452,9.221 144.156791,9.221 C143.49226,9.221 142.930881,8.95833333 142.473975,8.43233333 C142.017069,7.90566667 141.788285,7.14166667 141.788285,6.13833333" id="Fill-42"></path>
                                <path d="M149.72807,6.419 C149.72807,6.967 149.818658,7.39566667 149.999833,7.70433333 C150.245809,8.13033333 150.610144,8.34433333 151.093499,8.34433333 C151.516682,8.34433333 151.901515,8.151 152.247997,7.76566667 C152.747221,7.221 153.122797,6.42366667 153.374723,5.37433333 C153.62665,4.32366667 153.752282,3.46566667 153.752282,2.79966667 C153.752282,2.15766667 153.630617,1.695 153.386625,1.41033333 C153.143295,1.127 152.82194,0.984333333 152.423221,0.984333333 C152.132944,0.984333333 151.862503,1.05966667 151.610576,1.21033333 C151.35865,1.36033333 151.117964,1.61833333 150.887858,1.98366667 C150.561874,2.499 150.278209,3.271 150.036201,4.29833333 C149.83056,5.17633333 149.72807,5.88233333 149.72807,6.419 M148.670772,6.13833333 C148.670772,5.383 148.782519,4.61566667 149.006013,3.83566667 C149.229507,3.05566667 149.478789,2.43233333 149.752536,1.965 C150.026282,1.49833333 150.309948,1.13233333 150.604193,0.869 C150.898438,0.604333333 151.187393,0.410333333 151.471058,0.287 C151.755384,0.163 152.070127,0.101 152.416609,0.101 C153.093703,0.101 153.658389,0.354333333 154.111989,0.862333333 C154.564927,1.37033333 154.791727,2.103 154.791727,3.06166667 C154.791727,4.04833333 154.634356,5.02566667 154.320274,5.99166667 C153.949989,7.13766667 153.434233,7.99633333 152.77367,8.56966667 C152.26585,9.00366667 151.68794,9.221 151.039278,9.221 C150.374748,9.221 149.813368,8.95833333 149.356462,8.43233333 C148.899556,7.90566667 148.670772,7.14166667 148.670772,6.13833333" id="Fill-43"></path>
                                <path d="M156.610558,6.419 C156.610558,6.967 156.701145,7.39566667 156.882321,7.70433333 C157.128296,8.13033333 157.492631,8.34433333 157.975986,8.34433333 C158.39917,8.34433333 158.784002,8.151 159.130484,7.76566667 C159.629709,7.221 160.005284,6.42366667 160.257211,5.37433333 C160.509137,4.32366667 160.63477,3.46566667 160.63477,2.79966667 C160.63477,2.15766667 160.513104,1.695 160.269113,1.41033333 C160.025782,1.127 159.704427,0.984333333 159.305709,0.984333333 C159.015431,0.984333333 158.74499,1.05966667 158.493064,1.21033333 C158.241137,1.36033333 158.000451,1.61833333 157.770345,1.98366667 C157.444362,2.499 157.160696,3.271 156.918688,4.29833333 C156.713047,5.17633333 156.610558,5.88233333 156.610558,6.419 M155.55326,6.13833333 C155.55326,5.383 155.665007,4.61566667 155.8885,3.83566667 C156.111994,3.05566667 156.360615,2.43233333 156.635023,1.965 C156.90877,1.49833333 157.192435,1.13233333 157.48668,0.869 C157.780925,0.604333333 158.06988,0.410333333 158.353545,0.287 C158.637872,0.163 158.952615,0.101 159.299096,0.101 C159.97619,0.101 160.540876,0.354333333 160.994476,0.862333333 C161.447415,1.37033333 161.674215,2.103 161.674215,3.06166667 C161.674215,4.04833333 161.516843,5.02566667 161.202762,5.99166667 C160.832476,7.13766667 160.316721,7.99633333 159.656158,8.56966667 C159.148337,9.00366667 158.570427,9.221 157.921766,9.221 C157.257235,9.221 156.695856,8.95833333 156.238949,8.43233333 C155.782043,7.90566667 155.55326,7.14166667 155.55326,6.13833333" id="Fill-44"></path>
                            </g>
                        </g>
                        <g id="Group-2" mask="url(#mask-4)">
                            <path d="M43.4686247,7.45361688 C33.5375338,-2.4840974 17.3824558,-2.4840974 7.44805325,7.45030519 C-2.48237532,17.3827208 -2.48237532,33.5477338 7.44805325,43.4801494 C17.3824558,53.4178636 33.5428325,53.416539 43.4686247,43.4788247 C53.4123,33.5477338 53.4123,17.3827208 43.4686247,7.45361688" id="Fill-45" fill="#FFFFFF"></path>
                            <path d="M18.3609273,32.1483468 C18.3609273,32.1483468 18.6530182,34.3327364 20.4929922,35.3447883 L20.0028623,34.432087 C20.0035247,34.432087 20.9394078,31.9741519 18.3609273,32.1483468" id="Fill-46" fill="#293052"></path>
                            <path d="M26.4962221,16.9527312 C28.4746247,17.6567961 29.1111312,19.7650169 29.1111312,19.7650169 C26.5942481,20.3386013 27.1247805,17.7693935 27.1247805,17.7693935 L26.4962221,16.9527312 Z M39.7363519,39.7464195 C39.4780403,39.9994325 39.2243649,40.2451597 38.9640662,40.4816143 C33.2818714,45.1120169 28.9071312,42.8084065 28.8561312,42.8084065 C25.8901831,42.2162766 24.4184688,42.2070039 23.5859104,41.6506403 C23.3766117,41.5102247 22.706326,41.149913 22.551339,41.2373416 C21.9459623,41.5983156 21.1134039,41.7831078 20.2570013,41.1009 C20.1801701,41.0393026 20.1086377,40.9697571 20.0430662,40.9068351 C19.0992351,39.9656532 19.4198065,38.9953286 19.7330922,38.6581987 C19.9510013,38.4369779 19.5668455,37.8163675 19.5668455,37.8163675 C19.5668455,37.8163675 18.4541182,36.1625104 17.6930922,35.1663545 C16.8552351,34.0734974 16.7406506,31.9050039 16.7307156,31.875861 L16.7201182,31.8453935 C15.8729883,30.8406273 15.7848974,30.5306532 15.4928065,30.0411857 C15.3219234,29.7504195 15.0603,29.4795234 14.8370922,29.2463805 C14.6847545,29.0927182 14.5430143,28.9476662 14.442339,28.811887 C14.4204818,28.7834065 14.4145208,28.7410169 14.4237935,28.6741208 C14.501287,28.2045234 15.5106896,27.1692896 15.7279364,27.0255623 C15.9955208,26.8520299 17.1460013,26.1532636 17.1460013,26.1532636 C17.1460013,26.1532636 17.7924429,25.135913 18.8939104,25.135913 C19.8874169,25.141874 20.4927935,25.080939 22.206261,25.6392896 L22.9176117,25.8651468 C24.1118065,26.2479779 25.1635987,26.6996922 26.0001312,27.0600039 C26.7101571,27.3666662 27.2777805,27.6137182 27.7135987,27.7276403 C29.1906117,28.1157701 31.7962481,26.920913 32.3459883,26.4162117 C33.2480922,25.5962377 33.6375468,25.0464974 33.6421831,24.5954455 C33.6494688,24.3424325 33.5375338,24.1212117 33.2818714,23.8542896 C33.1487416,23.7317571 32.9785208,23.5032506 32.7639234,23.2866662 C32.7294818,23.2522247 32.6930532,23.2118221 32.649339,23.1813545 C30.1490143,20.5253805 30.5815208,18.8602636 30.5841701,18.8337701 C30.6914688,17.6382506 30.0066117,16.8712636 29.2714169,16.0771208 L29.1502091,15.9274325 C29.1117935,15.8923286 29.0647675,15.8313935 29.0647675,15.8313935 C30.1291442,16.004926 30.8550662,16.4341208 32.9348065,16.6652766 C34.1157545,16.7931078 33.7435208,16.7818481 34.6866896,16.7586662 C35.9875208,16.7176013 37.0167935,16.6036792 37.0876636,16.3076143 C36.9611571,16.2003156 36.3862481,16.3387442 33.6249623,15.2843026 C32.3466506,14.7941727 32.1446377,14.7219779 31.3319494,14.4524065 C30.2874429,14.1000429 29.1548455,13.6125623 29.1548455,13.6125623 C33.6594039,14.7941727 35.1324429,15.2571468 37.1936377,15.2856273 C37.9904299,15.300861 38.4646636,15.2041597 38.7435078,15.1471987 C39.0355987,15.094874 39.9449883,14.8882247 40.048313,14.5736143 C40.0801052,14.5186403 39.1760143,14.7219779 37.5049364,14.170913 C32.2466377,12.4336013 31.7995597,11.5639519 28.885274,10.4300299 C27.8679234,10.035939 27.5374169,9.81869221 24.4674818,9.02653636 C23.0606766,8.66423766 20.9332481,8.87287403 20.6444688,9.05369221 C16.6591831,8.11648442 15.7537675,8.21848442 14.5834169,8.47083506 C22.3817805,3.47084805 32.9136117,4.37096494 39.7363519,11.1937052 C40.660313,12.1203156 41.4796247,13.1177961 42.1969364,14.1742247 L42.2936377,14.3186143 C44.4820013,17.5951987 45.6503649,21.4413935 45.6503649,25.4684065 C45.6503649,30.8611597 43.5494299,35.9280429 39.7363519,39.7464195 L39.7363519,39.7464195 Z M42.1803779,8.74239351 C32.9566636,-0.483307792 17.9606766,-0.483307792 8.73828701,8.74106883 C-0.482115584,17.9627961 -0.482115584,32.9713675 8.73828701,42.1950818 C17.9606766,51.4194584 32.9619623,51.4161468 42.1803779,42.1930948 C51.4133649,32.9713675 51.4133649,17.9627961 42.1803779,8.74239351 L42.1803779,8.74239351 Z" id="Fill-47" fill="#293052"></path>
                        </g>
                    </g>
                </g>
            </g>
        </g>
    </g>
</svg>