<?xml version="1.0" encoding="UTF-8"?>
<svg width="40px" height="40px" viewBox="0 0 40 40" version="1.1" xmlns="http://www.w3.org/2000/svg" xmlns:xlink="http://www.w3.org/1999/xlink">
    <!-- Generator: Sketch 52.6 (67491) - http://www.bohemiancoding.com/sketch -->
    <title>step-3-icon</title>
    <desc>Created with Sketch.</desc>
    <defs>
        <path d="M17.5703125,19.4140625 L19.1992188,19.4140625 C20.2226614,19.3984374 21.0273408,19.1289089 21.6132812,18.6054688 C22.1992217,18.0820286 22.4921875,17.3750045 22.4921875,16.484375 C22.4921875,14.484365 21.4961037,13.484375 19.5039062,13.484375 C18.5664016,13.484375 17.8183622,13.7519504 17.2597656,14.2871094 C16.7011691,14.8222683 16.421875,15.5312456 16.421875,16.4140625 L14.2539062,16.4140625 C14.2539062,15.0624932 14.7480419,13.9394576 15.7363281,13.0449219 C16.7246143,12.1503862 17.9804611,11.703125 19.5039062,11.703125 C21.1132893,11.703125 22.3749954,12.128902 23.2890625,12.9804688 C24.2031296,13.8320355 24.6601562,15.0156174 24.6601562,16.53125 C24.6601562,17.2734412 24.4199243,17.992184 23.9394531,18.6875 C23.458982,19.382816 22.8046916,19.902342 21.9765625,20.2460938 C22.9140672,20.5429702 23.6386693,21.0351528 24.1503906,21.7226562 C24.6621119,22.4101597 24.9179688,23.249995 24.9179688,24.2421875 C24.9179688,25.7734452 24.4179738,26.9882768 23.4179688,27.8867188 C22.4179637,28.7851607 21.1171955,29.234375 19.515625,29.234375 C17.9140545,29.234375 16.6113331,28.8007856 15.6074219,27.9335938 C14.6035106,27.0664019 14.1015625,25.9218821 14.1015625,24.5 L16.28125,24.5 C16.28125,25.398442 16.5742158,26.1171848 17.1601562,26.65625 C17.7460967,27.1953152 18.5312451,27.4648438 19.515625,27.4648438 C20.5625052,27.4648438 21.3632785,27.191409 21.9179688,26.6445312 C22.472659,26.0976535 22.75,25.3125051 22.75,24.2890625 C22.75,23.29687 22.4453155,22.5351589 21.8359375,22.0039062 C21.2265595,21.4726536 20.347662,21.1992188 19.1992188,21.1835938 L17.5703125,21.1835938 L17.5703125,19.4140625 Z" id="path-1"></path>
    </defs>
    <g id="Binary-Bot-Landing-Page" stroke="none" stroke-width="1" fill="none" fill-rule="evenodd">
        <g id="Binary-Bot-Landing-Page-1" transform="translate(-635.000000, -3662.000000)">
            <g id="How-auto-trading-works-on-Binary-Bot" transform="translate(0.000000, 3330.000000)">
                <g id="step-3-icon" transform="translate(635.000000, 332.000000)">
                    <circle id="circle" fill="#E98024" fill-rule="nonzero" cx="20" cy="20" r="20"></circle>
                    <g id="3">
                        <use fill="#000000" xlink:href="#path-1"></use>
                        <use fill="#FFFFFF" xlink:href="#path-1"></use>
                    </g>
                </g>
            </g>
        </g>
    </g>
</svg>