<svg xmlns="http://www.w3.org/2000/svg" height="46" width="180" viewBox="0 0 192.48 51.03"><path fill="#fff" d="M44.46 7.15a7.15 7.15 0 00-2.12.29 7.06 7.06 0 00-1.72.79 7.18 7.18 0 00-1.37 1.14l-.3.33V7.55h-5.24v19.87h5.23V16.29A4.46 4.46 0 0140 13.1a3.61 3.61 0 012.78-1.1 3.31 3.31 0 012.67 1.06 4.69 4.69 0 011 3.16v11.2h5.24V14.89a8.16 8.16 0 00-1.87-5.61 6.74 6.74 0 00-5.36-2.13zm19.29.15a16.55 16.55 0 00-4.11.44 20.87 20.87 0 00-3.31 1.18l-.33.16 1.45 4.28.41-.17a19.25 19.25 0 012.5-.85 11.25 11.25 0 012.78-.34 4.78 4.78 0 013.2.95 3.25 3.25 0 011.06 2.51 18.61 18.61 0 00-1.84-.43 17.45 17.45 0 00-3-.22 12.37 12.37 0 00-3.18.39 7.41 7.41 0 00-2.6 1.23A5.81 5.81 0 0055 18.54a6.63 6.63 0 00-.62 2.94v.07a6 6 0 00.6 2.73 5.84 5.84 0 001.59 2 6.83 6.83 0 002.28 1.19 9.26 9.26 0 002.72.4 8.29 8.29 0 003.92-.87 9.17 9.17 0 001.88-1.29v1.73h5.16V15.76a8.56 8.56 0 00-2.18-6.22C68.91 8 66.69 7.3 63.75 7.3zm-.9 16.44a4.18 4.18 0 01-2.39-.65 2 2 0 01-.87-1.74v-.07a2.08 2.08 0 011-1.82 5.25 5.25 0 013-.72 12.61 12.61 0 012.32.2 12 12 0 011.63.42v.79a3.18 3.18 0 01-.33 1.45 3.42 3.42 0 01-.95 1.12 5 5 0 01-1.48.75 6.35 6.35 0 01-1.93.27zm36.64-2.85L94.38 7.55h-5.56L96.93 27a3.7 3.7 0 01-1 1.4 2.06 2.06 0 01-1.3.39 4.06 4.06 0 01-1.19-.18 7 7 0 01-1.17-.49l-.39-.21-1.82 4 .34.18a10.82 10.82 0 002.15.88 9.42 9.42 0 002.55.32 7.27 7.27 0 002.22-.29 5.48 5.48 0 001.8-1 7 7 0 001.46-1.74 16.78 16.78 0 001.22-2.55l7.79-20.15h-5.45z"/><path fill="#e78024" d="M133.64 21a10 10 0 01-2.13 1.65 5.38 5.38 0 01-4.65.17 5.3 5.3 0 01-1.67-1.22 5.48 5.48 0 01-1.09-1.81 6.47 6.47 0 01-.38-2.23v-.07a6.31 6.31 0 01.38-2.2 5.61 5.61 0 011.06-1.8 5.14 5.14 0 011.6-1.2 4.62 4.62 0 012-.44 5.06 5.06 0 012.58.61 9.86 9.86 0 012.06 1.64l.31.32 3.29-3.56-.26-.28a11.06 11.06 0 00-3.24-2.47 10.67 10.67 0 00-12.07 2.12 10.27 10.27 0 00-2.16 3.31 10.56 10.56 0 00-.78 4v.07a10.47 10.47 0 00.78 4 10.09 10.09 0 002.16 3.27 10.29 10.29 0 007.36 3 9.92 9.92 0 004.78-1 12.46 12.46 0 003.32-2.67l.27-.29-3.22-3.16zm23.24-10.82A10.2 10.2 0 00153.54 8a10.84 10.84 0 00-4.22-.81 10.7 10.7 0 00-4.22.81 10.37 10.37 0 00-5.56 5.52 10.12 10.12 0 00-.81 4v.07a10.32 10.32 0 00.79 4 10 10 0 002.21 3.27 10.49 10.49 0 003.34 2.2 11.24 11.24 0 008.41 0 10.28 10.28 0 005.57-5.52 10 10 0 00.81-4v-.07a10.12 10.12 0 00-3-7.27zm-7.56 13.05a5.06 5.06 0 01-2.14-.45 5.39 5.39 0 01-1.7-1.24 6 6 0 01-1.12-1.82 6.08 6.08 0 01-.4-2.21v-.07a6.63 6.63 0 01.37-2.2 5.14 5.14 0 011.06-1.78 5.26 5.26 0 011.68-1.2 5.5 5.5 0 014.35 0 5.31 5.31 0 011.7 1.22 5.57 5.57 0 011.11 1.81 6.23 6.23 0 01.4 2.23v.07a6.44 6.44 0 01-.37 2.18 5.49 5.49 0 01-1.06 1.79 5.32 5.32 0 01-1.67 1.22 5.26 5.26 0 01-2.21.46zm41.27-14.05a6.83 6.83 0 00-5.22-2 7.68 7.68 0 00-3.95 1 9.81 9.81 0 00-2.42 2.03 6.43 6.43 0 00-2-2.06 6.6 6.6 0 00-3.69-1 7 7 0 00-2.08.29 6.26 6.26 0 00-1.69.8 7.54 7.54 0 00-1.31 1.11l-.28.32V7.55h-5.23v19.87h5.23v-11.1a4.7 4.7 0 011-3.21 3.32 3.32 0 012.58-1.11 3.09 3.09 0 012.47 1 4.75 4.75 0 01.91 3.15v11.27h5.23V16.29a4.56 4.56 0 011-3.22 3.39 3.39 0 012.69-1.07 3.09 3.09 0 012.51 1 4.86 4.86 0 01.91 3.19v11.23h5.23V14.85a8 8 0 00-1.89-5.67z"/><path fill="#fff" d="M25.69 7.55h5.24v19.87h-5.24zm5.52-4.65a2.9 2.9 0 10-2.9 2.9 2.9 2.9 0 002.9-2.9z"/><path fill="#e78024" d="M116 25a2.9 2.9 0 10-2.89 2.9A2.9 2.9 0 00116 25z"/><path fill="#fff" d="M21.35 15.29a7.49 7.49 0 00-1.74-1.38 13.76 13.76 0 00-1.35-.66l-.26-.13.27-.17c.23-.14.45-.31.67-.48a6.26 6.26 0 001.28-1.31 6.51 6.51 0 00.88-1.72 6.92 6.92 0 00.34-2.26v-.07a6.33 6.33 0 00-1.89-4.65C17.88.83 15.46 0 12.31 0H0v27.42h12.69a16.26 16.26 0 004.13-.49 9.88 9.88 0 003.23-1.44 6.73 6.73 0 002.1-2.4 7.27 7.27 0 00.74-3.32v-.07a7.15 7.15 0 00-.4-2.51 5.58 5.58 0 00-1.14-1.9zM5.24 11.16V4.74h6.5a5.52 5.52 0 013.33.84 2.67 2.67 0 011.09 2.29V8a2.76 2.76 0 01-1.25 2.51 6.33 6.33 0 01-3.52.86H5.24zm12.42 8.12a2.82 2.82 0 01-1.26 2.53 6.52 6.52 0 01-3.63.87H5.24v-6.81h7.19a7.14 7.14 0 014 .9 2.77 2.77 0 011.25 2.44zM86.9 7.19a6.53 6.53 0 00-4.46 1.28 8.18 8.18 0 00-1.88 2.08v-3h-5.23v19.87h5.24v-7.66a10.11 10.11 0 01.43-3.17 6.05 6.05 0 011.24-2.21 5.16 5.16 0 011.91-1.3 6.72 6.72 0 012.48-.44h.64V7.21zM1.51 47.93l1.95-9.33H0l.25-1.2h8.29l-.25 1.2H4.87l-1.95 9.33zm5.04 0l1.6-7.63H9.3L9 41.86a5.31 5.31 0 011.15-1.31 1.9 1.9 0 011.15-.42 2.26 2.26 0 011 .28l-.53 1.21a1.24 1.24 0 00-.74-.24 2 2 0 00-1.4.76 5.79 5.79 0 00-1.13 2.74l-.65 3.06zm10.12-1.38a3.84 3.84 0 01-2.81 1.55 2 2 0 01-1.43-.51 1.63 1.63 0 01-.54-1.24 9.47 9.47 0 01.24-1.65l.92-4.41h1.3l-1 4.88a4.92 4.92 0 00-.13.95.87.87 0 00.26.67 1.11 1.11 0 00.77.24 2.32 2.32 0 001.07-.27 2.84 2.84 0 00.9-.72 3.76 3.76 0 00.6-1.04 9.51 9.51 0 00.37-1.39l.69-3.3h1.3l-1.6 7.63h-1.2zm3.09-1.23l1.3-.08a2.38 2.38 0 00.17 1 1.37 1.37 0 00.64.65 2.23 2.23 0 001.13.21 2 2 0 001.29-.34 1 1 0 00.43-.81 1 1 0 00-.26-.64 4.09 4.09 0 00-1.3-.74 12.35 12.35 0 01-1.32-.62 2.13 2.13 0 01-.73-.69 1.72 1.72 0 01-.24-.92 2 2 0 01.72-1.55 2.9 2.9 0 012-.65 3.2 3.2 0 012.19.66 2.31 2.31 0 01.78 1.75l-1.27.09a1.46 1.46 0 00-.49-1.09 1.91 1.91 0 00-1.3-.4 1.6 1.6 0 00-1 .31.87.87 0 00-.37.67.81.81 0 00.32.63 5.41 5.41 0 001.11.57 7.49 7.49 0 011.88 1 1.94 1.94 0 01.56 1.46 2 2 0 01-.35 1.11 2.4 2.4 0 01-1.06.87 4 4 0 01-1.69.33 3.8 3.8 0 01-2.25-.65 2.32 2.32 0 01-.89-2.13zM30 46.87l-.22 1.06a3.57 3.57 0 01-.91.12 1.88 1.88 0 01-1.24-.38 1 1 0 01-.34-.78 7.86 7.86 0 01.19-1.16l.93-4.43h-1l.21-1h1l.4-1.88 1.49-.9L30 40.3h1.28l-.22 1h-1.31l-.88 4.22a7.9 7.9 0 00-.17 1 .45.45 0 00.13.35.63.63 0 00.43.12 3.12 3.12 0 00.74-.12zm6.69-1.53l1.26.13a3.83 3.83 0 01-1.25 1.79 3.46 3.46 0 01-2.34.85 3.16 3.16 0 01-1.56-.39 2.57 2.57 0 01-1.08-1.14 3.79 3.79 0 01-.37-1.7 5.43 5.43 0 01.58-2.43 4.13 4.13 0 011.5-1.75 3.7 3.7 0 012-.57 2.89 2.89 0 012.18.85 3.2 3.2 0 01.82 2.31 6.83 6.83 0 01-.1 1.15h-5.62a3.17 3.17 0 000 .4 2.42 2.42 0 00.49 1.63 1.54 1.54 0 001.2.56 2.32 2.32 0 001.32-.44 2.85 2.85 0 00.97-1.25zm-3.78-1.89h4.29v-.29a2.11 2.11 0 00-.49-1.5 1.65 1.65 0 00-1.26-.52 2.31 2.31 0 00-1.52.57 3.45 3.45 0 00-1.02 1.74zm11.51 3.37a3.14 3.14 0 01-2.33 1.28 2.33 2.33 0 01-1.81-.8 3.36 3.36 0 01-.72-2.3 5.66 5.66 0 01.57-2.55 4.32 4.32 0 011.43-1.73 3.07 3.07 0 011.72-.57 2.31 2.31 0 012.15 1.37l.86-4.1h1.29l-2.2 10.54h-1.2zm-3.56-2.09A4 4 0 0041 46a1.65 1.65 0 00.54.77 1.41 1.41 0 00.91.31 2 2 0 001.6-.92 4.72 4.72 0 001-3 2 2 0 00-.47-1.42 1.56 1.56 0 00-1.19-.51 1.76 1.76 0 00-.85.21 2.49 2.49 0 00-.76.71 4.45 4.45 0 00-.64 1.27 4.32 4.32 0 00-.29 1.31zm10.69 3.2l2.2-10.54H55l-.78 3.77a4.61 4.61 0 011.12-.8 2.46 2.46 0 011-.23 2.3 2.3 0 011.79.8 3.37 3.37 0 01.72 2.32 5.7 5.7 0 01-.29 1.85 5.15 5.15 0 01-.71 1.41 4.46 4.46 0 01-.88.91 3.48 3.48 0 01-.93.51 2.72 2.72 0 01-.91.17 2.27 2.27 0 01-1.33-.4 2.58 2.58 0 01-.9-1.22l-.3 1.44zm1.93-3.13v.2a2.13 2.13 0 00.47 1.49 1.51 1.51 0 001.15.51 1.91 1.91 0 001.25-.48 3.41 3.41 0 00.94-1.49 5.53 5.53 0 00.37-1.87 2.2 2.2 0 00-.46-1.49 1.46 1.46 0 00-1.2-.49 1.87 1.87 0 00-1.29.54 4.06 4.06 0 00-1 1.67 4.43 4.43 0 00-.24 1.41zm5.77 6.08l.08-1.22a2.85 2.85 0 00.78.11 1.05 1.05 0 00.64-.18 3 3 0 00.69-.89l.42-.75-1.28-7.65h1.28l.57 3.86q.17 1.14.29 2.29l3.41-6.14h1.37l-4.87 8.65a5.53 5.53 0 01-1.25 1.67 2 2 0 01-1.26.41 2.66 2.66 0 01-.87-.16zm14.97-4.01L74 47.94a3.57 3.57 0 01-.91.12 1.88 1.88 0 01-1.24-.38 1 1 0 01-.34-.78 7.86 7.86 0 01.19-1.16l.93-4.43h-1l.21-1h1l.4-1.88 1.49-.9-.58 2.77h1.28l-.22 1h-1.28l-.88 4.22a7.9 7.9 0 00-.17 1 .45.45 0 00.13.35.63.63 0 00.43.12 3.12 3.12 0 00.78-.12zm1.05 1.06l1.6-7.63H78l-.32 1.56a5.31 5.31 0 011.15-1.31 1.9 1.9 0 011.17-.42 2.26 2.26 0 011 .28l-.53 1.21a1.24 1.24 0 00-.74-.24 2 2 0 00-1.4.76 5.79 5.79 0 00-1.13 2.74l-.65 3.06zM85.32 47a5.17 5.17 0 01-1.3.85 3.34 3.34 0 01-1.34.27 2.35 2.35 0 01-1.7-.62 2.11 2.11 0 01-.65-1.59 2.18 2.18 0 01.29-1.13 2.28 2.28 0 01.77-.79 3.4 3.4 0 011.18-.43 13.16 13.16 0 011.66-.14 6 6 0 001.77-.28 3.36 3.36 0 00.15-.88.85.85 0 00-.33-.71 2.09 2.09 0 00-1.32-.36 2.29 2.29 0 00-1.34.36 2 2 0 00-.76 1l-1.32-.11a3.43 3.43 0 011.28-1.74 3.79 3.79 0 012.2-.6 3.44 3.44 0 012.24.68 1.59 1.59 0 01.63 1.31 6.6 6.6 0 01-.18 1.42l-.42 1.9a7.11 7.11 0 00-.2 1.47 4.93 4.93 0 00.16 1h-1.32a4.8 4.8 0 01-.15-.88zm.48-2.92a3.14 3.14 0 01-.59.17q-.31.06-1 .12a8 8 0 00-1.6.26 1.34 1.34 0 00-.7.49 1.27 1.27 0 00-.24.75 1.17 1.17 0 00.38.9 1.52 1.52 0 001.07.35 2.54 2.54 0 002.18-1.29 5.53 5.53 0 00.5-1.77zm7.7 2.74a3.14 3.14 0 01-2.33 1.28 2.33 2.33 0 01-1.81-.8 3.36 3.36 0 01-.72-2.3 5.66 5.66 0 01.57-2.55 4.32 4.32 0 011.43-1.73 3.07 3.07 0 011.72-.57 2.31 2.31 0 012.15 1.37l.86-4.1h1.29l-2.2 10.54h-1.2zm-3.56-2.09A4 4 0 0090.1 46a1.65 1.65 0 00.54.77 1.41 1.41 0 00.91.31 2 2 0 001.6-.92 4.72 4.72 0 001-3 2 2 0 00-.47-1.42 1.56 1.56 0 00-1.19-.51 1.76 1.76 0 00-.85.21 2.49 2.49 0 00-.76.71 4.45 4.45 0 00-.64 1.27 4.32 4.32 0 00-.3 1.31zm12.21.61l1.26.13a3.83 3.83 0 01-1.25 1.79 3.46 3.46 0 01-2.34.85 3.16 3.16 0 01-1.56-.39 2.57 2.57 0 01-1.08-1.14 3.79 3.79 0 01-.37-1.7 5.43 5.43 0 01.58-2.43 4.13 4.13 0 011.5-1.75 3.7 3.7 0 012-.57 2.89 2.89 0 012.18.85 3.2 3.2 0 01.82 2.31 6.83 6.83 0 01-.1 1.15h-5.63a3.17 3.17 0 000 .4 2.42 2.42 0 00.49 1.63 1.54 1.54 0 001.2.56 2.32 2.32 0 001.32-.44 2.85 2.85 0 00.98-1.25zm-3.78-1.89h4.28v-.29a2.11 2.11 0 00-.49-1.5 1.65 1.65 0 00-1.26-.52 2.31 2.31 0 00-1.52.57 3.45 3.45 0 00-1.01 1.74zm6.36 4.48l1.6-7.63h1.15l-.32 1.56a5.31 5.31 0 011.15-1.31 1.9 1.9 0 011.15-.42 2.26 2.26 0 011 .28l-.53 1.21a1.24 1.24 0 00-.74-.24 2 2 0 00-1.4.76 5.79 5.79 0 00-1.13 2.74l-.66 3.05zm5.02-2.61l1.3-.08a2.38 2.38 0 00.17 1 1.37 1.37 0 00.64.65 2.23 2.23 0 001.08.25 2 2 0 001.29-.34 1 1 0 00.43-.81 1 1 0 00-.26-.64 4.09 4.09 0 00-1.3-.74 12.35 12.35 0 01-1.32-.62 2.13 2.13 0 01-.73-.69 1.72 1.72 0 01-.24-.92 2 2 0 01.72-1.55 2.9 2.9 0 012-.65 3.2 3.2 0 012.19.66 2.31 2.31 0 01.78 1.75l-1.27.09a1.46 1.46 0 00-.49-1.09 1.91 1.91 0 00-1.3-.4 1.6 1.6 0 00-1 .31.87.87 0 00-.37.67.81.81 0 00.32.63 5.41 5.41 0 001.11.57 7.49 7.49 0 011.88 1 1.94 1.94 0 01.62 1.45 2 2 0 01-.35 1.11 2.4 2.4 0 01-1.06.87 4 4 0 01-1.69.33 3.8 3.8 0 01-2.25-.65 2.32 2.32 0 01-.9-2.16zm11.45 0l1.3-.08a2.38 2.38 0 00.17 1 1.37 1.37 0 00.64.65 2.23 2.23 0 001.08.25 2 2 0 001.29-.34 1 1 0 00.43-.81 1 1 0 00-.26-.64 4.09 4.09 0 00-1.3-.74 12.35 12.35 0 01-1.32-.62 2.13 2.13 0 01-.73-.69 1.72 1.72 0 01-.24-.92 2 2 0 01.72-1.55 2.9 2.9 0 012-.65 3.2 3.2 0 012.19.66 2.31 2.31 0 01.78 1.75l-1.27.09a1.46 1.46 0 00-.49-1.09 1.91 1.91 0 00-1.3-.4 1.6 1.6 0 00-1 .31.87.87 0 00-.37.67.81.81 0 00.32.63 5.41 5.41 0 001.11.57 7.49 7.49 0 011.88 1 1.94 1.94 0 01.62 1.45 2 2 0 01-.35 1.11 2.4 2.4 0 01-1.06.87 4 4 0 01-1.69.33 3.8 3.8 0 01-2.25-.65 2.32 2.32 0 01-.9-2.16zm7.19 2.61L130 40.3h1.3l-1.6 7.63zm1.9-9.06l.31-1.47h1.29l-.31 1.47zm1.42 9.06l1.6-7.63h1.18l-.28 1.33a6.24 6.24 0 011.44-1.14 2.85 2.85 0 011.37-.36 2 2 0 011.46.5A1.77 1.77 0 01139 42a7.5 7.5 0 01-.19 1.34l-1 4.62h-1.3l1-4.84a5.55 5.55 0 00.15-1 .79.79 0 00-.26-.62 1.09 1.09 0 00-.76-.24 2.55 2.55 0 00-1.78.72 4.59 4.59 0 00-1.15 2.46l-.71 3.49zm13.45-2.78l1.3.14a4.37 4.37 0 01-1.39 2.12 3.28 3.28 0 01-2.05.69 2.67 2.67 0 01-2-.8 3.12 3.12 0 01-.77-2.25 6.42 6.42 0 01.5-2.46 4 4 0 011.42-1.84 3.66 3.66 0 012.11-.63 2.69 2.69 0 011.95.69 2.43 2.43 0 01.72 1.84l-1.28.09a1.55 1.55 0 00-.42-1.14 1.48 1.48 0 00-1.09-.41 2 2 0 00-1.36.5 3.27 3.27 0 00-.9 1.51 6.3 6.3 0 00-.33 1.94 2.16 2.16 0 00.43 1.47 1.36 1.36 0 001.06.49 1.87 1.87 0 001.21-.48 3.16 3.16 0 00.89-1.47zm7.7.19l1.26.13a3.83 3.83 0 01-1.25 1.79 3.46 3.46 0 01-2.34.85 3.16 3.16 0 01-1.56-.39 2.57 2.57 0 01-1.08-1.14 3.79 3.79 0 01-.37-1.7 5.43 5.43 0 01.58-2.43 4.13 4.13 0 011.5-1.75 3.7 3.7 0 012-.57 2.89 2.89 0 012.18.85 3.2 3.2 0 01.82 2.31 6.83 6.83 0 01-.1 1.15h-5.62a3.17 3.17 0 000 .4 2.42 2.42 0 00.49 1.63 1.54 1.54 0 001.2.56 2.32 2.32 0 001.32-.44 2.85 2.85 0 00.97-1.25zm-3.78-1.89h4.28v-.29a2.11 2.11 0 00-.49-1.5 1.65 1.65 0 00-1.26-.52 2.31 2.31 0 00-1.52.57 3.45 3.45 0 00-1.01 1.74zm10.82 4.48a5.66 5.66 0 01.56-1.58 5.28 5.28 0 01.95-1.21q.59-.57 2.27-1.92a16.1 16.1 0 001.39-1.2 4 4 0 00.78-1.1 1.92 1.92 0 00.17-.8 1.67 1.67 0 00-.51-1.23 1.73 1.73 0 00-1.26-.51 1.84 1.84 0 00-1.29.51 3.05 3.05 0 00-.79 1.65l-1.27-.19a3.47 3.47 0 011.1-2.19 3.24 3.24 0 012.25-.81 3.52 3.52 0 011.63.37 2.51 2.51 0 011.1 1 2.89 2.89 0 01.37 1.39 3.27 3.27 0 01-.75 2 19.89 19.89 0 01-2.7 2.38 15.06 15.06 0 00-1.43 1.25 4.48 4.48 0 00-.71.92h4.71l-.25 1.19zm8.36-3.46a10.85 10.85 0 011.29-4.92 5.4 5.4 0 011-1.29 3.92 3.92 0 011-.69 2.8 2.8 0 011.12-.22 2.6 2.6 0 012 .9 3.75 3.75 0 01.81 2.59 11 11 0 01-.48 3.46 6.6 6.6 0 01-1.84 3 3.1 3.1 0 01-2.06.77 2.56 2.56 0 01-2-.93 4 4 0 01-.84-2.67zm1.26.33a3 3 0 00.32 1.52 1.41 1.41 0 001.3.75 1.83 1.83 0 001.37-.68 6.27 6.27 0 001.34-2.82 13.5 13.5 0 00.45-3 2.49 2.49 0 00-.43-1.64 1.44 1.44 0 00-1.15-.5 1.86 1.86 0 00-1 .27 2.72 2.72 0 00-.86.91 9.18 9.18 0 00-1 2.73 11.45 11.45 0 00-.34 2.46zm6.93-.33a10.85 10.85 0 011.29-4.92 5.4 5.4 0 011-1.29 3.92 3.92 0 011-.69 2.8 2.8 0 011.12-.22 2.6 2.6 0 012 .9 3.75 3.75 0 01.81 2.59 11 11 0 01-.56 3.46 6.6 6.6 0 01-1.84 3 3.1 3.1 0 01-2.06.77 2.56 2.56 0 01-2-.93 4 4 0 01-.76-2.67zm1.26.33a3 3 0 00.32 1.52 1.41 1.41 0 001.3.75 1.83 1.83 0 001.37-.68 6.27 6.27 0 001.3-2.82 13.5 13.5 0 00.45-3 2.49 2.49 0 00-.43-1.64 1.44 1.44 0 00-1.15-.5 1.86 1.86 0 00-1 .27 2.72 2.72 0 00-.86.91 9.18 9.18 0 00-1 2.73 11.45 11.45 0 00-.3 2.46zm6.92-.33a10.85 10.85 0 011.29-4.92 5.4 5.4 0 011-1.29 3.92 3.92 0 011-.69 2.8 2.8 0 011.12-.22 2.6 2.6 0 012 .9 3.75 3.75 0 01.81 2.59 11 11 0 01-.56 3.46 6.6 6.6 0 01-1.84 3 3.1 3.1 0 01-2.06.77 2.56 2.56 0 01-2-.93 4 4 0 01-.76-2.67zm1.26.33a3 3 0 00.32 1.52 1.41 1.41 0 001.3.75 1.83 1.83 0 001.37-.68 6.27 6.27 0 001.34-2.82 13.5 13.5 0 00.45-3 2.49 2.49 0 00-.43-1.64 1.44 1.44 0 00-1.15-.5 1.86 1.86 0 00-1 .27 2.72 2.72 0 00-.86.91 9.18 9.18 0 00-1 2.73 11.45 11.45 0 00-.34 2.46z"/></svg>